<svg preserveAspectRatio="none" width="100%" height="100%" overflow="visible" style="display: block;" viewBox="0 0 4 4" fill="none" xmlns="http://www.w3.org/2000/svg">
<path id="Vector" d="M0.464527 0.400739C0.773926 0.132737 1.21725 0 1.79452 0C2.37178 0 2.81427 0.133583 3.12112 0.400739C3.42798 0.66705 3.58226 1.05257 3.58226 1.55306V1.83205C3.58226 2.32917 3.42798 2.71046 3.12112 2.97761C2.81342 3.24477 2.37178 3.37835 1.79452 3.37835C1.21725 3.37835 0.773079 3.24477 0.464527 2.97761C0.15428 2.7113 0 2.32832 0 1.83205V1.55306C0 1.05172 0.155127 0.667895 0.464527 0.400739ZM2.42773 2.43062C2.56505 2.30549 2.63371 2.11443 2.63371 1.85911V1.5184C2.63371 1.26815 2.56505 1.07962 2.42773 0.95365C2.29041 0.828526 2.07934 0.76512 1.79621 0.76512C1.51309 0.76512 1.2944 0.828526 1.15792 0.95365C1.0206 1.07877 0.951937 1.2673 0.951937 1.5184V1.85911C0.951937 2.11443 1.0206 2.30549 1.15792 2.43062C1.29524 2.55574 1.50801 2.61915 1.79621 2.61915C2.08442 2.61915 2.29125 2.55574 2.42773 2.43062Z" fill="var(--fill-0, white)"/>
</svg>
