<svg preserveAspectRatio="none" width="100%" height="100%" overflow="visible" style="display: block;" viewBox="0 0 4 5" fill="none" xmlns="http://www.w3.org/2000/svg">
<path id="Vector" d="M2.91938 0.0997603C3.20335 0.167395 3.4568 0.25701 3.67974 0.368607L3.41527 1.04495C2.98719 0.86403 2.56929 0.772726 2.1658 0.772726C1.76231 0.772726 1.43934 0.876713 1.24438 1.083C1.04857 1.28928 0.951089 1.61562 0.951089 2.06201V2.57772C0.951089 3.01481 1.04603 3.33607 1.2376 3.54659C1.42918 3.75541 1.73094 3.86024 2.14545 3.86024C2.35059 3.86024 2.58031 3.83319 2.83716 3.77993C3.09315 3.72667 3.34406 3.64888 3.59074 3.54659L3.8213 4.22209C3.55089 4.35228 3.26014 4.45374 2.9482 4.52475C2.63541 4.59746 2.34296 4.63297 2.06832 4.63297C1.3834 4.63297 0.868016 4.45543 0.520471 4.10034C0.172926 3.74442 0 3.22617 0 2.54306V2.0899C0 1.4068 0.178861 0.888548 0.537425 0.532621C0.89599 0.176694 1.42154 0 2.11579 0C2.3667 0 2.63541 0.0338175 2.91938 0.100607" fill="var(--fill-0, white)"/>
</svg>
