<svg preserveAspectRatio="none" width="100%" height="100%" overflow="visible" style="display: block;" viewBox="0 0 4 5" fill="none" xmlns="http://www.w3.org/2000/svg">
<path id="Vector" d="M0 0H0.949387V1.60209C1.06128 1.52262 1.2003 1.46175 1.36814 1.41694C1.53597 1.37298 1.71484 1.35015 1.90556 1.35015C2.93039 1.35015 3.44154 1.84473 3.44154 2.83389V3.24477C3.44154 4.23392 2.9287 4.7285 1.90556 4.7285C1.64533 4.7285 1.419 4.69553 1.22827 4.63128C1.0367 4.56618 0.895137 4.47065 0.802741 4.34552L0.747646 4.65918H0.000843324V0H0ZM1.73179 3.99805C2.00643 3.99805 2.2014 3.94309 2.31838 3.83065C2.43535 3.71905 2.493 3.53391 2.493 3.27267V2.80599C2.493 2.54644 2.43535 2.36045 2.31838 2.248C2.2014 2.13641 2.00559 2.08061 1.73179 2.08061C1.47579 2.08061 1.28168 2.13134 1.14859 2.23448C1.01636 2.33593 0.949387 2.48726 0.949387 2.68678V3.39018C0.949387 3.7943 1.20962 3.99636 1.73179 3.99636" fill="var(--fill-0, white)"/>
</svg>
