<svg preserveAspectRatio="none" width="100%" height="100%" overflow="visible" style="display: block;" viewBox="0 0 4 4" fill="none" xmlns="http://www.w3.org/2000/svg">
<path id="Vector" d="M0.736621 3.33185C0.459432 3.29888 0.213613 3.25491 0 3.19996L0.132242 2.55152C0.658645 2.64874 1.11214 2.69693 1.49444 2.69693C1.74535 2.69693 1.91913 2.67241 2.01491 2.62337C2.10985 2.57519 2.15901 2.4898 2.15901 2.36975C2.15901 2.30549 2.13952 2.25477 2.10391 2.21926C2.06662 2.1846 1.99372 2.15247 1.88776 2.12541C1.78011 2.09752 1.60548 2.06539 1.3639 2.02819C0.99601 1.96817 0.715437 1.89969 0.523016 1.82275C0.329747 1.74582 0.194965 1.64859 0.117827 1.53023C0.0406894 1.41187 0.00254549 1.25208 0.00254549 1.05256C0.00254549 0.351698 0.507757 0 1.51818 0C1.94625 0 2.43281 0.0600269 2.97702 0.180924L2.838 0.82176C2.34889 0.733835 1.93269 0.689873 1.58853 0.689873C1.3461 0.689873 1.17911 0.712697 1.08587 0.75666C0.993475 0.800622 0.946851 0.876715 0.946851 0.982394C0.946851 1.05256 0.964651 1.10752 0.998558 1.14979C1.03331 1.19121 1.10282 1.22672 1.20793 1.25377C1.31219 1.28167 1.4741 1.31126 1.69364 1.34424C2.0751 1.39919 2.365 1.46513 2.56335 1.53953C2.76171 1.61393 2.90073 1.71116 2.98211 1.83205C3.06348 1.95295 3.10417 2.11781 3.10417 2.32663C3.10417 2.68932 2.98041 2.95478 2.73374 3.12472C2.48706 3.2938 2.09544 3.37834 1.56056 3.37834C1.29016 3.37834 1.0172 3.36228 0.740015 3.33015" fill="var(--fill-0, white)"/>
</svg>
