<svg preserveAspectRatio="none" width="100%" height="100%" overflow="visible" style="display: block;" viewBox="0 0 14 20" fill="none" xmlns="http://www.w3.org/2000/svg">
<path id="Vector" d="M13.1901 12.564V5.86307C13.1901 2.23363 10.67 0 7.03182 0H0.761602L0.481872 3.07061H7.03182C9.04673 3.07061 10.1106 3.90843 10.1106 5.86222V10.6085H5.91205C3.95223 10.6085 3.0003 10.0496 3.11304 8.09501L3.28088 4.46557H0.36913L0.0326052 8.09501C-0.30392 11.7244 1.99242 13.6791 5.63147 13.6791C7.1293 13.6791 8.62629 13.614 10.0995 13.5075C9.9851 15.7191 8.85516 16.4699 6.47151 16.4699H0.0343022V19.5405H6.47151C10.67 19.5405 13.1901 17.0287 13.1901 12.5614" fill="var(--fill-0, white)"/>
</svg>
