<svg preserveAspectRatio="none" width="100%" height="100%" overflow="visible" style="display: block;" viewBox="0 0 4 4" fill="none" xmlns="http://www.w3.org/2000/svg">
<path id="Vector" d="M0.443335 0.390589C0.739172 0.131042 1.16301 0 1.71823 0C2.27345 0 2.70661 0.12766 2.99312 0.38298C3.27964 0.638301 3.42204 1.01959 3.42204 1.52516V2.01974H0.949392C0.958716 2.22856 1.02908 2.38074 1.15877 2.47627C1.28931 2.57096 1.49614 2.61999 1.78011 2.61999C2.2921 2.61999 2.78545 2.58533 3.26099 2.51516L3.33135 3.22532C2.76341 3.32677 2.23701 3.37919 1.75299 3.37919C1.17572 3.37919 0.738324 3.25238 0.443335 2.99959C0.147498 2.74681 0 2.37905 0 1.89546V1.53277C0 1.03143 0.148346 0.650982 0.443335 0.390589ZM2.47859 1.45583V1.38566C2.47859 1.15317 2.4201 0.984083 2.30058 0.877559C2.1819 0.770189 1.98694 0.716927 1.71738 0.716927C1.44782 0.716927 1.23929 0.77357 1.12401 0.887703C1.00703 1.00184 0.949392 1.19037 0.949392 1.45583H2.47859Z" fill="var(--fill-0, white)"/>
</svg>
