<svg preserveAspectRatio="none" width="100%" height="100%" overflow="visible" style="display: block;" viewBox="0 0 4 4" fill="none" xmlns="http://www.w3.org/2000/svg">
<path id="Vector" d="M0.464532 0.400734C0.774779 0.133577 1.21726 0 1.79452 0C2.37179 0 2.81427 0.133577 3.12113 0.400734C3.42798 0.667045 3.58226 1.05256 3.58226 1.55306V1.83205C3.58226 2.32916 3.42798 2.71046 3.12113 2.97761C2.81342 3.24477 2.37179 3.37835 1.79452 3.37835C1.21726 3.37835 0.773084 3.24477 0.464532 2.97761C0.154285 2.7113 0 2.32832 0 1.83205V1.55306C0 1.05172 0.155132 0.667045 0.464532 0.400734ZM2.42603 2.43062C2.56335 2.30549 2.63202 2.11442 2.63202 1.8591V1.5184C2.63202 1.26815 2.56335 1.07962 2.42603 0.95365C2.28871 0.828526 2.07764 0.765115 1.79452 0.765115C1.5114 0.765115 1.2927 0.828526 1.15453 0.95365C1.0172 1.07877 0.948548 1.2673 0.948548 1.5184V1.8591C0.948548 2.11442 1.0172 2.30549 1.15453 2.43062C1.29185 2.55574 1.50462 2.61915 1.79452 2.61915C2.08442 2.61915 2.28956 2.55574 2.42603 2.43062Z" fill="var(--fill-0, white)"/>
</svg>
