<svg preserveAspectRatio="none" width="100%" height="100%" overflow="visible" style="display: block;" viewBox="0 0 4 4" fill="none" xmlns="http://www.w3.org/2000/svg">
<path id="Vector" d="M2.96092 0.174159L2.8219 0.864034C2.46757 0.793863 2.12765 0.759196 1.80215 0.759196C1.50885 0.759196 1.29355 0.823451 1.15538 0.951111C1.01805 1.07877 0.949387 1.27068 0.949387 1.526V1.85995C0.949387 2.11527 1.01805 2.30634 1.15538 2.43146C1.2927 2.55659 1.50885 2.61999 1.80215 2.61999C2.21157 2.61999 2.60997 2.57603 2.99651 2.48811L3.10077 3.20503C2.89564 3.25576 2.66847 3.29803 2.4201 3.33016C2.17089 3.36313 1.94371 3.37835 1.73857 3.37835C1.17911 3.37835 0.750183 3.24477 0.450108 2.97761C0.150032 2.7113 0 2.32832 0 1.83205V1.55306C0 1.05172 0.15088 0.667045 0.450108 0.400734C0.750183 0.133577 1.17996 0 1.73857 0C2.08697 0 2.4947 0.0583346 2.96092 0.174159Z" fill="var(--fill-0, white)"/>
</svg>
