<svg preserveAspectRatio="none" width="100%" height="100%" overflow="visible" style="display: block;" viewBox="0 0 4 4" fill="none" xmlns="http://www.w3.org/2000/svg">
<path id="Vector" d="M2.19546 0.762576C2.09798 0.690714 1.9276 0.654363 1.68601 0.654363C1.49444 0.654363 1.2715 0.664508 1.01551 0.685644C0.759511 0.705934 0.535728 0.732989 0.345002 0.765961L0.274644 0.153023C0.493343 0.111597 0.739168 0.0752407 1.01127 0.0448052C1.28422 0.0143697 1.53174 0 1.75467 0C2.28108 0 2.66677 0.09384 2.91344 0.282371C3.16011 0.470903 3.28387 0.769342 3.28387 1.17769V3.31578H2.55064L2.48028 2.93956C2.28871 3.23208 1.8937 3.37834 1.2927 3.37834C0.854452 3.37834 0.530642 3.29042 0.317876 3.11457C0.105959 2.93872 0 2.66818 0 2.30634C0 1.94449 0.113587 1.67987 0.33822 1.51247C0.5637 1.34508 0.934981 1.26223 1.45206 1.26223H2.33957V1.17177C2.33957 0.972245 2.29125 0.83613 2.19377 0.764268M1.08502 1.89884C0.992621 1.9707 0.945998 2.09498 0.945998 2.27167C0.945998 2.43907 0.993467 2.55828 1.08841 2.63098C1.18334 2.70284 1.33847 2.7392 1.55293 2.7392C1.79537 2.7392 1.98609 2.68932 2.12935 2.58871C2.27091 2.48895 2.34211 2.34861 2.34211 2.16768V1.79147H1.55293C1.33423 1.79147 1.17826 1.82782 1.08502 1.89968" fill="var(--fill-0, white)"/>
</svg>
