<svg preserveAspectRatio="none" width="100%" height="100%" overflow="visible" style="display: block;" viewBox="0 0 54 20" fill="none" xmlns="http://www.w3.org/2000/svg">
<path id="Vector" d="M47.3085 0.00422677H34.3205L34.0408 3.07484H47.3085C49.604 3.07484 50.3872 3.91266 50.3872 5.86645V8.09924C50.3872 10.0539 49.5472 10.611 47.3085 10.611H39.4709C36.9508 10.611 36.5592 10.0522 36.6719 8.09924L36.8397 4.4698H33.928L33.5915 8.09924C33.4906 9.10361 33.5737 9.92706 33.8305 10.611H31.3528C29.393 10.611 28.274 9.77319 28.274 7.8194V5.86476C28.274 2.23532 25.7539 0.00169058 22.1157 0.00169058H15.8455L15.5658 3.0723H22.1157C24.1306 3.0723 25.1945 3.91012 25.1945 5.86391V8.0967C25.1945 9.77235 24.6341 10.6085 23.5144 10.6085C22.4828 10.6085 20.5009 10.1342 18.0062 9.40458C18.0969 8.99624 18.1605 8.56 18.1952 8.09585L18.3631 4.46642H15.4513L15.1148 8.09585C14.947 10.0505 14.2748 10.6076 12.5947 10.6076H12.315C10.6349 10.6076 9.79653 10.0488 9.79653 8.09585V2.79162H6.71779V13.1211C6.71779 15.6329 5.59802 16.4707 3.07874 16.4707H0V19.5413H3.07874C7.09161 19.5413 9.56935 17.2434 9.78042 13.1414C10.5628 13.5328 11.5114 13.6791 12.3158 13.6791H12.5955C14.4519 13.6791 15.8794 13.0822 16.8339 11.935C20.4111 13.1769 22.7311 13.6791 23.7924 13.6791C24.9876 13.6791 26.1828 13.1135 26.9746 12.1835C27.9333 13.1135 29.3574 13.6791 31.3494 13.6791H47.3051C51.2239 13.6791 53.4634 11.7244 53.4634 8.09585V5.86307C53.4634 2.23363 51.2247 0 47.3051 0" fill="var(--fill-0, white)"/>
</svg>
