<svg preserveAspectRatio="none" width="100%" height="100%" overflow="visible" style="display: block;" viewBox="0 0 6 4" fill="none" xmlns="http://www.w3.org/2000/svg">
<path id="Vector" d="M0 0.0710185H0.746797L0.801893 0.377911C0.89005 0.261241 1.02144 0.169934 1.19691 0.102299C1.37153 0.0346646 1.56819 0.000846257 1.78689 0.000846257C2.25649 0.000846257 2.58709 0.142035 2.77866 0.425255C2.89564 0.284913 3.0533 0.180077 3.2542 0.108215C3.45425 0.0363535 3.6916 0 3.96625 0C4.45535 0 4.819 0.114979 5.0555 0.344091C5.29285 0.574049 5.41237 0.944349 5.41237 1.45499V3.30733H4.46298V1.44823C4.46298 1.18276 4.41467 0.997612 4.31718 0.890242C4.2197 0.783718 4.06118 0.729608 3.84164 0.729608C3.40339 0.729608 3.18469 0.929132 3.18469 1.32902V3.30733H2.23531V1.44823C2.23531 1.18276 2.18699 0.997612 2.0895 0.890242C1.99202 0.783718 1.83351 0.729608 1.61396 0.729608C1.17148 0.729608 0.950235 0.929132 0.950235 1.32902V3.30733H0.000843324V0.0684798V0.0710185H0Z" fill="var(--fill-0, white)"/>
</svg>
