<svg preserveAspectRatio="none" width="100%" height="100%" overflow="visible" style="display: block;" viewBox="0 0 6 4" fill="none" xmlns="http://www.w3.org/2000/svg">
<path id="Vector" d="M0.000848498 0.0710185H0.747646L0.802741 0.377911C0.890899 0.261241 1.02229 0.169934 1.19776 0.102299C1.37238 0.0346646 1.56903 0.000846257 1.78773 0.000846257C2.25734 0.000846257 2.58794 0.142035 2.77951 0.425255C2.89649 0.284913 3.05415 0.180077 3.25505 0.108215C3.4551 0.0363535 3.69245 0 3.9671 0C4.4562 0 4.81985 0.114979 5.05635 0.344091C5.2937 0.574049 5.41322 0.944349 5.41322 1.45499V3.30733H4.46383V1.44823C4.46383 1.18276 4.41551 0.997612 4.31634 0.890242C4.21885 0.783718 4.06034 0.729608 3.84079 0.729608C3.40255 0.729608 3.18385 0.929132 3.18385 1.32902V3.30733H2.23446V1.44823C2.23446 1.18276 2.18614 0.997612 2.08866 0.890242C1.99118 0.783718 1.83266 0.729608 1.61311 0.729608C1.17063 0.729608 0.949392 0.929132 0.949392 1.32902V3.30733H0V0.0684798V0.0710185H0.000848498Z" fill="var(--fill-0, white)"/>
</svg>
