<svg width="335" height="53" viewBox="0 0 335 53" fill="none" xmlns="http://www.w3.org/2000/svg">
<path d="M0.375 52L12.6 1.225H34.125L46.425 52H33L30.75 43.6H15.6L13.5 52H0.375ZM17.475 33.175H29.175L24.675 11.8H22.125L17.475 33.175ZM50.4768 52V1.225H71.8518C75.2518 1.225 78.2518 1.625 80.8518 2.425C83.4518 3.225 85.4768 4.55 86.9268 6.4C88.4268 8.25 89.1768 10.75 89.1768 13.9C89.1768 16 89.0018 17.775 88.6518 19.225C88.3018 20.625 87.7268 21.875 86.9268 22.975C86.1268 24.025 85.0018 25 83.5518 25.9C85.0518 26.5 86.3268 27.25 87.3768 28.15C88.4268 29.05 89.2268 30.25 89.7768 31.75C90.3268 33.2 90.6018 35.175 90.6018 37.675C90.6018 40.475 90.1268 42.8 89.1768 44.65C88.2268 46.5 86.9018 47.975 85.2018 49.075C83.5518 50.125 81.6268 50.875 79.4268 51.325C77.2268 51.775 74.8768 52 72.3768 52H50.4768ZM63.8268 42.625H71.2518C72.7518 42.625 73.9768 42.475 74.9268 42.175C75.8768 41.825 76.5768 41.2 77.0268 40.3C77.5268 39.4 77.7768 38.15 77.7768 36.55C77.7768 35.35 77.6018 34.375 77.2518 33.625C76.9018 32.875 76.4268 32.3 75.8268 31.9C75.2268 31.5 74.5268 31.225 73.7268 31.075C72.9268 30.875 72.0768 30.775 71.1768 30.775H63.8268V42.625ZM63.8268 21.925H71.0268C72.4268 21.925 73.5518 21.7 74.4018 21.25C75.3018 20.8 75.9268 20.15 76.2768 19.3C76.6768 18.4 76.8768 17.275 76.8768 15.925C76.8768 13.975 76.3768 12.575 75.3768 11.725C74.4268 10.875 72.9018 10.45 70.8018 10.45H63.8268V21.925ZM117.553 52.9C112.103 52.9 107.703 51.975 104.353 50.125C101.053 48.225 98.6281 45.35 97.0781 41.5C95.5781 37.6 94.8281 32.675 94.8281 26.725C94.8281 20.725 95.5781 15.775 97.0781 11.875C98.5781 7.975 101.003 5.075 104.353 3.175C107.703 1.225 112.103 0.249996 117.553 0.249996C123.053 0.249996 127.453 1.225 130.753 3.175C134.103 5.075 136.528 7.975 138.028 11.875C139.528 15.775 140.278 20.725 140.278 26.725C140.278 32.725 139.528 37.675 138.028 41.575C136.528 45.425 134.128 48.275 130.828 50.125C127.528 51.975 123.103 52.9 117.553 52.9ZM117.553 41.875C120.203 41.875 122.178 41.325 123.478 40.225C124.778 39.075 125.653 37.375 126.103 35.125C126.553 32.825 126.778 30.025 126.778 26.725C126.778 23.375 126.553 20.55 126.103 18.25C125.653 15.95 124.778 14.225 123.478 13.075C122.178 11.875 120.203 11.275 117.553 11.275C115.003 11.275 113.053 11.875 111.703 13.075C110.403 14.225 109.528 15.95 109.078 18.25C108.628 20.55 108.403 23.375 108.403 26.725C108.403 29.975 108.628 32.75 109.078 35.05C109.528 37.3 110.403 39 111.703 40.15C113.003 41.3 114.953 41.875 117.553 41.875ZM166.604 52.9C162.104 52.9 158.304 52.35 155.204 51.25C152.154 50.1 149.829 48.2 148.229 45.55C146.679 42.9 145.904 39.3 145.904 34.75V1.225H159.254V35.275C159.254 37.575 159.854 39.25 161.054 40.3C162.304 41.3 164.154 41.8 166.604 41.8C169.154 41.8 171.029 41.3 172.229 40.3C173.429 39.25 174.029 37.575 174.029 35.275V1.225H187.379V34.6C187.379 39.1 186.579 42.7 184.979 45.4C183.429 48.1 181.104 50.025 178.004 51.175C174.954 52.325 171.154 52.9 166.604 52.9ZM203.699 52V12.25H191.399V1.225H228.899V12.25H217.049V52H203.699ZM270.096 52.9C265.596 52.9 261.796 52.35 258.696 51.25C255.646 50.1 253.321 48.2 251.721 45.55C250.171 42.9 249.396 39.3 249.396 34.75V1.225H262.746V35.275C262.746 37.575 263.346 39.25 264.546 40.3C265.796 41.3 267.646 41.8 270.096 41.8C272.646 41.8 274.521 41.3 275.721 40.3C276.921 39.25 277.521 37.575 277.521 35.275V1.225H290.871V34.6C290.871 39.1 290.071 42.7 288.471 45.4C286.921 48.1 284.596 50.025 281.496 51.175C278.446 52.325 274.646 52.9 270.096 52.9ZM316.041 52.9C313.841 52.9 311.516 52.775 309.066 52.525C306.666 52.275 304.366 51.975 302.166 51.625C299.966 51.225 298.116 50.875 296.616 50.575L297.291 40.3C298.891 40.45 300.741 40.65 302.841 40.9C304.991 41.15 307.141 41.375 309.291 41.575C311.441 41.725 313.316 41.8 314.916 41.8C316.466 41.8 317.691 41.625 318.591 41.275C319.541 40.925 320.216 40.425 320.616 39.775C321.066 39.075 321.291 38.175 321.291 37.075C321.291 36.175 321.091 35.475 320.691 34.975C320.291 34.425 319.516 33.975 318.366 33.625C317.266 33.225 315.666 32.85 313.566 32.5C310.316 31.95 307.566 31.3 305.316 30.55C303.116 29.75 301.341 28.775 299.991 27.625C298.641 26.425 297.666 24.925 297.066 23.125C296.466 21.325 296.166 19.15 296.166 16.6C296.166 12.3 296.916 8.975 298.416 6.625C299.966 4.275 302.141 2.625 304.941 1.675C307.741 0.724997 311.066 0.249996 314.916 0.249996C316.716 0.249996 318.741 0.349996 320.991 0.549996C323.291 0.749997 325.516 0.974997 327.666 1.225C329.866 1.475 331.766 1.75 333.366 2.05L332.841 12.55C331.341 12.4 329.566 12.25 327.516 12.1C325.516 11.9 323.491 11.725 321.441 11.575C319.391 11.425 317.591 11.35 316.041 11.35C314.591 11.35 313.366 11.5 312.366 11.8C311.416 12.05 310.716 12.45 310.266 13C309.866 13.55 309.666 14.275 309.666 15.175C309.666 16.175 309.891 16.975 310.341 17.575C310.791 18.125 311.566 18.6 312.666 19C313.816 19.35 315.441 19.775 317.541 20.275C320.791 20.975 323.516 21.7 325.716 22.45C327.916 23.2 329.666 24.125 330.966 25.225C332.316 26.325 333.291 27.75 333.891 29.5C334.491 31.2 334.791 33.4 334.791 36.1C334.791 40.2 334.066 43.5 332.616 46C331.166 48.45 329.041 50.225 326.241 51.325C323.441 52.375 320.041 52.9 316.041 52.9Z" fill="white"/>
</svg>
