<svg width="160" height="60" viewBox="0 0 160 60" fill="none" xmlns="http://www.w3.org/2000/svg">
<path d="M0.283484 13V0.561999H7.89748V1.84H1.72348V6.052H6.81748V7.312H1.72348V11.722H7.89748V13H0.283484ZM9.1167 13L11.9067 8.5L9.1167 4H10.6467L12.7887 7.492L14.9487 4H16.4787L13.6527 8.464L16.4787 13H14.9487L12.7887 9.526L10.6467 13H9.1167ZM18.173 16.978V4H19.559V4.648C19.751 4.528 19.991 4.408 20.279 4.288C20.579 4.156 20.897 4.048 21.233 3.964C21.569 3.868 21.893 3.82 22.205 3.82C22.973 3.82 23.597 3.982 24.077 4.306C24.557 4.618 24.911 5.11 25.139 5.782C25.379 6.454 25.499 7.324 25.499 8.392C25.499 9.568 25.361 10.51 25.085 11.218C24.821 11.914 24.395 12.418 23.807 12.73C23.231 13.03 22.481 13.18 21.557 13.18C21.185 13.18 20.807 13.156 20.423 13.108C20.051 13.06 19.763 13.018 19.559 12.982V16.978H18.173ZM21.485 11.956C22.133 11.956 22.643 11.836 23.015 11.596C23.399 11.356 23.669 10.978 23.825 10.462C23.981 9.934 24.059 9.244 24.059 8.392C24.059 7.18 23.879 6.328 23.519 5.836C23.159 5.332 22.655 5.08 22.007 5.08C21.719 5.08 21.419 5.116 21.107 5.188C20.807 5.26 20.519 5.35 20.243 5.458C19.967 5.554 19.739 5.656 19.559 5.764V11.776C19.751 11.8 20.033 11.836 20.405 11.884C20.777 11.932 21.137 11.956 21.485 11.956ZM29.6447 13.18C28.8167 13.18 28.1867 12.946 27.7547 12.478C27.3227 12.01 27.1067 11.326 27.1067 10.426C27.1067 9.838 27.2087 9.358 27.4127 8.986C27.6167 8.614 27.9227 8.332 28.3307 8.14C28.7507 7.936 29.2667 7.81 29.8787 7.762L32.6507 7.492V6.718C32.6507 6.106 32.5127 5.674 32.2367 5.422C31.9727 5.17 31.5767 5.044 31.0487 5.044C30.7487 5.044 30.3887 5.056 29.9687 5.08C29.5607 5.104 29.1527 5.134 28.7447 5.17C28.3367 5.206 27.9767 5.242 27.6647 5.278L27.5927 4.216C27.8807 4.156 28.2287 4.096 28.6367 4.036C29.0447 3.976 29.4707 3.928 29.9147 3.892C30.3587 3.844 30.7667 3.82 31.1387 3.82C31.8227 3.82 32.3807 3.928 32.8127 4.144C33.2447 4.348 33.5567 4.666 33.7487 5.098C33.9527 5.518 34.0547 6.058 34.0547 6.718V11.272C34.0787 11.536 34.1807 11.728 34.3607 11.848C34.5527 11.968 34.7927 12.046 35.0807 12.082L35.0267 13.18C34.8587 13.18 34.6967 13.174 34.5407 13.162C34.3847 13.15 34.2347 13.126 34.0907 13.09C33.9587 13.066 33.8267 13.036 33.6947 13C33.5387 12.94 33.3887 12.868 33.2447 12.784C33.1127 12.7 32.9807 12.598 32.8487 12.478C32.6207 12.574 32.3267 12.676 31.9667 12.784C31.6187 12.892 31.2407 12.982 30.8327 13.054C30.4367 13.138 30.0407 13.18 29.6447 13.18ZM29.8787 12.01C30.2027 12.01 30.5387 11.98 30.8867 11.92C31.2347 11.86 31.5647 11.788 31.8767 11.704C32.1887 11.62 32.4467 11.542 32.6507 11.47V8.536L30.0407 8.788C29.5007 8.836 29.1107 8.992 28.8707 9.256C28.6427 9.52 28.5287 9.898 28.5287 10.39C28.5287 10.894 28.6427 11.29 28.8707 11.578C29.0987 11.866 29.4347 12.01 29.8787 12.01ZM36.7179 13V4H38.1039V4.63C38.3079 4.51 38.5599 4.39 38.8599 4.27C39.1719 4.15 39.5019 4.048 39.8499 3.964C40.1979 3.868 40.5339 3.82 40.8579 3.82C41.4819 3.82 41.9919 3.904 42.3879 4.072C42.7839 4.228 43.0899 4.486 43.3059 4.846C43.5339 5.194 43.6899 5.65 43.7739 6.214C43.8699 6.766 43.9179 7.438 43.9179 8.23V13H42.5139V8.284C42.5139 7.504 42.4659 6.88 42.3699 6.412C42.2859 5.944 42.1059 5.608 41.8299 5.404C41.5659 5.188 41.1579 5.08 40.6059 5.08C40.3059 5.08 39.9939 5.116 39.6699 5.188C39.3579 5.248 39.0639 5.332 38.7879 5.44C38.5119 5.536 38.2839 5.632 38.1039 5.728V13H36.7179ZM49.2474 13.18C48.8874 13.18 48.5454 13.138 48.2214 13.054C47.8974 12.982 47.5974 12.85 47.3214 12.658C47.0574 12.466 46.8234 12.202 46.6194 11.866C46.4154 11.518 46.2594 11.074 46.1514 10.534C46.0434 9.994 45.9894 9.34 45.9894 8.572C45.9894 7.504 46.1154 6.622 46.3674 5.926C46.6194 5.218 47.0214 4.69 47.5734 4.342C48.1254 3.994 48.8574 3.82 49.7694 3.82C49.9974 3.82 50.2494 3.832 50.5254 3.856C50.8014 3.88 51.0654 3.91 51.3174 3.946C51.5814 3.982 51.7914 4.018 51.9474 4.054V0.0939999H53.3514V13H51.9654V12.406C51.7734 12.514 51.5214 12.628 51.2094 12.748C50.9094 12.868 50.5854 12.97 50.2374 13.054C49.9014 13.138 49.5714 13.18 49.2474 13.18ZM49.4274 11.92C49.7394 11.92 50.0514 11.884 50.3634 11.812C50.6874 11.74 50.9874 11.656 51.2634 11.56C51.5394 11.452 51.7674 11.356 51.9474 11.272V5.242C51.8034 5.218 51.6054 5.194 51.3534 5.17C51.1014 5.134 50.8374 5.104 50.5614 5.08C50.2974 5.056 50.0574 5.044 49.8414 5.044C49.2294 5.044 48.7494 5.176 48.4014 5.44C48.0534 5.704 47.8014 6.1 47.6454 6.628C47.5014 7.144 47.4294 7.792 47.4294 8.572C47.4294 9.292 47.4834 9.874 47.5914 10.318C47.6994 10.75 47.8434 11.086 48.0234 11.326C48.2154 11.554 48.4314 11.71 48.6714 11.794C48.9114 11.878 49.1634 11.92 49.4274 11.92ZM55.9483 13V4H57.3343V13H55.9483ZM55.9483 2.02V0.399999H57.3343V2.02H55.9483ZM59.921 13V4H61.307V4.63C61.511 4.51 61.763 4.39 62.063 4.27C62.375 4.15 62.705 4.048 63.053 3.964C63.401 3.868 63.737 3.82 64.061 3.82C64.685 3.82 65.195 3.904 65.591 4.072C65.987 4.228 66.293 4.486 66.509 4.846C66.737 5.194 66.893 5.65 66.977 6.214C67.073 6.766 67.121 7.438 67.121 8.23V13H65.717V8.284C65.717 7.504 65.669 6.88 65.573 6.412C65.489 5.944 65.309 5.608 65.033 5.404C64.769 5.188 64.361 5.08 63.809 5.08C63.509 5.08 63.197 5.116 62.873 5.188C62.561 5.248 62.267 5.332 61.991 5.44C61.715 5.536 61.487 5.632 61.307 5.728V13H59.921ZM73.0805 17.23C72.1445 17.23 71.3885 17.146 70.8125 16.978C70.2485 16.822 69.8345 16.546 69.5705 16.15C69.3185 15.754 69.1925 15.214 69.1925 14.53C69.1925 14.182 69.2465 13.882 69.3545 13.63C69.4625 13.39 69.6185 13.168 69.8225 12.964C70.0385 12.748 70.3025 12.526 70.6145 12.298C70.4585 12.178 70.3325 12.01 70.2365 11.794C70.1525 11.566 70.1105 11.314 70.1105 11.038C70.1105 10.954 70.1405 10.828 70.2005 10.66C70.2725 10.492 70.3565 10.318 70.4525 10.138C70.5485 9.946 70.6385 9.772 70.7225 9.616C70.4705 9.496 70.2365 9.334 70.0205 9.13C69.8165 8.914 69.6485 8.626 69.5165 8.266C69.3845 7.906 69.3185 7.45 69.3185 6.898C69.3185 6.154 69.4565 5.56 69.7325 5.116C70.0205 4.66 70.4165 4.33 70.9205 4.126C71.4365 3.922 72.0245 3.82 72.6845 3.82C73.0085 3.82 73.3505 3.844 73.7105 3.892C74.0705 3.94 74.3525 3.994 74.5565 4.054L77.2385 3.982V5.17L75.5465 5.134C75.7145 5.302 75.8525 5.524 75.9605 5.8C76.0805 6.076 76.1405 6.442 76.1405 6.898C76.1405 7.678 76.0085 8.29 75.7445 8.734C75.4805 9.178 75.0905 9.49 74.5745 9.67C74.0585 9.85 73.4105 9.94 72.6305 9.94C72.5465 9.94 72.4025 9.934 72.1985 9.922C72.0065 9.898 71.8625 9.88 71.7665 9.868C71.6945 10.036 71.6225 10.228 71.5505 10.444C71.4785 10.66 71.4425 10.81 71.4425 10.894C71.4425 11.074 71.4605 11.218 71.4965 11.326C71.5445 11.422 71.6345 11.5 71.7665 11.56C71.9105 11.62 72.1265 11.662 72.4145 11.686C72.7025 11.698 73.0985 11.704 73.6025 11.704C74.4665 11.704 75.1565 11.776 75.6725 11.92C76.1885 12.064 76.5545 12.328 76.7705 12.712C76.9985 13.084 77.1125 13.63 77.1125 14.35C77.1125 15.37 76.7585 16.102 76.0505 16.546C75.3425 17.002 74.3525 17.23 73.0805 17.23ZM73.0985 16.042C73.9865 16.042 74.6405 15.916 75.0605 15.664C75.4805 15.412 75.6905 14.998 75.6905 14.422C75.6905 13.978 75.6185 13.648 75.4745 13.432C75.3425 13.228 75.1145 13.09 74.7905 13.018C74.4665 12.958 74.0345 12.928 73.4945 12.928C73.3865 12.928 73.2365 12.928 73.0445 12.928C72.8525 12.916 72.6545 12.91 72.4505 12.91C72.2465 12.898 72.0605 12.886 71.8925 12.874C71.7365 12.862 71.6285 12.856 71.5685 12.856C71.3285 13.036 71.1305 13.198 70.9745 13.342C70.8305 13.498 70.7285 13.654 70.6685 13.81C70.6085 13.978 70.5785 14.176 70.5785 14.404C70.5785 14.8 70.6505 15.118 70.7945 15.358C70.9385 15.598 71.1905 15.772 71.5505 15.88C71.9225 15.988 72.4385 16.042 73.0985 16.042ZM72.6845 8.824C73.4285 8.824 73.9565 8.68 74.2685 8.392C74.5805 8.092 74.7365 7.594 74.7365 6.898C74.7365 6.202 74.5805 5.704 74.2685 5.404C73.9565 5.104 73.4285 4.954 72.6845 4.954C71.9885 4.954 71.4845 5.104 71.1725 5.404C70.8725 5.704 70.7225 6.202 70.7225 6.898C70.7225 7.594 70.8725 8.092 71.1725 8.392C71.4845 8.68 71.9885 8.824 72.6845 8.824ZM82.8253 13V4H84.2113V13H82.8253ZM82.8253 2.02V0.399999H84.2113V2.02H82.8253ZM86.798 13V4H88.184V4.63C88.388 4.51 88.64 4.39 88.94 4.27C89.252 4.15 89.582 4.048 89.93 3.964C90.278 3.868 90.614 3.82 90.938 3.82C91.562 3.82 92.072 3.904 92.468 4.072C92.864 4.228 93.17 4.486 93.386 4.846C93.614 5.194 93.77 5.65 93.854 6.214C93.95 6.766 93.998 7.438 93.998 8.23V13H92.594V8.284C92.594 7.504 92.546 6.88 92.45 6.412C92.366 5.944 92.186 5.608 91.91 5.404C91.646 5.188 91.238 5.08 90.686 5.08C90.386 5.08 90.074 5.116 89.75 5.188C89.438 5.248 89.144 5.332 88.868 5.44C88.592 5.536 88.364 5.632 88.184 5.728V13H86.798ZM99.3828 13.198C98.7588 13.198 98.2608 13.102 97.8888 12.91C97.5288 12.718 97.2708 12.388 97.1148 11.92C96.9588 11.44 96.8808 10.768 96.8808 9.904V5.206H95.6028V4H96.8808V1.246H98.2668V4H101.093V5.206H98.2668V9.49C98.2668 10.126 98.2908 10.624 98.3388 10.984C98.3988 11.332 98.5188 11.578 98.6988 11.722C98.8788 11.866 99.1608 11.938 99.5448 11.938C99.6648 11.938 99.8208 11.932 100.013 11.92C100.205 11.908 100.397 11.896 100.589 11.884C100.793 11.86 100.973 11.842 101.129 11.83L101.219 13C101.051 13.024 100.853 13.048 100.625 13.072C100.397 13.108 100.169 13.138 99.9408 13.162C99.7248 13.186 99.5388 13.198 99.3828 13.198ZM106.197 13.18C105.189 13.18 104.403 13.006 103.839 12.658C103.287 12.31 102.897 11.782 102.669 11.074C102.453 10.366 102.345 9.472 102.345 8.392C102.345 7.36 102.465 6.508 102.705 5.836C102.957 5.164 103.365 4.66 103.929 4.324C104.493 3.988 105.249 3.82 106.197 3.82C107.157 3.82 107.919 3.988 108.483 4.324C109.047 4.66 109.449 5.164 109.689 5.836C109.941 6.508 110.067 7.36 110.067 8.392C110.067 9.472 109.953 10.366 109.725 11.074C109.509 11.782 109.119 12.31 108.555 12.658C108.003 13.006 107.217 13.18 106.197 13.18ZM106.197 11.974C106.893 11.974 107.415 11.854 107.763 11.614C108.111 11.362 108.339 10.972 108.447 10.444C108.567 9.916 108.627 9.232 108.627 8.392C108.627 7.564 108.555 6.904 108.411 6.412C108.267 5.92 108.021 5.566 107.673 5.35C107.325 5.134 106.833 5.026 106.197 5.026C105.573 5.026 105.081 5.134 104.721 5.35C104.373 5.566 104.127 5.92 103.983 6.412C103.839 6.904 103.767 7.564 103.767 8.392C103.767 9.232 103.821 9.916 103.929 10.444C104.049 10.972 104.283 11.362 104.631 11.614C104.979 11.854 105.501 11.974 106.197 11.974ZM119.068 13.18C118.708 13.18 118.366 13.138 118.042 13.054C117.718 12.982 117.418 12.85 117.142 12.658C116.878 12.466 116.644 12.202 116.44 11.866C116.236 11.518 116.08 11.074 115.972 10.534C115.864 9.994 115.81 9.34 115.81 8.572C115.81 7.504 115.936 6.622 116.188 5.926C116.44 5.218 116.842 4.69 117.394 4.342C117.946 3.994 118.678 3.82 119.59 3.82C119.818 3.82 120.07 3.832 120.346 3.856C120.622 3.88 120.886 3.91 121.138 3.946C121.402 3.982 121.612 4.018 121.768 4.054V0.0939999H123.172V13H121.786V12.406C121.594 12.514 121.342 12.628 121.03 12.748C120.73 12.868 120.406 12.97 120.058 13.054C119.722 13.138 119.392 13.18 119.068 13.18ZM119.248 11.92C119.56 11.92 119.872 11.884 120.184 11.812C120.508 11.74 120.808 11.656 121.084 11.56C121.36 11.452 121.588 11.356 121.768 11.272V5.242C121.624 5.218 121.426 5.194 121.174 5.17C120.922 5.134 120.658 5.104 120.382 5.08C120.118 5.056 119.878 5.044 119.662 5.044C119.05 5.044 118.57 5.176 118.222 5.44C117.874 5.704 117.622 6.1 117.466 6.628C117.322 7.144 117.25 7.792 117.25 8.572C117.25 9.292 117.304 9.874 117.412 10.318C117.52 10.75 117.664 11.086 117.844 11.326C118.036 11.554 118.252 11.71 118.492 11.794C118.732 11.878 118.984 11.92 119.248 11.92ZM125.769 13V4H127.155V13H125.769ZM125.769 2.02V0.399999H127.155V2.02H125.769ZM133.215 17.23C132.279 17.23 131.523 17.146 130.947 16.978C130.383 16.822 129.969 16.546 129.705 16.15C129.453 15.754 129.327 15.214 129.327 14.53C129.327 14.182 129.381 13.882 129.489 13.63C129.597 13.39 129.753 13.168 129.957 12.964C130.173 12.748 130.437 12.526 130.749 12.298C130.593 12.178 130.467 12.01 130.371 11.794C130.287 11.566 130.245 11.314 130.245 11.038C130.245 10.954 130.275 10.828 130.335 10.66C130.407 10.492 130.491 10.318 130.587 10.138C130.683 9.946 130.773 9.772 130.857 9.616C130.605 9.496 130.371 9.334 130.155 9.13C129.951 8.914 129.783 8.626 129.651 8.266C129.519 7.906 129.453 7.45 129.453 6.898C129.453 6.154 129.591 5.56 129.867 5.116C130.155 4.66 130.551 4.33 131.055 4.126C131.571 3.922 132.159 3.82 132.819 3.82C133.143 3.82 133.485 3.844 133.845 3.892C134.205 3.94 134.487 3.994 134.691 4.054L137.373 3.982V5.17L135.681 5.134C135.849 5.302 135.987 5.524 136.095 5.8C136.215 6.076 136.275 6.442 136.275 6.898C136.275 7.678 136.143 8.29 135.879 8.734C135.615 9.178 135.225 9.49 134.709 9.67C134.193 9.85 133.545 9.94 132.765 9.94C132.681 9.94 132.537 9.934 132.333 9.922C132.141 9.898 131.997 9.88 131.901 9.868C131.829 10.036 131.757 10.228 131.685 10.444C131.613 10.66 131.577 10.81 131.577 10.894C131.577 11.074 131.595 11.218 131.631 11.326C131.679 11.422 131.769 11.5 131.901 11.56C132.045 11.62 132.261 11.662 132.549 11.686C132.837 11.698 133.233 11.704 133.737 11.704C134.601 11.704 135.291 11.776 135.807 11.92C136.323 12.064 136.689 12.328 136.905 12.712C137.133 13.084 137.247 13.63 137.247 14.35C137.247 15.37 136.893 16.102 136.185 16.546C135.477 17.002 134.487 17.23 133.215 17.23ZM133.233 16.042C134.121 16.042 134.775 15.916 135.195 15.664C135.615 15.412 135.825 14.998 135.825 14.422C135.825 13.978 135.753 13.648 135.609 13.432C135.477 13.228 135.249 13.09 134.925 13.018C134.601 12.958 134.169 12.928 133.629 12.928C133.521 12.928 133.371 12.928 133.179 12.928C132.987 12.916 132.789 12.91 132.585 12.91C132.381 12.898 132.195 12.886 132.027 12.874C131.871 12.862 131.763 12.856 131.703 12.856C131.463 13.036 131.265 13.198 131.109 13.342C130.965 13.498 130.863 13.654 130.803 13.81C130.743 13.978 130.713 14.176 130.713 14.404C130.713 14.8 130.785 15.118 130.929 15.358C131.073 15.598 131.325 15.772 131.685 15.88C132.057 15.988 132.573 16.042 133.233 16.042ZM132.819 8.824C133.563 8.824 134.091 8.68 134.403 8.392C134.715 8.092 134.871 7.594 134.871 6.898C134.871 6.202 134.715 5.704 134.403 5.404C134.091 5.104 133.563 4.954 132.819 4.954C132.123 4.954 131.619 5.104 131.307 5.404C131.007 5.704 130.857 6.202 130.857 6.898C130.857 7.594 131.007 8.092 131.307 8.392C131.619 8.68 132.123 8.824 132.819 8.824ZM139.005 13V4H140.391V13H139.005ZM139.005 2.02V0.399999H140.391V2.02H139.005ZM145.93 13.198C145.306 13.198 144.808 13.102 144.436 12.91C144.076 12.718 143.818 12.388 143.662 11.92C143.506 11.44 143.428 10.768 143.428 9.904V5.206H142.15V4H143.428V1.246H144.814V4H147.64V5.206H144.814V9.49C144.814 10.126 144.838 10.624 144.886 10.984C144.946 11.332 145.066 11.578 145.246 11.722C145.426 11.866 145.708 11.938 146.092 11.938C146.212 11.938 146.368 11.932 146.56 11.92C146.752 11.908 146.944 11.896 147.136 11.884C147.34 11.86 147.52 11.842 147.676 11.83L147.766 13C147.598 13.024 147.4 13.048 147.172 13.072C146.944 13.108 146.716 13.138 146.488 13.162C146.272 13.186 146.086 13.198 145.93 13.198ZM151.25 13.18C150.422 13.18 149.792 12.946 149.36 12.478C148.928 12.01 148.712 11.326 148.712 10.426C148.712 9.838 148.814 9.358 149.018 8.986C149.222 8.614 149.528 8.332 149.936 8.14C150.356 7.936 150.872 7.81 151.484 7.762L154.256 7.492V6.718C154.256 6.106 154.118 5.674 153.842 5.422C153.578 5.17 153.182 5.044 152.654 5.044C152.354 5.044 151.994 5.056 151.574 5.08C151.166 5.104 150.758 5.134 150.35 5.17C149.942 5.206 149.582 5.242 149.27 5.278L149.198 4.216C149.486 4.156 149.834 4.096 150.242 4.036C150.65 3.976 151.076 3.928 151.52 3.892C151.964 3.844 152.372 3.82 152.744 3.82C153.428 3.82 153.986 3.928 154.418 4.144C154.85 4.348 155.162 4.666 155.354 5.098C155.558 5.518 155.66 6.058 155.66 6.718V11.272C155.684 11.536 155.786 11.728 155.966 11.848C156.158 11.968 156.398 12.046 156.686 12.082L156.632 13.18C156.464 13.18 156.302 13.174 156.146 13.162C155.99 13.15 155.84 13.126 155.696 13.09C155.564 13.066 155.432 13.036 155.3 13C155.144 12.94 154.994 12.868 154.85 12.784C154.718 12.7 154.586 12.598 154.454 12.478C154.226 12.574 153.932 12.676 153.572 12.784C153.224 12.892 152.846 12.982 152.438 13.054C152.042 13.138 151.646 13.18 151.25 13.18ZM151.484 12.01C151.808 12.01 152.144 11.98 152.492 11.92C152.84 11.86 153.17 11.788 153.482 11.704C153.794 11.62 154.052 11.542 154.256 11.47V8.536L151.646 8.788C151.106 8.836 150.716 8.992 150.476 9.256C150.248 9.52 150.134 9.898 150.134 10.39C150.134 10.894 150.248 11.29 150.476 11.578C150.704 11.866 151.04 12.01 151.484 12.01ZM158.431 13V0.0939999H159.817V13H158.431ZM6.08349 35.18C5.80749 35.18 5.47149 35.162 5.07549 35.126C4.69149 35.09 4.30749 35.048 3.92349 35C3.53949 34.94 3.19749 34.886 2.89749 34.838L2.96949 33.632C3.26949 33.668 3.60549 33.71 3.97749 33.758C4.36149 33.806 4.73349 33.848 5.09349 33.884C5.45349 33.908 5.74149 33.92 5.95749 33.92C6.44949 33.92 6.85749 33.878 7.18149 33.794C7.50549 33.698 7.75149 33.542 7.91949 33.326C8.08749 33.11 8.17149 32.804 8.17149 32.408C8.17149 32.108 8.10549 31.874 7.97349 31.706C7.85349 31.538 7.61949 31.4 7.27149 31.292C6.93549 31.184 6.44349 31.082 5.79549 30.986C5.12349 30.878 4.55949 30.746 4.10349 30.59C3.65949 30.422 3.32949 30.176 3.11349 29.852C2.89749 29.528 2.78949 29.066 2.78949 28.466C2.78949 27.794 2.94549 27.266 3.25749 26.882C3.56949 26.498 3.97149 26.228 4.46349 26.072C4.96749 25.904 5.48949 25.82 6.02949 25.82C6.36549 25.82 6.73149 25.838 7.12749 25.874C7.53549 25.91 7.93149 25.958 8.31549 26.018C8.69949 26.066 9.02949 26.114 9.30549 26.162L9.26949 27.368C8.98149 27.32 8.64549 27.278 8.26149 27.242C7.87749 27.194 7.49349 27.158 7.10949 27.134C6.72549 27.098 6.38949 27.08 6.10149 27.08C5.74149 27.08 5.41749 27.122 5.12949 27.206C4.84149 27.278 4.61349 27.41 4.44549 27.602C4.27749 27.794 4.19349 28.064 4.19349 28.412C4.19349 28.676 4.25349 28.892 4.37349 29.06C4.49349 29.216 4.72149 29.348 5.05749 29.456C5.39349 29.564 5.87949 29.672 6.51549 29.78C7.25949 29.9 7.85349 30.05 8.29749 30.23C8.75349 30.41 9.08349 30.662 9.28749 30.986C9.49149 31.31 9.59349 31.766 9.59349 32.354C9.59349 33.05 9.44949 33.608 9.16149 34.028C8.88549 34.436 8.48349 34.73 7.95549 34.91C7.43949 35.09 6.81549 35.18 6.08349 35.18ZM14.8463 35.18C13.9463 35.18 13.2323 35.006 12.7043 34.658C12.1883 34.31 11.8163 33.794 11.5883 33.11C11.3603 32.426 11.2463 31.574 11.2463 30.554C11.2463 29.414 11.4023 28.502 11.7143 27.818C12.0263 27.122 12.4643 26.618 13.0283 26.306C13.5923 25.982 14.2583 25.82 15.0263 25.82C16.2263 25.82 17.1323 26.156 17.7443 26.828C18.3563 27.488 18.6623 28.556 18.6623 30.032L18.5903 31.094H12.6683C12.6803 32.03 12.8543 32.738 13.1903 33.218C13.5263 33.698 14.1323 33.938 15.0083 33.938C15.3443 33.938 15.7103 33.932 16.1063 33.92C16.5143 33.896 16.9163 33.872 17.3123 33.848C17.7083 33.824 18.0443 33.8 18.3203 33.776L18.3563 34.874C18.0683 34.922 17.7143 34.97 17.2943 35.018C16.8863 35.066 16.4663 35.102 16.0343 35.126C15.6023 35.162 15.2063 35.18 14.8463 35.18ZM12.6683 29.96H17.2583C17.2583 28.856 17.0783 28.088 16.7183 27.656C16.3703 27.212 15.8063 26.99 15.0263 26.99C14.5223 26.99 14.0963 27.092 13.7483 27.296C13.4003 27.488 13.1303 27.8 12.9383 28.232C12.7583 28.664 12.6683 29.24 12.6683 29.96ZM20.7481 35V26H22.1341V27.206C22.3621 27.05 22.6501 26.882 22.9981 26.702C23.3461 26.51 23.7301 26.33 24.1501 26.162C24.5701 25.994 24.9901 25.874 25.4101 25.802V27.224C25.0021 27.308 24.5881 27.422 24.1681 27.566C23.7481 27.698 23.3581 27.842 22.9981 27.998C22.6501 28.154 22.3621 28.292 22.1341 28.412V35H20.7481ZM28.6444 35L26.1244 26H27.6364L29.6884 33.794H30.3724L32.4964 26H33.9364L31.4164 35H28.6444ZM35.672 35V26H37.058V35H35.672ZM35.672 24.02V22.4H37.058V24.02H35.672ZM42.9746 35.18C42.0266 35.18 41.2826 35.024 40.7426 34.712C40.2026 34.388 39.8186 33.872 39.5906 33.164C39.3746 32.456 39.2666 31.52 39.2666 30.356C39.2666 29.264 39.3866 28.388 39.6266 27.728C39.8786 27.056 40.2806 26.57 40.8326 26.27C41.3846 25.97 42.1046 25.82 42.9926 25.82C43.1966 25.82 43.4426 25.838 43.7306 25.874C44.0306 25.898 44.3366 25.934 44.6486 25.982C44.9606 26.018 45.2306 26.054 45.4586 26.09L45.4046 27.242C45.2006 27.218 44.9666 27.194 44.7026 27.17C44.4386 27.146 44.1806 27.128 43.9286 27.116C43.6766 27.092 43.4666 27.08 43.2986 27.08C42.6146 27.08 42.0806 27.188 41.6966 27.404C41.3246 27.62 41.0606 27.968 40.9046 28.448C40.7606 28.916 40.6886 29.552 40.6886 30.356C40.6886 31.232 40.7546 31.934 40.8866 32.462C41.0186 32.978 41.2706 33.35 41.6426 33.578C42.0146 33.806 42.5666 33.92 43.2986 33.92C43.4666 33.92 43.6766 33.914 43.9286 33.902C44.1926 33.878 44.4566 33.854 44.7206 33.83C44.9966 33.806 45.2366 33.788 45.4406 33.776L45.4766 34.928C45.2366 34.964 44.9606 35 44.6486 35.036C44.3366 35.072 44.0306 35.102 43.7306 35.126C43.4306 35.162 43.1786 35.18 42.9746 35.18ZM50.565 35.18C49.665 35.18 48.951 35.006 48.423 34.658C47.907 34.31 47.535 33.794 47.307 33.11C47.079 32.426 46.965 31.574 46.965 30.554C46.965 29.414 47.121 28.502 47.433 27.818C47.745 27.122 48.183 26.618 48.747 26.306C49.311 25.982 49.977 25.82 50.745 25.82C51.945 25.82 52.851 26.156 53.463 26.828C54.075 27.488 54.381 28.556 54.381 30.032L54.309 31.094H48.387C48.399 32.03 48.573 32.738 48.909 33.218C49.245 33.698 49.851 33.938 50.727 33.938C51.063 33.938 51.429 33.932 51.825 33.92C52.233 33.896 52.635 33.872 53.031 33.848C53.427 33.824 53.763 33.8 54.039 33.776L54.075 34.874C53.787 34.922 53.433 34.97 53.013 35.018C52.605 35.066 52.185 35.102 51.753 35.126C51.321 35.162 50.925 35.18 50.565 35.18ZM48.387 29.96H52.977C52.977 28.856 52.797 28.088 52.437 27.656C52.089 27.212 51.525 26.99 50.745 26.99C50.241 26.99 49.815 27.092 49.467 27.296C49.119 27.488 48.849 27.8 48.657 28.232C48.477 28.664 48.387 29.24 48.387 29.96ZM59.2749 35.18C58.9989 35.18 58.6629 35.162 58.2669 35.126C57.8829 35.09 57.4989 35.048 57.1149 35C56.7309 34.94 56.3889 34.886 56.0889 34.838L56.1609 33.632C56.4609 33.668 56.7969 33.71 57.1689 33.758C57.5529 33.806 57.9249 33.848 58.2849 33.884C58.6449 33.908 58.9329 33.92 59.1489 33.92C59.6409 33.92 60.0489 33.878 60.3729 33.794C60.6969 33.698 60.9429 33.542 61.1109 33.326C61.2789 33.11 61.3629 32.804 61.3629 32.408C61.3629 32.108 61.2969 31.874 61.1649 31.706C61.0449 31.538 60.8109 31.4 60.4629 31.292C60.1269 31.184 59.6349 31.082 58.9869 30.986C58.3149 30.878 57.7509 30.746 57.2949 30.59C56.8509 30.422 56.5209 30.176 56.3049 29.852C56.0889 29.528 55.9809 29.066 55.9809 28.466C55.9809 27.794 56.1369 27.266 56.4489 26.882C56.7609 26.498 57.1629 26.228 57.6549 26.072C58.1589 25.904 58.6809 25.82 59.2209 25.82C59.5569 25.82 59.9229 25.838 60.3189 25.874C60.7269 25.91 61.1229 25.958 61.5069 26.018C61.8909 26.066 62.2209 26.114 62.4969 26.162L62.4609 27.368C62.1729 27.32 61.8369 27.278 61.4529 27.242C61.0689 27.194 60.6849 27.158 60.3009 27.134C59.9169 27.098 59.5809 27.08 59.2929 27.08C58.9329 27.08 58.6089 27.122 58.3209 27.206C58.0329 27.278 57.8049 27.41 57.6369 27.602C57.4689 27.794 57.3849 28.064 57.3849 28.412C57.3849 28.676 57.4449 28.892 57.5649 29.06C57.6849 29.216 57.9129 29.348 58.2489 29.456C58.5849 29.564 59.0709 29.672 59.7069 29.78C60.4509 29.9 61.0449 30.05 61.4889 30.23C61.9449 30.41 62.2749 30.662 62.4789 30.986C62.6829 31.31 62.7849 31.766 62.7849 32.354C62.7849 33.05 62.6409 33.608 62.3529 34.028C62.0769 34.436 61.6749 34.73 61.1469 34.91C60.6309 35.09 60.0069 35.18 59.2749 35.18ZM64.1677 37.214L64.9777 33.038H66.5437L65.3197 37.214H64.1677ZM75.2257 35L71.9857 22.562H73.4797L76.3057 33.722H77.2957L80.1217 22.562H81.6157L78.3937 35H75.2257ZM87.7242 35.18C86.4282 35.18 85.4202 34.94 84.7002 34.46C83.9922 33.98 83.4942 33.272 83.2062 32.336C82.9302 31.388 82.7922 30.224 82.7922 28.844C82.7922 27.464 82.9362 26.294 83.2242 25.334C83.5122 24.374 84.0102 23.642 84.7182 23.138C85.4382 22.622 86.4402 22.364 87.7242 22.364C89.0082 22.364 90.0042 22.616 90.7122 23.12C91.4322 23.624 91.9362 24.362 92.2242 25.334C92.5122 26.294 92.6562 27.464 92.6562 28.844C92.6562 30.26 92.5122 31.442 92.2242 32.39C91.9482 33.326 91.4502 34.028 90.7302 34.496C90.0222 34.952 89.0202 35.18 87.7242 35.18ZM87.7242 33.902C88.6722 33.902 89.3922 33.722 89.8842 33.362C90.3762 33.002 90.7122 32.45 90.8922 31.706C91.0722 30.95 91.1622 29.996 91.1622 28.844C91.1622 27.728 91.0662 26.786 90.8742 26.018C90.6942 25.238 90.3582 24.65 89.8662 24.254C89.3742 23.846 88.6602 23.642 87.7242 23.642C86.7882 23.642 86.0742 23.846 85.5822 24.254C85.0902 24.65 84.7482 25.232 84.5562 26C84.3762 26.768 84.2862 27.716 84.2862 28.844C84.2862 29.96 84.3762 30.896 84.5562 31.652C84.7362 32.396 85.0722 32.96 85.5642 33.344C86.0562 33.716 86.7762 33.902 87.7242 33.902ZM95.179 35V22.562H99.625C100.537 22.562 101.293 22.712 101.893 23.012C102.493 23.3 102.967 23.714 103.315 24.254C103.663 24.782 103.909 25.418 104.053 26.162C104.197 26.894 104.269 27.704 104.269 28.592C104.269 29.492 104.197 30.332 104.053 31.112C103.921 31.88 103.681 32.558 103.333 33.146C102.985 33.734 102.511 34.19 101.911 34.514C101.311 34.838 100.549 35 99.625 35H95.179ZM96.619 33.722H99.625C100.273 33.722 100.801 33.584 101.209 33.308C101.617 33.032 101.935 32.654 102.163 32.174C102.391 31.694 102.547 31.148 102.631 30.536C102.727 29.924 102.775 29.276 102.775 28.592C102.775 27.92 102.727 27.296 102.631 26.72C102.547 26.144 102.391 25.64 102.163 25.208C101.935 24.776 101.617 24.44 101.209 24.2C100.801 23.96 100.273 23.84 99.625 23.84H96.619V33.722ZM105.617 37.214L106.427 33.038H107.993L106.769 37.214H105.617ZM117.107 35.18C116.831 35.18 116.495 35.162 116.099 35.126C115.715 35.09 115.331 35.048 114.947 35C114.563 34.94 114.221 34.886 113.921 34.838L113.993 33.632C114.293 33.668 114.629 33.71 115.001 33.758C115.385 33.806 115.757 33.848 116.117 33.884C116.477 33.908 116.765 33.92 116.981 33.92C117.473 33.92 117.881 33.878 118.205 33.794C118.529 33.698 118.775 33.542 118.943 33.326C119.111 33.11 119.195 32.804 119.195 32.408C119.195 32.108 119.129 31.874 118.997 31.706C118.877 31.538 118.643 31.4 118.295 31.292C117.959 31.184 117.467 31.082 116.819 30.986C116.147 30.878 115.583 30.746 115.127 30.59C114.683 30.422 114.353 30.176 114.137 29.852C113.921 29.528 113.813 29.066 113.813 28.466C113.813 27.794 113.969 27.266 114.281 26.882C114.593 26.498 114.995 26.228 115.487 26.072C115.991 25.904 116.513 25.82 117.053 25.82C117.389 25.82 117.755 25.838 118.151 25.874C118.559 25.91 118.955 25.958 119.339 26.018C119.723 26.066 120.053 26.114 120.329 26.162L120.293 27.368C120.005 27.32 119.669 27.278 119.285 27.242C118.901 27.194 118.517 27.158 118.133 27.134C117.749 27.098 117.413 27.08 117.125 27.08C116.765 27.08 116.441 27.122 116.153 27.206C115.865 27.278 115.637 27.41 115.469 27.602C115.301 27.794 115.217 28.064 115.217 28.412C115.217 28.676 115.277 28.892 115.397 29.06C115.517 29.216 115.745 29.348 116.081 29.456C116.417 29.564 116.903 29.672 117.539 29.78C118.283 29.9 118.877 30.05 119.321 30.23C119.777 30.41 120.107 30.662 120.311 30.986C120.515 31.31 120.617 31.766 120.617 32.354C120.617 33.05 120.473 33.608 120.185 34.028C119.909 34.436 119.507 34.73 118.979 34.91C118.463 35.09 117.839 35.18 117.107 35.18ZM122.684 35V26H124.07V26.63C124.262 26.51 124.502 26.39 124.79 26.27C125.078 26.15 125.384 26.048 125.708 25.964C126.044 25.868 126.362 25.82 126.662 25.82C127.262 25.82 127.742 25.892 128.102 26.036C128.474 26.18 128.774 26.414 129.002 26.738C129.242 26.606 129.536 26.468 129.884 26.324C130.232 26.18 130.604 26.06 131 25.964C131.408 25.868 131.804 25.82 132.188 25.82C132.8 25.82 133.304 25.898 133.7 26.054C134.096 26.21 134.402 26.462 134.618 26.81C134.846 27.158 135.002 27.614 135.086 28.178C135.182 28.73 135.23 29.414 135.23 30.23V35H133.844V30.284C133.844 29.504 133.796 28.88 133.7 28.412C133.616 27.944 133.442 27.608 133.178 27.404C132.914 27.188 132.512 27.08 131.972 27.08C131.66 27.08 131.342 27.116 131.018 27.188C130.706 27.248 130.412 27.332 130.136 27.44C129.872 27.536 129.656 27.632 129.488 27.728C129.572 28.04 129.626 28.43 129.65 28.898C129.686 29.354 129.704 29.828 129.704 30.32V35H128.318V30.356C128.318 29.54 128.276 28.898 128.192 28.43C128.108 27.95 127.928 27.608 127.652 27.404C127.388 27.188 126.986 27.08 126.446 27.08C126.146 27.08 125.84 27.116 125.528 27.188C125.228 27.248 124.952 27.332 124.7 27.44C124.448 27.536 124.238 27.632 124.07 27.728V35H122.684ZM139.693 35.18C138.865 35.18 138.235 34.946 137.803 34.478C137.371 34.01 137.155 33.326 137.155 32.426C137.155 31.838 137.257 31.358 137.461 30.986C137.665 30.614 137.971 30.332 138.379 30.14C138.799 29.936 139.315 29.81 139.927 29.762L142.699 29.492V28.718C142.699 28.106 142.561 27.674 142.285 27.422C142.021 27.17 141.625 27.044 141.097 27.044C140.797 27.044 140.437 27.056 140.017 27.08C139.609 27.104 139.201 27.134 138.793 27.17C138.385 27.206 138.025 27.242 137.713 27.278L137.641 26.216C137.929 26.156 138.277 26.096 138.685 26.036C139.093 25.976 139.519 25.928 139.963 25.892C140.407 25.844 140.815 25.82 141.187 25.82C141.871 25.82 142.429 25.928 142.861 26.144C143.293 26.348 143.605 26.666 143.797 27.098C144.001 27.518 144.103 28.058 144.103 28.718V33.272C144.127 33.536 144.229 33.728 144.409 33.848C144.601 33.968 144.841 34.046 145.129 34.082L145.075 35.18C144.907 35.18 144.745 35.174 144.589 35.162C144.433 35.15 144.283 35.126 144.139 35.09C144.007 35.066 143.875 35.036 143.743 35C143.587 34.94 143.437 34.868 143.293 34.784C143.161 34.7 143.029 34.598 142.897 34.478C142.669 34.574 142.375 34.676 142.015 34.784C141.667 34.892 141.289 34.982 140.881 35.054C140.485 35.138 140.089 35.18 139.693 35.18ZM139.927 34.01C140.251 34.01 140.587 33.98 140.935 33.92C141.283 33.86 141.613 33.788 141.925 33.704C142.237 33.62 142.495 33.542 142.699 33.47V30.536L140.089 30.788C139.549 30.836 139.159 30.992 138.919 31.256C138.691 31.52 138.577 31.898 138.577 32.39C138.577 32.894 138.691 33.29 138.919 33.578C139.147 33.866 139.483 34.01 139.927 34.01ZM146.766 35V26H148.152V27.206C148.38 27.05 148.668 26.882 149.016 26.702C149.364 26.51 149.748 26.33 150.168 26.162C150.588 25.994 151.008 25.874 151.428 25.802V27.224C151.02 27.308 150.606 27.422 150.186 27.566C149.766 27.698 149.376 27.842 149.016 27.998C148.668 28.154 148.38 28.292 148.152 28.412V35H146.766ZM155.958 35.198C155.334 35.198 154.836 35.102 154.464 34.91C154.104 34.718 153.846 34.388 153.69 33.92C153.534 33.44 153.456 32.768 153.456 31.904V27.206H152.178V26H153.456V23.246H154.842V26H157.668V27.206H154.842V31.49C154.842 32.126 154.866 32.624 154.914 32.984C154.974 33.332 155.094 33.578 155.274 33.722C155.454 33.866 155.736 33.938 156.12 33.938C156.24 33.938 156.396 33.932 156.588 33.92C156.78 33.908 156.972 33.896 157.164 33.884C157.368 33.86 157.548 33.842 157.704 33.83L157.794 35C157.626 35.024 157.428 35.048 157.2 35.072C156.972 35.108 156.744 35.138 156.516 35.162C156.3 35.186 156.114 35.198 155.958 35.198ZM31.9795 57.18C31.0315 57.18 30.2875 57.024 29.7475 56.712C29.2075 56.388 28.8235 55.872 28.5955 55.164C28.3795 54.456 28.2715 53.52 28.2715 52.356C28.2715 51.264 28.3915 50.388 28.6315 49.728C28.8835 49.056 29.2855 48.57 29.8375 48.27C30.3895 47.97 31.1095 47.82 31.9975 47.82C32.2015 47.82 32.4475 47.838 32.7355 47.874C33.0355 47.898 33.3415 47.934 33.6535 47.982C33.9655 48.018 34.2355 48.054 34.4635 48.09L34.4095 49.242C34.2055 49.218 33.9715 49.194 33.7075 49.17C33.4435 49.146 33.1855 49.128 32.9335 49.116C32.6815 49.092 32.4715 49.08 32.3035 49.08C31.6195 49.08 31.0855 49.188 30.7015 49.404C30.3295 49.62 30.0655 49.968 29.9095 50.448C29.7655 50.916 29.6935 51.552 29.6935 52.356C29.6935 53.232 29.7595 53.934 29.8915 54.462C30.0235 54.978 30.2755 55.35 30.6475 55.578C31.0195 55.806 31.5715 55.92 32.3035 55.92C32.4715 55.92 32.6815 55.914 32.9335 55.902C33.1975 55.878 33.4615 55.854 33.7255 55.83C34.0015 55.806 34.2415 55.788 34.4455 55.776L34.4815 56.928C34.2415 56.964 33.9655 57 33.6535 57.036C33.3415 57.072 33.0355 57.102 32.7355 57.126C32.4355 57.162 32.1835 57.18 31.9795 57.18ZM36.4894 57V48H37.8754V57H36.4894ZM36.4894 46.02V44.4H37.8754V46.02H36.4894ZM43.414 57.198C42.79 57.198 42.292 57.102 41.92 56.91C41.56 56.718 41.302 56.388 41.146 55.92C40.99 55.44 40.912 54.768 40.912 53.904V49.206H39.634V48H40.912V45.246H42.298V48H45.124V49.206H42.298V53.49C42.298 54.126 42.322 54.624 42.37 54.984C42.43 55.332 42.55 55.578 42.73 55.722C42.91 55.866 43.192 55.938 43.576 55.938C43.696 55.938 43.852 55.932 44.044 55.92C44.236 55.908 44.428 55.896 44.62 55.884C44.824 55.86 45.004 55.842 45.16 55.83L45.25 57C45.082 57.024 44.884 57.048 44.656 57.072C44.428 57.108 44.2 57.138 43.972 57.162C43.756 57.186 43.57 57.198 43.414 57.198ZM46.7726 57V48H48.1586V57H46.7726ZM46.7726 46.02V44.4H48.1586V46.02H46.7726ZM53.9312 57.18C53.0312 57.18 52.3172 57.006 51.7892 56.658C51.2732 56.31 50.9012 55.794 50.6732 55.11C50.4452 54.426 50.3312 53.574 50.3312 52.554C50.3312 51.414 50.4872 50.502 50.7992 49.818C51.1112 49.122 51.5492 48.618 52.1132 48.306C52.6772 47.982 53.3432 47.82 54.1112 47.82C55.3112 47.82 56.2172 48.156 56.8292 48.828C57.4412 49.488 57.7472 50.556 57.7472 52.032L57.6752 53.094H51.7532C51.7652 54.03 51.9392 54.738 52.2752 55.218C52.6112 55.698 53.2172 55.938 54.0932 55.938C54.4292 55.938 54.7952 55.932 55.1912 55.92C55.5992 55.896 56.0012 55.872 56.3972 55.848C56.7932 55.824 57.1292 55.8 57.4052 55.776L57.4412 56.874C57.1532 56.922 56.7992 56.97 56.3792 57.018C55.9712 57.066 55.5512 57.102 55.1192 57.126C54.6872 57.162 54.2912 57.18 53.9312 57.18ZM51.7532 51.96H56.3432C56.3432 50.856 56.1632 50.088 55.8032 49.656C55.4552 49.212 54.8912 48.99 54.1112 48.99C53.6072 48.99 53.1812 49.092 52.8332 49.296C52.4852 49.488 52.2152 49.8 52.0232 50.232C51.8432 50.664 51.7532 51.24 51.7532 51.96ZM62.6411 57.18C62.3651 57.18 62.0291 57.162 61.6331 57.126C61.2491 57.09 60.8651 57.048 60.4811 57C60.0971 56.94 59.7551 56.886 59.4551 56.838L59.5271 55.632C59.8271 55.668 60.1631 55.71 60.5351 55.758C60.9191 55.806 61.2911 55.848 61.6511 55.884C62.0111 55.908 62.2991 55.92 62.5151 55.92C63.0071 55.92 63.4151 55.878 63.7391 55.794C64.0631 55.698 64.3091 55.542 64.4771 55.326C64.6451 55.11 64.7291 54.804 64.7291 54.408C64.7291 54.108 64.6631 53.874 64.5311 53.706C64.4111 53.538 64.1771 53.4 63.8291 53.292C63.4931 53.184 63.0011 53.082 62.3531 52.986C61.6811 52.878 61.1171 52.746 60.6611 52.59C60.2171 52.422 59.8871 52.176 59.6711 51.852C59.4551 51.528 59.3471 51.066 59.3471 50.466C59.3471 49.794 59.5031 49.266 59.8151 48.882C60.1271 48.498 60.5291 48.228 61.0211 48.072C61.5251 47.904 62.0471 47.82 62.5871 47.82C62.9231 47.82 63.2891 47.838 63.6851 47.874C64.0931 47.91 64.4891 47.958 64.8731 48.018C65.2571 48.066 65.5871 48.114 65.8631 48.162L65.8271 49.368C65.5391 49.32 65.2031 49.278 64.8191 49.242C64.4351 49.194 64.0511 49.158 63.6671 49.134C63.2831 49.098 62.9471 49.08 62.6591 49.08C62.2991 49.08 61.9751 49.122 61.6871 49.206C61.3991 49.278 61.1711 49.41 61.0031 49.602C60.8351 49.794 60.7511 50.064 60.7511 50.412C60.7511 50.676 60.8111 50.892 60.9311 51.06C61.0511 51.216 61.2791 51.348 61.6151 51.456C61.9511 51.564 62.4371 51.672 63.0731 51.78C63.8171 51.9 64.4111 52.05 64.8551 52.23C65.3111 52.41 65.6411 52.662 65.8451 52.986C66.0491 53.31 66.1511 53.766 66.1511 54.354C66.1511 55.05 66.0071 55.608 65.7191 56.028C65.4431 56.436 65.0411 56.73 64.5131 56.91C63.9971 57.09 63.3731 57.18 62.6411 57.18ZM67.5339 59.214L68.3439 55.038H69.9099L68.6859 59.214H67.5339ZM76.4319 57V44.562H77.8719V57H76.4319ZM84.0489 57.18C83.0409 57.18 82.2549 57.006 81.6909 56.658C81.1389 56.31 80.7489 55.782 80.5209 55.074C80.3049 54.366 80.1969 53.472 80.1969 52.392C80.1969 51.36 80.3169 50.508 80.5569 49.836C80.8089 49.164 81.2169 48.66 81.7809 48.324C82.3449 47.988 83.1009 47.82 84.0489 47.82C85.0089 47.82 85.7709 47.988 86.3349 48.324C86.8989 48.66 87.3009 49.164 87.5409 49.836C87.7929 50.508 87.9189 51.36 87.9189 52.392C87.9189 53.472 87.8049 54.366 87.5769 55.074C87.3609 55.782 86.9709 56.31 86.4069 56.658C85.8549 57.006 85.0689 57.18 84.0489 57.18ZM84.0489 55.974C84.7449 55.974 85.2669 55.854 85.6149 55.614C85.9629 55.362 86.1909 54.972 86.2989 54.444C86.4189 53.916 86.4789 53.232 86.4789 52.392C86.4789 51.564 86.4069 50.904 86.2629 50.412C86.1189 49.92 85.8729 49.566 85.5249 49.35C85.1769 49.134 84.6849 49.026 84.0489 49.026C83.4249 49.026 82.9329 49.134 82.5729 49.35C82.2249 49.566 81.9789 49.92 81.8349 50.412C81.6909 50.904 81.6189 51.564 81.6189 52.392C81.6189 53.232 81.6729 53.916 81.7809 54.444C81.9009 54.972 82.1349 55.362 82.4829 55.614C82.8309 55.854 83.3529 55.974 84.0489 55.974ZM91.6961 57V45.858H87.8981V44.562H96.8981V45.858H93.1361V57H91.6961ZM106.296 57.18C105.168 57.18 104.28 57.024 103.632 56.712C102.984 56.4 102.522 55.962 102.246 55.398C101.982 54.822 101.85 54.138 101.85 53.346C101.85 52.638 101.946 52.056 102.138 51.6C102.342 51.132 102.648 50.754 103.056 50.466C103.476 50.166 103.998 49.914 104.622 49.71C104.322 49.362 104.094 49.05 103.938 48.774C103.794 48.498 103.698 48.222 103.65 47.946C103.602 47.67 103.578 47.358 103.578 47.01C103.578 46.482 103.698 46.02 103.938 45.624C104.19 45.228 104.55 44.922 105.018 44.706C105.498 44.478 106.074 44.364 106.746 44.364C107.454 44.364 108.042 44.478 108.51 44.706C108.978 44.922 109.326 45.24 109.554 45.66C109.782 46.068 109.896 46.554 109.896 47.118C109.896 47.55 109.842 47.928 109.734 48.252C109.626 48.576 109.458 48.87 109.23 49.134C109.014 49.386 108.732 49.626 108.384 49.854C108.036 50.082 107.622 50.31 107.142 50.538L109.806 53.184C109.878 52.992 109.95 52.722 110.022 52.374C110.094 52.026 110.16 51.666 110.22 51.294C110.28 50.91 110.316 50.58 110.328 50.304L111.678 50.322C111.642 50.742 111.576 51.192 111.48 51.672C111.396 52.14 111.3 52.584 111.192 53.004C111.084 53.424 110.97 53.778 110.85 54.066L113.154 56.226L112.326 57.162L110.148 55.164C109.74 55.824 109.206 56.328 108.546 56.676C107.898 57.012 107.148 57.18 106.296 57.18ZM106.17 55.92C106.842 55.92 107.436 55.794 107.952 55.542C108.48 55.278 108.888 54.876 109.176 54.336L105.414 50.592C104.91 50.748 104.496 50.94 104.172 51.168C103.86 51.384 103.626 51.66 103.47 51.996C103.326 52.332 103.254 52.752 103.254 53.256C103.254 54.12 103.476 54.78 103.92 55.236C104.376 55.692 105.126 55.92 106.17 55.92ZM106.314 49.692C106.83 49.464 107.244 49.242 107.556 49.026C107.88 48.798 108.114 48.546 108.258 48.27C108.402 47.982 108.474 47.628 108.474 47.208C108.474 46.68 108.336 46.278 108.06 46.002C107.796 45.726 107.358 45.588 106.746 45.588C106.194 45.588 105.762 45.726 105.45 46.002C105.15 46.266 105 46.68 105 47.244C105 47.46 105.012 47.658 105.036 47.838C105.072 48.006 105.132 48.18 105.216 48.36C105.3 48.528 105.432 48.72 105.612 48.936C105.792 49.14 106.026 49.392 106.314 49.692ZM117.873 57L121.275 44.562H124.389L127.773 57H126.333L125.451 53.85H120.195L119.313 57H117.873ZM120.501 52.572H125.145L123.291 45.786H122.355L120.501 52.572ZM129.694 57V44.562H131.134V57H129.694Z" fill="white"/>
</svg>
