<svg width="188" height="36" viewBox="0 0 188 36" fill="none" xmlns="http://www.w3.org/2000/svg">
<path d="M0.721961 13V0.561999H5.27596C6.18796 0.561999 6.93796 0.711999 7.52596 1.012C8.11396 1.3 8.55196 1.744 8.83996 2.344C9.12796 2.932 9.27196 3.682 9.27196 4.594C9.27196 5.494 9.12796 6.262 8.83996 6.898C8.55196 7.522 8.11396 8.002 7.52596 8.338C6.93796 8.662 6.18796 8.824 5.27596 8.824H2.16196V13H0.721961ZM2.16196 7.564H5.27596C6.16396 7.564 6.80596 7.306 7.20196 6.79C7.59796 6.274 7.79596 5.542 7.79596 4.594C7.79596 3.634 7.59796 2.932 7.20196 2.488C6.80596 2.044 6.16396 1.822 5.27596 1.822H2.16196V7.564ZM11.1583 13V4H12.5443V13H11.1583ZM11.1583 2.02V0.399999H12.5443V2.02H11.1583ZM18.587 13.18C17.579 13.18 16.793 13.006 16.229 12.658C15.677 12.31 15.287 11.782 15.059 11.074C14.843 10.366 14.735 9.472 14.735 8.392C14.735 7.36 14.855 6.508 15.095 5.836C15.347 5.164 15.755 4.66 16.319 4.324C16.883 3.988 17.639 3.82 18.587 3.82C19.547 3.82 20.309 3.988 20.873 4.324C21.437 4.66 21.839 5.164 22.079 5.836C22.331 6.508 22.457 7.36 22.457 8.392C22.457 9.472 22.343 10.366 22.115 11.074C21.899 11.782 21.509 12.31 20.945 12.658C20.393 13.006 19.607 13.18 18.587 13.18ZM18.587 11.974C19.283 11.974 19.805 11.854 20.153 11.614C20.501 11.362 20.729 10.972 20.837 10.444C20.957 9.916 21.017 9.232 21.017 8.392C21.017 7.564 20.945 6.904 20.801 6.412C20.657 5.92 20.411 5.566 20.063 5.35C19.715 5.134 19.223 5.026 18.587 5.026C17.963 5.026 17.471 5.134 17.111 5.35C16.763 5.566 16.517 5.92 16.373 6.412C16.229 6.904 16.157 7.564 16.157 8.392C16.157 9.232 16.211 9.916 16.319 10.444C16.439 10.972 16.673 11.362 17.021 11.614C17.369 11.854 17.891 11.974 18.587 11.974ZM24.6583 13V4H26.0443V4.63C26.2483 4.51 26.5003 4.39 26.8003 4.27C27.1123 4.15 27.4423 4.048 27.7903 3.964C28.1383 3.868 28.4743 3.82 28.7983 3.82C29.4223 3.82 29.9323 3.904 30.3283 4.072C30.7243 4.228 31.0303 4.486 31.2463 4.846C31.4743 5.194 31.6303 5.65 31.7143 6.214C31.8103 6.766 31.8583 7.438 31.8583 8.23V13H30.4543V8.284C30.4543 7.504 30.4063 6.88 30.3103 6.412C30.2263 5.944 30.0463 5.608 29.7703 5.404C29.5063 5.188 29.0983 5.08 28.5463 5.08C28.2463 5.08 27.9343 5.116 27.6103 5.188C27.2983 5.248 27.0043 5.332 26.7283 5.44C26.4523 5.536 26.2243 5.632 26.0443 5.728V13H24.6583ZM37.5299 13.18C36.6299 13.18 35.9159 13.006 35.3879 12.658C34.8719 12.31 34.4999 11.794 34.2719 11.11C34.0439 10.426 33.9299 9.574 33.9299 8.554C33.9299 7.414 34.0859 6.502 34.3979 5.818C34.7099 5.122 35.1479 4.618 35.7119 4.306C36.2759 3.982 36.9419 3.82 37.7099 3.82C38.9099 3.82 39.8159 4.156 40.4279 4.828C41.0399 5.488 41.3459 6.556 41.3459 8.032L41.2739 9.094H35.3519C35.3639 10.03 35.5379 10.738 35.8739 11.218C36.2099 11.698 36.8159 11.938 37.6919 11.938C38.0279 11.938 38.3939 11.932 38.7899 11.92C39.1979 11.896 39.5999 11.872 39.9959 11.848C40.3919 11.824 40.7279 11.8 41.0039 11.776L41.0399 12.874C40.7519 12.922 40.3979 12.97 39.9779 13.018C39.5699 13.066 39.1499 13.102 38.7179 13.126C38.2859 13.162 37.8899 13.18 37.5299 13.18ZM35.3519 7.96H39.9419C39.9419 6.856 39.7619 6.088 39.4019 5.656C39.0539 5.212 38.4899 4.99 37.7099 4.99C37.2059 4.99 36.7799 5.092 36.4319 5.296C36.0839 5.488 35.8139 5.8 35.6219 6.232C35.4419 6.664 35.3519 7.24 35.3519 7.96ZM46.6177 13.18C45.7177 13.18 45.0037 13.006 44.4757 12.658C43.9597 12.31 43.5877 11.794 43.3597 11.11C43.1317 10.426 43.0177 9.574 43.0177 8.554C43.0177 7.414 43.1737 6.502 43.4857 5.818C43.7977 5.122 44.2357 4.618 44.7997 4.306C45.3637 3.982 46.0297 3.82 46.7977 3.82C47.9977 3.82 48.9037 4.156 49.5157 4.828C50.1277 5.488 50.4337 6.556 50.4337 8.032L50.3617 9.094H44.4397C44.4517 10.03 44.6257 10.738 44.9617 11.218C45.2977 11.698 45.9037 11.938 46.7797 11.938C47.1157 11.938 47.4817 11.932 47.8777 11.92C48.2857 11.896 48.6877 11.872 49.0837 11.848C49.4797 11.824 49.8157 11.8 50.0917 11.776L50.1277 12.874C49.8397 12.922 49.4857 12.97 49.0657 13.018C48.6577 13.066 48.2377 13.102 47.8057 13.126C47.3737 13.162 46.9777 13.18 46.6177 13.18ZM44.4397 7.96H49.0297C49.0297 6.856 48.8497 6.088 48.4897 5.656C48.1417 5.212 47.5777 4.99 46.7977 4.99C46.2937 4.99 45.8677 5.092 45.5197 5.296C45.1717 5.488 44.9017 5.8 44.7097 6.232C44.5297 6.664 44.4397 7.24 44.4397 7.96ZM52.5196 13V4H53.9056V5.206C54.1336 5.05 54.4216 4.882 54.7696 4.702C55.1176 4.51 55.5016 4.33 55.9216 4.162C56.3416 3.994 56.7616 3.874 57.1816 3.802V5.224C56.7736 5.308 56.3596 5.422 55.9396 5.566C55.5196 5.698 55.1296 5.842 54.7696 5.998C54.4216 6.154 54.1336 6.292 53.9056 6.412V13H52.5196ZM62.7149 13V4H64.1009V13H62.7149ZM62.7149 2.02V0.399999H64.1009V2.02H62.7149ZM66.6876 13V4H68.0736V4.63C68.2776 4.51 68.5296 4.39 68.8296 4.27C69.1416 4.15 69.4716 4.048 69.8196 3.964C70.1676 3.868 70.5036 3.82 70.8276 3.82C71.4516 3.82 71.9616 3.904 72.3576 4.072C72.7536 4.228 73.0596 4.486 73.2756 4.846C73.5036 5.194 73.6596 5.65 73.7436 6.214C73.8396 6.766 73.8876 7.438 73.8876 8.23V13H72.4836V8.284C72.4836 7.504 72.4356 6.88 72.3396 6.412C72.2556 5.944 72.0756 5.608 71.7996 5.404C71.5356 5.188 71.1276 5.08 70.5756 5.08C70.2756 5.08 69.9636 5.116 69.6396 5.188C69.3276 5.248 69.0336 5.332 68.7576 5.44C68.4816 5.536 68.2536 5.632 68.0736 5.728V13H66.6876ZM85.4762 13V10.696H79.7522V9.58L83.1182 1.12H84.7022L81.2642 9.418H85.4762V5.746H86.9162V9.418H88.4102V10.696H86.9162V13H85.4762ZM94.9545 13.18C93.9945 13.18 93.2025 13.042 92.5785 12.766C91.9545 12.478 91.4625 12.064 91.1025 11.524C90.7425 10.972 90.4845 10.3 90.3285 9.508C90.1845 8.716 90.1125 7.816 90.1125 6.808C90.1125 5.764 90.1845 4.846 90.3285 4.054C90.4845 3.25 90.7425 2.578 91.1025 2.038C91.4745 1.486 91.9665 1.072 92.5785 0.795999C93.2025 0.508 93.9825 0.364 94.9185 0.364C95.3865 0.364 95.8725 0.388 96.3765 0.436C96.8925 0.484 97.3785 0.55 97.8345 0.633999C98.3025 0.705999 98.6925 0.777999 99.0045 0.85L98.9505 2.038C98.6385 1.978 98.2545 1.924 97.7985 1.876C97.3425 1.816 96.8745 1.768 96.3945 1.732C95.9265 1.684 95.4945 1.66 95.0985 1.66C94.3905 1.66 93.8085 1.762 93.3525 1.966C92.8965 2.17 92.5425 2.488 92.2905 2.92C92.0385 3.34 91.8585 3.874 91.7505 4.522C91.6545 5.158 91.6065 5.92 91.6065 6.808C91.6065 7.96 91.6965 8.914 91.8765 9.67C92.0565 10.426 92.3925 10.99 92.8845 11.362C93.3885 11.722 94.1145 11.902 95.0625 11.902C95.3385 11.902 95.6325 11.89 95.9445 11.866C96.2565 11.842 96.5565 11.812 96.8445 11.776C97.1445 11.74 97.3905 11.704 97.5825 11.668V7.906H95.5665V6.628H99.0045V12.748C98.8005 12.784 98.5305 12.826 98.1945 12.874C97.8585 12.922 97.4985 12.97 97.1145 13.018C96.7305 13.066 96.3465 13.102 95.9625 13.126C95.5905 13.162 95.2545 13.18 94.9545 13.18ZM104.763 15.214L105.573 11.038H107.139L105.915 15.214H104.763ZM117.225 13.162C116.781 13.162 116.313 13.132 115.821 13.072C115.329 13.012 114.855 12.946 114.399 12.874C113.955 12.79 113.583 12.712 113.283 12.64L113.445 11.488C113.745 11.536 114.105 11.596 114.525 11.668C114.945 11.728 115.377 11.782 115.821 11.83C116.277 11.866 116.697 11.884 117.081 11.884C117.897 11.884 118.539 11.65 119.007 11.182C119.487 10.714 119.727 10.036 119.727 9.148C119.727 8.548 119.625 8.08 119.421 7.744C119.217 7.396 118.929 7.15 118.557 7.006C118.185 6.862 117.753 6.79 117.261 6.79C116.901 6.79 116.541 6.826 116.181 6.898C115.821 6.97 115.491 7.06 115.191 7.168C114.891 7.276 114.645 7.384 114.453 7.492L113.481 7.294L113.805 1.12H120.735V2.416H114.993L114.669 6.214C114.873 6.118 115.125 6.016 115.425 5.908C115.725 5.8 116.049 5.71 116.397 5.638C116.745 5.554 117.087 5.512 117.423 5.512C118.203 5.512 118.875 5.632 119.439 5.872C120.003 6.1 120.441 6.472 120.753 6.988C121.065 7.492 121.221 8.17 121.221 9.022C121.221 9.934 121.059 10.696 120.735 11.308C120.423 11.92 119.967 12.382 119.367 12.694C118.779 13.006 118.065 13.162 117.225 13.162ZM128.072 13.18C127.112 13.18 126.32 13.042 125.696 12.766C125.072 12.478 124.58 12.064 124.22 11.524C123.86 10.972 123.602 10.3 123.446 9.508C123.302 8.716 123.23 7.816 123.23 6.808C123.23 5.764 123.302 4.846 123.446 4.054C123.602 3.25 123.86 2.578 124.22 2.038C124.592 1.486 125.084 1.072 125.696 0.795999C126.32 0.508 127.1 0.364 128.036 0.364C128.504 0.364 128.99 0.388 129.494 0.436C130.01 0.484 130.496 0.55 130.952 0.633999C131.42 0.705999 131.81 0.777999 132.122 0.85L132.068 2.038C131.756 1.978 131.372 1.924 130.916 1.876C130.46 1.816 129.992 1.768 129.512 1.732C129.044 1.684 128.612 1.66 128.216 1.66C127.508 1.66 126.926 1.762 126.47 1.966C126.014 2.17 125.66 2.488 125.408 2.92C125.156 3.34 124.976 3.874 124.868 4.522C124.772 5.158 124.724 5.92 124.724 6.808C124.724 7.96 124.814 8.914 124.994 9.67C125.174 10.426 125.51 10.99 126.002 11.362C126.506 11.722 127.232 11.902 128.18 11.902C128.456 11.902 128.75 11.89 129.062 11.866C129.374 11.842 129.674 11.812 129.962 11.776C130.262 11.74 130.508 11.704 130.7 11.668V7.906H128.684V6.628H132.122V12.748C131.918 12.784 131.648 12.826 131.312 12.874C130.976 12.922 130.616 12.97 130.232 13.018C129.848 13.066 129.464 13.102 129.08 13.126C128.708 13.162 128.372 13.18 128.072 13.18ZM142.471 13.18C141.343 13.18 140.455 13.024 139.807 12.712C139.159 12.4 138.697 11.962 138.421 11.398C138.157 10.822 138.025 10.138 138.025 9.346C138.025 8.638 138.121 8.056 138.313 7.6C138.517 7.132 138.823 6.754 139.231 6.466C139.651 6.166 140.173 5.914 140.797 5.71C140.497 5.362 140.269 5.05 140.113 4.774C139.969 4.498 139.873 4.222 139.825 3.946C139.777 3.67 139.753 3.358 139.753 3.01C139.753 2.482 139.873 2.02 140.113 1.624C140.365 1.228 140.725 0.922 141.193 0.705999C141.673 0.478 142.249 0.364 142.921 0.364C143.629 0.364 144.217 0.478 144.685 0.705999C145.153 0.922 145.501 1.24 145.729 1.66C145.957 2.068 146.071 2.554 146.071 3.118C146.071 3.55 146.017 3.928 145.909 4.252C145.801 4.576 145.633 4.87 145.405 5.134C145.189 5.386 144.907 5.626 144.559 5.854C144.211 6.082 143.797 6.31 143.317 6.538L145.981 9.184C146.053 8.992 146.125 8.722 146.197 8.374C146.269 8.026 146.335 7.666 146.395 7.294C146.455 6.91 146.491 6.58 146.503 6.304L147.853 6.322C147.817 6.742 147.751 7.192 147.655 7.672C147.571 8.14 147.475 8.584 147.367 9.004C147.259 9.424 147.145 9.778 147.025 10.066L149.329 12.226L148.501 13.162L146.323 11.164C145.915 11.824 145.381 12.328 144.721 12.676C144.073 13.012 143.323 13.18 142.471 13.18ZM142.345 11.92C143.017 11.92 143.611 11.794 144.127 11.542C144.655 11.278 145.063 10.876 145.351 10.336L141.589 6.592C141.085 6.748 140.671 6.94 140.347 7.168C140.035 7.384 139.801 7.66 139.645 7.996C139.501 8.332 139.429 8.752 139.429 9.256C139.429 10.12 139.651 10.78 140.095 11.236C140.551 11.692 141.301 11.92 142.345 11.92ZM142.489 5.692C143.005 5.464 143.419 5.242 143.731 5.026C144.055 4.798 144.289 4.546 144.433 4.27C144.577 3.982 144.649 3.628 144.649 3.208C144.649 2.68 144.511 2.278 144.235 2.002C143.971 1.726 143.533 1.588 142.921 1.588C142.369 1.588 141.937 1.726 141.625 2.002C141.325 2.266 141.175 2.68 141.175 3.244C141.175 3.46 141.187 3.658 141.211 3.838C141.247 4.006 141.307 4.18 141.391 4.36C141.475 4.528 141.607 4.72 141.787 4.936C141.967 5.14 142.201 5.392 142.489 5.692ZM158.71 13.162C158.266 13.162 157.798 13.132 157.306 13.072C156.814 13.012 156.34 12.946 155.884 12.874C155.44 12.79 155.068 12.712 154.768 12.64L154.93 11.488C155.23 11.536 155.59 11.596 156.01 11.668C156.43 11.728 156.862 11.782 157.306 11.83C157.762 11.866 158.182 11.884 158.566 11.884C159.382 11.884 160.024 11.65 160.492 11.182C160.972 10.714 161.212 10.036 161.212 9.148C161.212 8.548 161.11 8.08 160.906 7.744C160.702 7.396 160.414 7.15 160.042 7.006C159.67 6.862 159.238 6.79 158.746 6.79C158.386 6.79 158.026 6.826 157.666 6.898C157.306 6.97 156.976 7.06 156.676 7.168C156.376 7.276 156.13 7.384 155.938 7.492L154.966 7.294L155.29 1.12H162.22V2.416H156.478L156.154 6.214C156.358 6.118 156.61 6.016 156.91 5.908C157.21 5.8 157.534 5.71 157.882 5.638C158.23 5.554 158.572 5.512 158.908 5.512C159.688 5.512 160.36 5.632 160.924 5.872C161.488 6.1 161.926 6.472 162.238 6.988C162.55 7.492 162.706 8.17 162.706 9.022C162.706 9.934 162.544 10.696 162.22 11.308C161.908 11.92 161.452 12.382 160.852 12.694C160.264 13.006 159.55 13.162 158.71 13.162ZM164.912 13V10.894H166.442V13H164.912ZM172.702 13.162C172.258 13.162 171.79 13.132 171.298 13.072C170.806 13.012 170.332 12.946 169.876 12.874C169.432 12.79 169.06 12.712 168.76 12.64L168.922 11.488C169.222 11.536 169.582 11.596 170.002 11.668C170.422 11.728 170.854 11.782 171.298 11.83C171.754 11.866 172.174 11.884 172.558 11.884C173.374 11.884 174.016 11.65 174.484 11.182C174.964 10.714 175.204 10.036 175.204 9.148C175.204 8.548 175.102 8.08 174.898 7.744C174.694 7.396 174.406 7.15 174.034 7.006C173.662 6.862 173.23 6.79 172.738 6.79C172.378 6.79 172.018 6.826 171.658 6.898C171.298 6.97 170.968 7.06 170.668 7.168C170.368 7.276 170.122 7.384 169.93 7.492L168.958 7.294L169.282 1.12H176.212V2.416H170.47L170.146 6.214C170.35 6.118 170.602 6.016 170.902 5.908C171.202 5.8 171.526 5.71 171.874 5.638C172.222 5.554 172.564 5.512 172.9 5.512C173.68 5.512 174.352 5.632 174.916 5.872C175.48 6.1 175.918 6.472 176.23 6.988C176.542 7.492 176.698 8.17 176.698 9.022C176.698 9.934 176.536 10.696 176.212 11.308C175.9 11.92 175.444 12.382 174.844 12.694C174.256 13.006 173.542 13.162 172.702 13.162ZM183.548 13.18C182.588 13.18 181.796 13.042 181.172 12.766C180.548 12.478 180.056 12.064 179.696 11.524C179.336 10.972 179.078 10.3 178.922 9.508C178.778 8.716 178.706 7.816 178.706 6.808C178.706 5.764 178.778 4.846 178.922 4.054C179.078 3.25 179.336 2.578 179.696 2.038C180.068 1.486 180.56 1.072 181.172 0.795999C181.796 0.508 182.576 0.364 183.512 0.364C183.98 0.364 184.466 0.388 184.97 0.436C185.486 0.484 185.972 0.55 186.428 0.633999C186.896 0.705999 187.286 0.777999 187.598 0.85L187.544 2.038C187.232 1.978 186.848 1.924 186.392 1.876C185.936 1.816 185.468 1.768 184.988 1.732C184.52 1.684 184.088 1.66 183.692 1.66C182.984 1.66 182.402 1.762 181.946 1.966C181.49 2.17 181.136 2.488 180.884 2.92C180.632 3.34 180.452 3.874 180.344 4.522C180.248 5.158 180.2 5.92 180.2 6.808C180.2 7.96 180.29 8.914 180.47 9.67C180.65 10.426 180.986 10.99 181.478 11.362C181.982 11.722 182.708 11.902 183.656 11.902C183.932 11.902 184.226 11.89 184.538 11.866C184.85 11.842 185.15 11.812 185.438 11.776C185.738 11.74 185.984 11.704 186.176 11.668V7.906H184.16V6.628H187.598V12.748C187.394 12.784 187.124 12.826 186.788 12.874C186.452 12.922 186.092 12.97 185.708 13.018C185.324 13.066 184.94 13.102 184.556 13.126C184.184 13.162 183.848 13.18 183.548 13.18ZM59.6036 35V26H60.9896V26.63C61.1936 26.51 61.4456 26.39 61.7456 26.27C62.0576 26.15 62.3876 26.048 62.7356 25.964C63.0836 25.868 63.4196 25.82 63.7436 25.82C64.3676 25.82 64.8776 25.904 65.2736 26.072C65.6696 26.228 65.9756 26.486 66.1916 26.846C66.4196 27.194 66.5756 27.65 66.6596 28.214C66.7556 28.766 66.8036 29.438 66.8036 30.23V35H65.3996V30.284C65.3996 29.504 65.3516 28.88 65.2556 28.412C65.1716 27.944 64.9916 27.608 64.7156 27.404C64.4516 27.188 64.0436 27.08 63.4916 27.08C63.1916 27.08 62.8796 27.116 62.5556 27.188C62.2436 27.248 61.9496 27.332 61.6736 27.44C61.3976 27.536 61.1696 27.632 60.9896 27.728V35H59.6036ZM72.4752 35.18C71.5752 35.18 70.8612 35.006 70.3332 34.658C69.8172 34.31 69.4452 33.794 69.2172 33.11C68.9892 32.426 68.8752 31.574 68.8752 30.554C68.8752 29.414 69.0312 28.502 69.3432 27.818C69.6552 27.122 70.0932 26.618 70.6572 26.306C71.2212 25.982 71.8872 25.82 72.6552 25.82C73.8552 25.82 74.7612 26.156 75.3732 26.828C75.9852 27.488 76.2912 28.556 76.2912 30.032L76.2192 31.094H70.2972C70.3092 32.03 70.4832 32.738 70.8192 33.218C71.1552 33.698 71.7612 33.938 72.6372 33.938C72.9732 33.938 73.3392 33.932 73.7352 33.92C74.1432 33.896 74.5452 33.872 74.9412 33.848C75.3372 33.824 75.6732 33.8 75.9492 33.776L75.9852 34.874C75.6972 34.922 75.3432 34.97 74.9232 35.018C74.5152 35.066 74.0952 35.102 73.6632 35.126C73.2312 35.162 72.8352 35.18 72.4752 35.18ZM70.2972 29.96H74.8872C74.8872 28.856 74.7072 28.088 74.3472 27.656C73.9992 27.212 73.4352 26.99 72.6552 26.99C72.1512 26.99 71.7252 27.092 71.3772 27.296C71.0292 27.488 70.7592 27.8 70.5672 28.232C70.3872 28.664 70.2972 29.24 70.2972 29.96ZM81.2763 35.198C80.6523 35.198 80.1543 35.102 79.7823 34.91C79.4223 34.718 79.1643 34.388 79.0083 33.92C78.8523 33.44 78.7743 32.768 78.7743 31.904V27.206H77.4963V26H78.7743V23.246H80.1603V26H82.9863V27.206H80.1603V31.49C80.1603 32.126 80.1843 32.624 80.2323 32.984C80.2923 33.332 80.4123 33.578 80.5923 33.722C80.7723 33.866 81.0543 33.938 81.4383 33.938C81.5583 33.938 81.7143 33.932 81.9063 33.92C82.0983 33.908 82.2903 33.896 82.4823 33.884C82.6863 33.86 82.8663 33.842 83.0223 33.83L83.1123 35C82.9443 35.024 82.7463 35.048 82.5183 35.072C82.2903 35.108 82.0623 35.138 81.8343 35.162C81.6183 35.186 81.4323 35.198 81.2763 35.198ZM86.0209 35L83.8969 26H85.3009L87.0649 33.794H87.3709L89.4769 26.18H90.9349L93.0409 33.794H93.3469L95.1109 26H96.5149L94.3909 35H92.0689L90.1969 28.034L88.3429 35H86.0209ZM101.731 35.18C100.723 35.18 99.9375 35.006 99.3735 34.658C98.8215 34.31 98.4315 33.782 98.2035 33.074C97.9875 32.366 97.8795 31.472 97.8795 30.392C97.8795 29.36 97.9995 28.508 98.2395 27.836C98.4915 27.164 98.8995 26.66 99.4635 26.324C100.027 25.988 100.783 25.82 101.731 25.82C102.691 25.82 103.453 25.988 104.017 26.324C104.581 26.66 104.983 27.164 105.223 27.836C105.475 28.508 105.601 29.36 105.601 30.392C105.601 31.472 105.487 32.366 105.259 33.074C105.043 33.782 104.653 34.31 104.089 34.658C103.537 35.006 102.751 35.18 101.731 35.18ZM101.731 33.974C102.427 33.974 102.949 33.854 103.297 33.614C103.645 33.362 103.873 32.972 103.981 32.444C104.101 31.916 104.161 31.232 104.161 30.392C104.161 29.564 104.089 28.904 103.945 28.412C103.801 27.92 103.555 27.566 103.207 27.35C102.859 27.134 102.367 27.026 101.731 27.026C101.107 27.026 100.615 27.134 100.255 27.35C99.9075 27.566 99.6615 27.92 99.5175 28.412C99.3735 28.904 99.3015 29.564 99.3015 30.392C99.3015 31.232 99.3555 31.916 99.4635 32.444C99.5835 32.972 99.8175 33.362 100.165 33.614C100.513 33.854 101.035 33.974 101.731 33.974ZM107.803 35V26H109.189V27.206C109.417 27.05 109.705 26.882 110.053 26.702C110.401 26.51 110.785 26.33 111.205 26.162C111.625 25.994 112.045 25.874 112.465 25.802V27.224C112.057 27.308 111.643 27.422 111.223 27.566C110.803 27.698 110.413 27.842 110.053 27.998C109.705 28.154 109.417 28.292 109.189 28.412V35H107.803ZM114.043 35V22.094H115.429V29.69L116.815 29.636L119.335 26H120.937L118.039 30.158L121.081 35H119.479L116.851 30.86L115.429 30.932V35H114.043ZM125.412 35.18C125.136 35.18 124.8 35.162 124.404 35.126C124.02 35.09 123.636 35.048 123.252 35C122.868 34.94 122.526 34.886 122.226 34.838L122.298 33.632C122.598 33.668 122.934 33.71 123.306 33.758C123.69 33.806 124.062 33.848 124.422 33.884C124.782 33.908 125.07 33.92 125.286 33.92C125.778 33.92 126.186 33.878 126.51 33.794C126.834 33.698 127.08 33.542 127.248 33.326C127.416 33.11 127.5 32.804 127.5 32.408C127.5 32.108 127.434 31.874 127.302 31.706C127.182 31.538 126.948 31.4 126.6 31.292C126.264 31.184 125.772 31.082 125.124 30.986C124.452 30.878 123.888 30.746 123.432 30.59C122.988 30.422 122.658 30.176 122.442 29.852C122.226 29.528 122.118 29.066 122.118 28.466C122.118 27.794 122.274 27.266 122.586 26.882C122.898 26.498 123.3 26.228 123.792 26.072C124.296 25.904 124.818 25.82 125.358 25.82C125.694 25.82 126.06 25.838 126.456 25.874C126.864 25.91 127.26 25.958 127.644 26.018C128.028 26.066 128.358 26.114 128.634 26.162L128.598 27.368C128.31 27.32 127.974 27.278 127.59 27.242C127.206 27.194 126.822 27.158 126.438 27.134C126.054 27.098 125.718 27.08 125.43 27.08C125.07 27.08 124.746 27.122 124.458 27.206C124.17 27.278 123.942 27.41 123.774 27.602C123.606 27.794 123.522 28.064 123.522 28.412C123.522 28.676 123.582 28.892 123.702 29.06C123.822 29.216 124.05 29.348 124.386 29.456C124.722 29.564 125.208 29.672 125.844 29.78C126.588 29.9 127.182 30.05 127.626 30.23C128.082 30.41 128.412 30.662 128.616 30.986C128.82 31.31 128.922 31.766 128.922 32.354C128.922 33.05 128.778 33.608 128.49 34.028C128.214 34.436 127.812 34.73 127.284 34.91C126.768 35.09 126.144 35.18 125.412 35.18Z" fill="white"/>
</svg>
