<svg width="182" height="36" viewBox="0 0 182 36" fill="none" xmlns="http://www.w3.org/2000/svg">
<path d="M4.59564 13.162C4.23564 13.162 3.81564 13.138 3.33564 13.09C2.85564 13.054 2.37564 13.006 1.89564 12.946C1.42764 12.874 1.01364 12.814 0.653641 12.766L0.797641 11.578C1.14564 11.614 1.54764 11.656 2.00364 11.704C2.47164 11.752 2.92764 11.794 3.37164 11.83C3.82764 11.866 4.21164 11.884 4.52364 11.884C5.11164 11.884 5.59764 11.8 5.98164 11.632C6.36564 11.452 6.65364 11.182 6.84564 10.822C7.03764 10.462 7.13364 10 7.13364 9.436C7.13364 8.98 7.04364 8.62 6.86364 8.356C6.69564 8.08 6.40764 7.864 5.99964 7.708C5.60364 7.54 5.06964 7.39 4.39764 7.258C3.74964 7.126 3.18564 6.976 2.70564 6.808C2.22564 6.64 1.82364 6.43 1.49964 6.178C1.17564 5.914 0.935641 5.584 0.779641 5.188C0.623641 4.792 0.545641 4.3 0.545641 3.712C0.545641 2.908 0.707641 2.26 1.03164 1.768C1.36764 1.276 1.83564 0.916 2.43564 0.688C3.04764 0.46 3.75564 0.346 4.55964 0.346C4.91964 0.346 5.32764 0.37 5.78364 0.417999C6.25164 0.453999 6.70764 0.501999 7.15164 0.561999C7.60764 0.609999 7.99764 0.663999 8.32164 0.723999L8.19564 1.93C7.84764 1.882 7.44564 1.84 6.98964 1.804C6.53364 1.756 6.09564 1.714 5.67564 1.678C5.25564 1.642 4.91964 1.624 4.66764 1.624C4.09164 1.624 3.60564 1.696 3.20964 1.84C2.81364 1.984 2.51364 2.206 2.30964 2.506C2.10564 2.794 2.00364 3.166 2.00364 3.622C2.00364 4.15 2.09964 4.552 2.29164 4.828C2.49564 5.104 2.81964 5.32 3.26364 5.476C3.70764 5.632 4.28964 5.794 5.00964 5.962C5.63364 6.106 6.16764 6.262 6.61164 6.43C7.06764 6.598 7.43964 6.808 7.72764 7.06C8.02764 7.3 8.24364 7.606 8.37564 7.978C8.51964 8.338 8.59164 8.788 8.59164 9.328C8.59164 10.24 8.42964 10.978 8.10564 11.542C7.78164 12.106 7.31964 12.52 6.71964 12.784C6.11964 13.036 5.41164 13.162 4.59564 13.162ZM13.9195 13.18C13.0195 13.18 12.3055 13.006 11.7775 12.658C11.2615 12.31 10.8895 11.794 10.6615 11.11C10.4335 10.426 10.3195 9.574 10.3195 8.554C10.3195 7.414 10.4755 6.502 10.7875 5.818C11.0995 5.122 11.5375 4.618 12.1015 4.306C12.6655 3.982 13.3315 3.82 14.0995 3.82C15.2995 3.82 16.2055 4.156 16.8175 4.828C17.4295 5.488 17.7355 6.556 17.7355 8.032L17.6635 9.094H11.7415C11.7535 10.03 11.9275 10.738 12.2635 11.218C12.5995 11.698 13.2055 11.938 14.0815 11.938C14.4175 11.938 14.7835 11.932 15.1795 11.92C15.5875 11.896 15.9895 11.872 16.3855 11.848C16.7815 11.824 17.1175 11.8 17.3935 11.776L17.4295 12.874C17.1415 12.922 16.7875 12.97 16.3675 13.018C15.9595 13.066 15.5395 13.102 15.1075 13.126C14.6755 13.162 14.2795 13.18 13.9195 13.18ZM11.7415 7.96H16.3315C16.3315 6.856 16.1515 6.088 15.7915 5.656C15.4435 5.212 14.8795 4.99 14.0995 4.99C13.5955 4.99 13.1695 5.092 12.8215 5.296C12.4735 5.488 12.2035 5.8 12.0115 6.232C11.8315 6.664 11.7415 7.24 11.7415 7.96ZM19.8214 13V4H21.2074V5.206C21.4354 5.05 21.7234 4.882 22.0714 4.702C22.4194 4.51 22.8034 4.33 23.2234 4.162C23.6434 3.994 24.0634 3.874 24.4834 3.802V5.224C24.0754 5.308 23.6614 5.422 23.2414 5.566C22.8214 5.698 22.4314 5.842 22.0714 5.998C21.7234 6.154 21.4354 6.292 21.2074 6.412V13H19.8214ZM27.7176 13L25.1976 4H26.7096L28.7616 11.794H29.4456L31.5696 4H33.0096L30.4896 13H27.7176ZM34.7452 13V4H36.1312V13H34.7452ZM34.7452 2.02V0.399999H36.1312V2.02H34.7452ZM38.7179 13V4H40.1039V4.63C40.3079 4.51 40.5599 4.39 40.8599 4.27C41.1719 4.15 41.5019 4.048 41.8499 3.964C42.1979 3.868 42.5339 3.82 42.8579 3.82C43.4819 3.82 43.9919 3.904 44.3879 4.072C44.7839 4.228 45.0899 4.486 45.3059 4.846C45.5339 5.194 45.6899 5.65 45.7739 6.214C45.8699 6.766 45.9179 7.438 45.9179 8.23V13H44.5139V8.284C44.5139 7.504 44.4659 6.88 44.3699 6.412C44.2859 5.944 44.1059 5.608 43.8299 5.404C43.5659 5.188 43.1579 5.08 42.6059 5.08C42.3059 5.08 41.9939 5.116 41.6699 5.188C41.3579 5.248 41.0639 5.332 40.7879 5.44C40.5119 5.536 40.2839 5.632 40.1039 5.728V13H38.7179ZM51.8774 17.23C50.9414 17.23 50.1854 17.146 49.6094 16.978C49.0454 16.822 48.6314 16.546 48.3674 16.15C48.1154 15.754 47.9894 15.214 47.9894 14.53C47.9894 14.182 48.0434 13.882 48.1514 13.63C48.2594 13.39 48.4154 13.168 48.6194 12.964C48.8354 12.748 49.0994 12.526 49.4114 12.298C49.2554 12.178 49.1294 12.01 49.0334 11.794C48.9494 11.566 48.9074 11.314 48.9074 11.038C48.9074 10.954 48.9374 10.828 48.9974 10.66C49.0694 10.492 49.1534 10.318 49.2494 10.138C49.3454 9.946 49.4354 9.772 49.5194 9.616C49.2674 9.496 49.0334 9.334 48.8174 9.13C48.6134 8.914 48.4454 8.626 48.3134 8.266C48.1814 7.906 48.1154 7.45 48.1154 6.898C48.1154 6.154 48.2534 5.56 48.5294 5.116C48.8174 4.66 49.2134 4.33 49.7174 4.126C50.2334 3.922 50.8214 3.82 51.4814 3.82C51.8054 3.82 52.1474 3.844 52.5074 3.892C52.8674 3.94 53.1494 3.994 53.3534 4.054L56.0354 3.982V5.17L54.3434 5.134C54.5114 5.302 54.6494 5.524 54.7574 5.8C54.8774 6.076 54.9374 6.442 54.9374 6.898C54.9374 7.678 54.8054 8.29 54.5414 8.734C54.2774 9.178 53.8874 9.49 53.3714 9.67C52.8554 9.85 52.2074 9.94 51.4274 9.94C51.3434 9.94 51.1994 9.934 50.9954 9.922C50.8034 9.898 50.6594 9.88 50.5634 9.868C50.4914 10.036 50.4194 10.228 50.3474 10.444C50.2754 10.66 50.2394 10.81 50.2394 10.894C50.2394 11.074 50.2574 11.218 50.2934 11.326C50.3414 11.422 50.4314 11.5 50.5634 11.56C50.7074 11.62 50.9234 11.662 51.2114 11.686C51.4994 11.698 51.8954 11.704 52.3994 11.704C53.2634 11.704 53.9534 11.776 54.4694 11.92C54.9854 12.064 55.3514 12.328 55.5674 12.712C55.7954 13.084 55.9094 13.63 55.9094 14.35C55.9094 15.37 55.5554 16.102 54.8474 16.546C54.1394 17.002 53.1494 17.23 51.8774 17.23ZM51.8954 16.042C52.7834 16.042 53.4374 15.916 53.8574 15.664C54.2774 15.412 54.4874 14.998 54.4874 14.422C54.4874 13.978 54.4154 13.648 54.2714 13.432C54.1394 13.228 53.9114 13.09 53.5874 13.018C53.2634 12.958 52.8314 12.928 52.2914 12.928C52.1834 12.928 52.0334 12.928 51.8414 12.928C51.6494 12.916 51.4514 12.91 51.2474 12.91C51.0434 12.898 50.8574 12.886 50.6894 12.874C50.5334 12.862 50.4254 12.856 50.3654 12.856C50.1254 13.036 49.9274 13.198 49.7714 13.342C49.6274 13.498 49.5254 13.654 49.4654 13.81C49.4054 13.978 49.3754 14.176 49.3754 14.404C49.3754 14.8 49.4474 15.118 49.5914 15.358C49.7354 15.598 49.9874 15.772 50.3474 15.88C50.7194 15.988 51.2354 16.042 51.8954 16.042ZM51.4814 8.824C52.2254 8.824 52.7534 8.68 53.0654 8.392C53.3774 8.092 53.5334 7.594 53.5334 6.898C53.5334 6.202 53.3774 5.704 53.0654 5.404C52.7534 5.104 52.2254 4.954 51.4814 4.954C50.7854 4.954 50.2814 5.104 49.9694 5.404C49.6694 5.704 49.5194 6.202 49.5194 6.898C49.5194 7.594 49.6694 8.092 49.9694 8.392C50.2814 8.68 50.7854 8.824 51.4814 8.824ZM65.0782 13.18C64.0702 13.18 63.2842 13.006 62.7202 12.658C62.1682 12.31 61.7782 11.782 61.5502 11.074C61.3342 10.366 61.2262 9.472 61.2262 8.392C61.2262 7.36 61.3462 6.508 61.5862 5.836C61.8382 5.164 62.2462 4.66 62.8102 4.324C63.3742 3.988 64.1302 3.82 65.0782 3.82C66.0382 3.82 66.8002 3.988 67.3642 4.324C67.9282 4.66 68.3302 5.164 68.5702 5.836C68.8222 6.508 68.9482 7.36 68.9482 8.392C68.9482 9.472 68.8342 10.366 68.6062 11.074C68.3902 11.782 68.0002 12.31 67.4362 12.658C66.8842 13.006 66.0982 13.18 65.0782 13.18ZM65.0782 11.974C65.7742 11.974 66.2962 11.854 66.6442 11.614C66.9922 11.362 67.2202 10.972 67.3282 10.444C67.4482 9.916 67.5082 9.232 67.5082 8.392C67.5082 7.564 67.4362 6.904 67.2922 6.412C67.1482 5.92 66.9022 5.566 66.5542 5.35C66.2062 5.134 65.7142 5.026 65.0782 5.026C64.4542 5.026 63.9622 5.134 63.6022 5.35C63.2542 5.566 63.0082 5.92 62.8642 6.412C62.7202 6.904 62.6482 7.564 62.6482 8.392C62.6482 9.232 62.7022 9.916 62.8102 10.444C62.9302 10.972 63.1642 11.362 63.5122 11.614C63.8602 11.854 64.3822 11.974 65.0782 11.974ZM72.6649 13L70.1449 4H71.6569L73.7089 11.794H74.3929L76.5169 4H77.9569L75.4369 13H72.6649ZM82.7379 13.18C81.8379 13.18 81.1239 13.006 80.5959 12.658C80.0799 12.31 79.7079 11.794 79.4799 11.11C79.2519 10.426 79.1379 9.574 79.1379 8.554C79.1379 7.414 79.2939 6.502 79.6059 5.818C79.9179 5.122 80.3559 4.618 80.9199 4.306C81.4839 3.982 82.1499 3.82 82.9179 3.82C84.1179 3.82 85.0239 4.156 85.6359 4.828C86.2479 5.488 86.5539 6.556 86.5539 8.032L86.4819 9.094H80.5599C80.5719 10.03 80.7459 10.738 81.0819 11.218C81.4179 11.698 82.0239 11.938 82.8999 11.938C83.2359 11.938 83.6019 11.932 83.9979 11.92C84.4059 11.896 84.8079 11.872 85.2039 11.848C85.5999 11.824 85.9359 11.8 86.2119 11.776L86.2479 12.874C85.9599 12.922 85.6059 12.97 85.1859 13.018C84.7779 13.066 84.3579 13.102 83.9259 13.126C83.4939 13.162 83.0979 13.18 82.7379 13.18ZM80.5599 7.96H85.1499C85.1499 6.856 84.9699 6.088 84.6099 5.656C84.2619 5.212 83.6979 4.99 82.9179 4.99C82.4139 4.99 81.9879 5.092 81.6399 5.296C81.2919 5.488 81.0219 5.8 80.8299 6.232C80.6499 6.664 80.5599 7.24 80.5599 7.96ZM88.6398 13V4H90.0258V5.206C90.2538 5.05 90.5418 4.882 90.8898 4.702C91.2378 4.51 91.6218 4.33 92.0418 4.162C92.4618 3.994 92.8818 3.874 93.3018 3.802V5.224C92.8938 5.308 92.4798 5.422 92.0598 5.566C91.6398 5.698 91.2498 5.842 90.8898 5.998C90.5418 6.154 90.2538 6.292 90.0258 6.412V13H88.6398ZM103.119 13V2.722L100.095 4.738L99.4291 3.64L103.209 1.12H104.559V13H103.119ZM112.651 13.18C111.967 13.18 111.355 13.084 110.815 12.892C110.287 12.7 109.831 12.382 109.447 11.938C109.075 11.482 108.787 10.87 108.583 10.102C108.391 9.334 108.295 8.38 108.295 7.24C108.295 6.028 108.391 5.014 108.583 4.198C108.775 3.382 109.057 2.734 109.429 2.254C109.813 1.774 110.269 1.432 110.797 1.228C111.337 1.024 111.949 0.922 112.633 0.922C113.341 0.922 113.965 1.024 114.505 1.228C115.045 1.432 115.495 1.774 115.855 2.254C116.227 2.734 116.509 3.382 116.701 4.198C116.893 5.002 116.989 6.016 116.989 7.24C116.989 8.752 116.815 9.94 116.467 10.804C116.119 11.668 115.621 12.28 114.973 12.64C114.337 13 113.563 13.18 112.651 13.18ZM112.651 11.902C113.119 11.902 113.527 11.83 113.875 11.686C114.235 11.542 114.535 11.296 114.775 10.948C115.015 10.6 115.195 10.126 115.315 9.526C115.435 8.914 115.495 8.152 115.495 7.24C115.495 6.244 115.435 5.422 115.315 4.774C115.207 4.126 115.033 3.616 114.793 3.244C114.565 2.86 114.271 2.59 113.911 2.434C113.563 2.278 113.143 2.2 112.651 2.2C112.171 2.2 111.751 2.278 111.391 2.434C111.031 2.59 110.731 2.854 110.491 3.226C110.263 3.598 110.089 4.114 109.969 4.774C109.849 5.422 109.789 6.25 109.789 7.258C109.789 8.17 109.849 8.932 109.969 9.544C110.101 10.144 110.287 10.618 110.527 10.966C110.779 11.302 111.079 11.542 111.427 11.686C111.787 11.83 112.195 11.902 112.651 11.902ZM122.724 13.18C122.04 13.18 121.428 13.084 120.888 12.892C120.36 12.7 119.904 12.382 119.52 11.938C119.148 11.482 118.86 10.87 118.656 10.102C118.464 9.334 118.368 8.38 118.368 7.24C118.368 6.028 118.464 5.014 118.656 4.198C118.848 3.382 119.13 2.734 119.502 2.254C119.886 1.774 120.342 1.432 120.87 1.228C121.41 1.024 122.022 0.922 122.706 0.922C123.414 0.922 124.038 1.024 124.578 1.228C125.118 1.432 125.568 1.774 125.928 2.254C126.3 2.734 126.582 3.382 126.774 4.198C126.966 5.002 127.062 6.016 127.062 7.24C127.062 8.752 126.888 9.94 126.54 10.804C126.192 11.668 125.694 12.28 125.046 12.64C124.41 13 123.636 13.18 122.724 13.18ZM122.724 11.902C123.192 11.902 123.6 11.83 123.948 11.686C124.308 11.542 124.608 11.296 124.848 10.948C125.088 10.6 125.268 10.126 125.388 9.526C125.508 8.914 125.568 8.152 125.568 7.24C125.568 6.244 125.508 5.422 125.388 4.774C125.28 4.126 125.106 3.616 124.866 3.244C124.638 2.86 124.344 2.59 123.984 2.434C123.636 2.278 123.216 2.2 122.724 2.2C122.244 2.2 121.824 2.278 121.464 2.434C121.104 2.59 120.804 2.854 120.564 3.226C120.336 3.598 120.162 4.114 120.042 4.774C119.922 5.422 119.862 6.25 119.862 7.258C119.862 8.17 119.922 8.932 120.042 9.544C120.174 10.144 120.36 10.618 120.6 10.966C120.852 11.302 121.152 11.542 121.5 11.686C121.86 11.83 122.268 11.902 122.724 11.902ZM133.007 13V4H134.393V4.63C134.585 4.51 134.825 4.39 135.113 4.27C135.401 4.15 135.707 4.048 136.031 3.964C136.367 3.868 136.685 3.82 136.985 3.82C137.585 3.82 138.065 3.892 138.425 4.036C138.797 4.18 139.097 4.414 139.325 4.738C139.565 4.606 139.859 4.468 140.207 4.324C140.555 4.18 140.927 4.06 141.323 3.964C141.731 3.868 142.127 3.82 142.511 3.82C143.123 3.82 143.627 3.898 144.023 4.054C144.419 4.21 144.725 4.462 144.941 4.81C145.169 5.158 145.325 5.614 145.409 6.178C145.505 6.73 145.553 7.414 145.553 8.23V13H144.167V8.284C144.167 7.504 144.119 6.88 144.023 6.412C143.939 5.944 143.765 5.608 143.501 5.404C143.237 5.188 142.835 5.08 142.295 5.08C141.983 5.08 141.665 5.116 141.341 5.188C141.029 5.248 140.735 5.332 140.459 5.44C140.195 5.536 139.979 5.632 139.811 5.728C139.895 6.04 139.949 6.43 139.973 6.898C140.009 7.354 140.027 7.828 140.027 8.32V13H138.641V8.356C138.641 7.54 138.599 6.898 138.515 6.43C138.431 5.95 138.251 5.608 137.975 5.404C137.711 5.188 137.309 5.08 136.769 5.08C136.469 5.08 136.163 5.116 135.851 5.188C135.551 5.248 135.275 5.332 135.023 5.44C134.771 5.536 134.561 5.632 134.393 5.728V13H133.007ZM148.054 13V4H149.44V13H148.054ZM148.054 2.02V0.399999H149.44V2.02H148.054ZM152.134 13V0.0939999H153.52V13H152.134ZM156.336 13V0.0939999H157.722V13H156.336ZM160.429 13V4H161.815V13H160.429ZM160.429 2.02V0.399999H161.815V2.02H160.429ZM167.857 13.18C166.849 13.18 166.063 13.006 165.499 12.658C164.947 12.31 164.557 11.782 164.329 11.074C164.113 10.366 164.005 9.472 164.005 8.392C164.005 7.36 164.125 6.508 164.365 5.836C164.617 5.164 165.025 4.66 165.589 4.324C166.153 3.988 166.909 3.82 167.857 3.82C168.817 3.82 169.579 3.988 170.143 4.324C170.707 4.66 171.109 5.164 171.349 5.836C171.601 6.508 171.727 7.36 171.727 8.392C171.727 9.472 171.613 10.366 171.385 11.074C171.169 11.782 170.779 12.31 170.215 12.658C169.663 13.006 168.877 13.18 167.857 13.18ZM167.857 11.974C168.553 11.974 169.075 11.854 169.423 11.614C169.771 11.362 169.999 10.972 170.107 10.444C170.227 9.916 170.287 9.232 170.287 8.392C170.287 7.564 170.215 6.904 170.071 6.412C169.927 5.92 169.681 5.566 169.333 5.35C168.985 5.134 168.493 5.026 167.857 5.026C167.233 5.026 166.741 5.134 166.381 5.35C166.033 5.566 165.787 5.92 165.643 6.412C165.499 6.904 165.427 7.564 165.427 8.392C165.427 9.232 165.481 9.916 165.589 10.444C165.709 10.972 165.943 11.362 166.291 11.614C166.639 11.854 167.161 11.974 167.857 11.974ZM173.929 13V4H175.315V4.63C175.519 4.51 175.771 4.39 176.071 4.27C176.383 4.15 176.713 4.048 177.061 3.964C177.409 3.868 177.745 3.82 178.069 3.82C178.693 3.82 179.203 3.904 179.599 4.072C179.995 4.228 180.301 4.486 180.517 4.846C180.745 5.194 180.901 5.65 180.985 6.214C181.081 6.766 181.129 7.438 181.129 8.23V13H179.725V8.284C179.725 7.504 179.677 6.88 179.581 6.412C179.497 5.944 179.317 5.608 179.041 5.404C178.777 5.188 178.369 5.08 177.817 5.08C177.517 5.08 177.205 5.116 176.881 5.188C176.569 5.248 176.275 5.332 175.999 5.44C175.723 5.536 175.495 5.632 175.315 5.728V13H173.929ZM51.5542 35.18C51.2782 35.18 50.9422 35.162 50.5462 35.126C50.1622 35.09 49.7782 35.048 49.3942 35C49.0102 34.94 48.6682 34.886 48.3682 34.838L48.4402 33.632C48.7402 33.668 49.0762 33.71 49.4482 33.758C49.8322 33.806 50.2042 33.848 50.5642 33.884C50.9242 33.908 51.2122 33.92 51.4282 33.92C51.9202 33.92 52.3282 33.878 52.6522 33.794C52.9762 33.698 53.2222 33.542 53.3902 33.326C53.5582 33.11 53.6422 32.804 53.6422 32.408C53.6422 32.108 53.5762 31.874 53.4442 31.706C53.3242 31.538 53.0902 31.4 52.7422 31.292C52.4062 31.184 51.9142 31.082 51.2662 30.986C50.5942 30.878 50.0302 30.746 49.5742 30.59C49.1302 30.422 48.8002 30.176 48.5842 29.852C48.3682 29.528 48.2602 29.066 48.2602 28.466C48.2602 27.794 48.4162 27.266 48.7282 26.882C49.0402 26.498 49.4422 26.228 49.9342 26.072C50.4382 25.904 50.9602 25.82 51.5002 25.82C51.8362 25.82 52.2022 25.838 52.5982 25.874C53.0062 25.91 53.4022 25.958 53.7862 26.018C54.1702 26.066 54.5002 26.114 54.7762 26.162L54.7402 27.368C54.4522 27.32 54.1162 27.278 53.7322 27.242C53.3482 27.194 52.9642 27.158 52.5802 27.134C52.1962 27.098 51.8602 27.08 51.5722 27.08C51.2122 27.08 50.8882 27.122 50.6002 27.206C50.3122 27.278 50.0842 27.41 49.9162 27.602C49.7482 27.794 49.6642 28.064 49.6642 28.412C49.6642 28.676 49.7242 28.892 49.8442 29.06C49.9642 29.216 50.1922 29.348 50.5282 29.456C50.8642 29.564 51.3502 29.672 51.9862 29.78C52.7302 29.9 53.3242 30.05 53.7682 30.23C54.2242 30.41 54.5542 30.662 54.7582 30.986C54.9622 31.31 55.0642 31.766 55.0642 32.354C55.0642 33.05 54.9202 33.608 54.6322 34.028C54.3562 34.436 53.9542 34.73 53.4262 34.91C52.9102 35.09 52.2862 35.18 51.5542 35.18ZM59.867 35.18C59.099 35.18 58.511 35.024 58.103 34.712C57.695 34.4 57.413 33.914 57.257 33.254C57.113 32.594 57.041 31.742 57.041 30.698V26H58.427V30.698C58.427 31.49 58.463 32.12 58.535 32.588C58.619 33.056 58.793 33.398 59.057 33.614C59.321 33.818 59.717 33.92 60.245 33.92C60.773 33.92 61.253 33.848 61.685 33.704C62.117 33.56 62.465 33.416 62.729 33.272V26H64.115V35H62.729V34.37C62.345 34.586 61.925 34.778 61.469 34.946C61.025 35.102 60.491 35.18 59.867 35.18ZM69.735 35.18C69.471 35.18 69.153 35.168 68.781 35.144C68.421 35.132 68.055 35.108 67.683 35.072C67.311 35.036 66.981 35.006 66.693 34.982V22.094H68.097V26.432C68.289 26.336 68.529 26.246 68.817 26.162C69.105 26.066 69.411 25.988 69.735 25.928C70.071 25.856 70.389 25.82 70.689 25.82C71.505 25.82 72.153 25.976 72.633 26.288C73.125 26.588 73.473 27.074 73.677 27.746C73.893 28.406 74.001 29.276 74.001 30.356C74.001 31.556 73.869 32.51 73.605 33.218C73.353 33.914 72.915 34.418 72.291 34.73C71.679 35.03 70.827 35.18 69.735 35.18ZM69.717 33.92C70.533 33.92 71.139 33.8 71.535 33.56C71.943 33.308 72.213 32.918 72.345 32.39C72.489 31.862 72.561 31.184 72.561 30.356C72.561 29.588 72.501 28.964 72.381 28.484C72.261 28.004 72.051 27.65 71.751 27.422C71.463 27.194 71.061 27.08 70.545 27.08C70.257 27.08 69.957 27.11 69.645 27.17C69.333 27.218 69.039 27.284 68.763 27.368C68.499 27.44 68.277 27.512 68.097 27.584V33.83C68.349 33.854 68.637 33.878 68.961 33.902C69.297 33.914 69.549 33.92 69.717 33.92ZM79.0112 35.18C78.7352 35.18 78.3992 35.162 78.0032 35.126C77.6192 35.09 77.2352 35.048 76.8512 35C76.4672 34.94 76.1252 34.886 75.8252 34.838L75.8972 33.632C76.1972 33.668 76.5332 33.71 76.9052 33.758C77.2892 33.806 77.6612 33.848 78.0212 33.884C78.3812 33.908 78.6692 33.92 78.8852 33.92C79.3772 33.92 79.7852 33.878 80.1092 33.794C80.4332 33.698 80.6792 33.542 80.8472 33.326C81.0152 33.11 81.0992 32.804 81.0992 32.408C81.0992 32.108 81.0332 31.874 80.9012 31.706C80.7812 31.538 80.5472 31.4 80.1992 31.292C79.8632 31.184 79.3712 31.082 78.7232 30.986C78.0512 30.878 77.4872 30.746 77.0312 30.59C76.5872 30.422 76.2572 30.176 76.0412 29.852C75.8252 29.528 75.7172 29.066 75.7172 28.466C75.7172 27.794 75.8732 27.266 76.1852 26.882C76.4972 26.498 76.8992 26.228 77.3912 26.072C77.8952 25.904 78.4172 25.82 78.9572 25.82C79.2932 25.82 79.6592 25.838 80.0552 25.874C80.4632 25.91 80.8592 25.958 81.2432 26.018C81.6272 26.066 81.9572 26.114 82.2332 26.162L82.1972 27.368C81.9092 27.32 81.5732 27.278 81.1892 27.242C80.8052 27.194 80.4212 27.158 80.0372 27.134C79.6532 27.098 79.3172 27.08 79.0292 27.08C78.6692 27.08 78.3452 27.122 78.0572 27.206C77.7692 27.278 77.5412 27.41 77.3732 27.602C77.2052 27.794 77.1212 28.064 77.1212 28.412C77.1212 28.676 77.1812 28.892 77.3012 29.06C77.4212 29.216 77.6492 29.348 77.9852 29.456C78.3212 29.564 78.8072 29.672 79.4432 29.78C80.1872 29.9 80.7812 30.05 81.2252 30.23C81.6812 30.41 82.0112 30.662 82.2152 30.986C82.4192 31.31 82.5212 31.766 82.5212 32.354C82.5212 33.05 82.3772 33.608 82.0892 34.028C81.8132 34.436 81.4112 34.73 80.8832 34.91C80.3672 35.09 79.7432 35.18 79.0112 35.18ZM87.918 35.18C86.97 35.18 86.226 35.024 85.686 34.712C85.146 34.388 84.762 33.872 84.534 33.164C84.318 32.456 84.21 31.52 84.21 30.356C84.21 29.264 84.33 28.388 84.57 27.728C84.822 27.056 85.224 26.57 85.776 26.27C86.328 25.97 87.048 25.82 87.936 25.82C88.14 25.82 88.386 25.838 88.674 25.874C88.974 25.898 89.28 25.934 89.592 25.982C89.904 26.018 90.174 26.054 90.402 26.09L90.348 27.242C90.144 27.218 89.91 27.194 89.646 27.17C89.382 27.146 89.124 27.128 88.872 27.116C88.62 27.092 88.41 27.08 88.242 27.08C87.558 27.08 87.024 27.188 86.64 27.404C86.268 27.62 86.004 27.968 85.848 28.448C85.704 28.916 85.632 29.552 85.632 30.356C85.632 31.232 85.698 31.934 85.83 32.462C85.962 32.978 86.214 33.35 86.586 33.578C86.958 33.806 87.51 33.92 88.242 33.92C88.41 33.92 88.62 33.914 88.872 33.902C89.136 33.878 89.4 33.854 89.664 33.83C89.94 33.806 90.18 33.788 90.384 33.776L90.42 34.928C90.18 34.964 89.904 35 89.592 35.036C89.28 35.072 88.974 35.102 88.674 35.126C88.374 35.162 88.122 35.18 87.918 35.18ZM92.4278 35V26H93.8138V27.206C94.0418 27.05 94.3298 26.882 94.6778 26.702C95.0258 26.51 95.4098 26.33 95.8298 26.162C96.2498 25.994 96.6698 25.874 97.0898 25.802V27.224C96.6818 27.308 96.2678 27.422 95.8478 27.566C95.4278 27.698 95.0378 27.842 94.6778 27.998C94.3298 28.154 94.0418 28.292 93.8138 28.412V35H92.4278ZM98.6681 35V26H100.054V35H98.6681ZM98.6681 24.02V22.4H100.054V24.02H98.6681ZM105.665 35.18C105.401 35.18 105.083 35.168 104.711 35.144C104.351 35.132 103.985 35.108 103.613 35.072C103.241 35.036 102.911 35.006 102.623 34.982V22.094H104.027V26.432C104.219 26.336 104.459 26.246 104.747 26.162C105.035 26.066 105.341 25.988 105.665 25.928C106.001 25.856 106.319 25.82 106.619 25.82C107.435 25.82 108.083 25.976 108.563 26.288C109.055 26.588 109.403 27.074 109.607 27.746C109.823 28.406 109.931 29.276 109.931 30.356C109.931 31.556 109.799 32.51 109.535 33.218C109.283 33.914 108.845 34.418 108.221 34.73C107.609 35.03 106.757 35.18 105.665 35.18ZM105.647 33.92C106.463 33.92 107.069 33.8 107.465 33.56C107.873 33.308 108.143 32.918 108.275 32.39C108.419 31.862 108.491 31.184 108.491 30.356C108.491 29.588 108.431 28.964 108.311 28.484C108.191 28.004 107.981 27.65 107.681 27.422C107.393 27.194 106.991 27.08 106.475 27.08C106.187 27.08 105.887 27.11 105.575 27.17C105.263 27.218 104.969 27.284 104.693 27.368C104.429 27.44 104.207 27.512 104.027 27.584V33.83C104.279 33.854 104.567 33.878 104.891 33.902C105.227 33.914 105.479 33.92 105.647 33.92ZM115.319 35.18C114.419 35.18 113.705 35.006 113.177 34.658C112.661 34.31 112.289 33.794 112.061 33.11C111.833 32.426 111.719 31.574 111.719 30.554C111.719 29.414 111.875 28.502 112.187 27.818C112.499 27.122 112.937 26.618 113.501 26.306C114.065 25.982 114.731 25.82 115.499 25.82C116.699 25.82 117.605 26.156 118.217 26.828C118.829 27.488 119.135 28.556 119.135 30.032L119.063 31.094H113.141C113.153 32.03 113.327 32.738 113.663 33.218C113.999 33.698 114.605 33.938 115.481 33.938C115.817 33.938 116.183 33.932 116.579 33.92C116.987 33.896 117.389 33.872 117.785 33.848C118.181 33.824 118.517 33.8 118.793 33.776L118.829 34.874C118.541 34.922 118.187 34.97 117.767 35.018C117.359 35.066 116.939 35.102 116.507 35.126C116.075 35.162 115.679 35.18 115.319 35.18ZM113.141 29.96H117.731C117.731 28.856 117.551 28.088 117.191 27.656C116.843 27.212 116.279 26.99 115.499 26.99C114.995 26.99 114.569 27.092 114.221 27.296C113.873 27.488 113.603 27.8 113.411 28.232C113.231 28.664 113.141 29.24 113.141 29.96ZM121.221 35V26H122.607V27.206C122.835 27.05 123.123 26.882 123.471 26.702C123.819 26.51 124.203 26.33 124.623 26.162C125.043 25.994 125.463 25.874 125.883 25.802V27.224C125.475 27.308 125.061 27.422 124.641 27.566C124.221 27.698 123.831 27.842 123.471 27.998C123.123 28.154 122.835 28.292 122.607 28.412V35H121.221ZM130.269 35.18C129.993 35.18 129.657 35.162 129.261 35.126C128.877 35.09 128.493 35.048 128.109 35C127.725 34.94 127.383 34.886 127.083 34.838L127.155 33.632C127.455 33.668 127.791 33.71 128.163 33.758C128.547 33.806 128.919 33.848 129.279 33.884C129.639 33.908 129.927 33.92 130.143 33.92C130.635 33.92 131.043 33.878 131.367 33.794C131.691 33.698 131.937 33.542 132.105 33.326C132.273 33.11 132.357 32.804 132.357 32.408C132.357 32.108 132.291 31.874 132.159 31.706C132.039 31.538 131.805 31.4 131.457 31.292C131.121 31.184 130.629 31.082 129.981 30.986C129.309 30.878 128.745 30.746 128.289 30.59C127.845 30.422 127.515 30.176 127.299 29.852C127.083 29.528 126.975 29.066 126.975 28.466C126.975 27.794 127.131 27.266 127.443 26.882C127.755 26.498 128.157 26.228 128.649 26.072C129.153 25.904 129.675 25.82 130.215 25.82C130.551 25.82 130.917 25.838 131.313 25.874C131.721 25.91 132.117 25.958 132.501 26.018C132.885 26.066 133.215 26.114 133.491 26.162L133.455 27.368C133.167 27.32 132.831 27.278 132.447 27.242C132.063 27.194 131.679 27.158 131.295 27.134C130.911 27.098 130.575 27.08 130.287 27.08C129.927 27.08 129.603 27.122 129.315 27.206C129.027 27.278 128.799 27.41 128.631 27.602C128.463 27.794 128.379 28.064 128.379 28.412C128.379 28.676 128.439 28.892 128.559 29.06C128.679 29.216 128.907 29.348 129.243 29.456C129.579 29.564 130.065 29.672 130.701 29.78C131.445 29.9 132.039 30.05 132.483 30.23C132.939 30.41 133.269 30.662 133.473 30.986C133.677 31.31 133.779 31.766 133.779 32.354C133.779 33.05 133.635 33.608 133.347 34.028C133.071 34.436 132.669 34.73 132.141 34.91C131.625 35.09 131.001 35.18 130.269 35.18Z" fill="white"/>
</svg>
