<svg width="155" height="39" viewBox="0 0 155 39" fill="none" xmlns="http://www.w3.org/2000/svg">
<path d="M21.0974 13V1.858H17.2994V0.561999H26.2994V1.858H22.5374V13H21.0974ZM27.836 13V0.0939999H29.222V4.486C29.438 4.39 29.696 4.294 29.996 4.198C30.308 4.09 30.638 4 30.986 3.928C31.334 3.856 31.664 3.82 31.976 3.82C32.6 3.82 33.11 3.904 33.506 4.072C33.902 4.228 34.208 4.486 34.424 4.846C34.652 5.194 34.808 5.65 34.892 6.214C34.976 6.766 35.018 7.438 35.018 8.23V13H33.614V8.284C33.614 7.504 33.566 6.88 33.47 6.412C33.386 5.944 33.212 5.608 32.948 5.404C32.684 5.188 32.276 5.08 31.724 5.08C31.424 5.08 31.112 5.11 30.788 5.17C30.476 5.218 30.182 5.284 29.906 5.368C29.63 5.452 29.402 5.53 29.222 5.602V13H27.836ZM40.7076 13.18C39.8076 13.18 39.0936 13.006 38.5656 12.658C38.0496 12.31 37.6776 11.794 37.4496 11.11C37.2216 10.426 37.1076 9.574 37.1076 8.554C37.1076 7.414 37.2636 6.502 37.5756 5.818C37.8876 5.122 38.3256 4.618 38.8896 4.306C39.4536 3.982 40.1196 3.82 40.8876 3.82C42.0876 3.82 42.9936 4.156 43.6056 4.828C44.2176 5.488 44.5236 6.556 44.5236 8.032L44.4516 9.094H38.5296C38.5416 10.03 38.7156 10.738 39.0516 11.218C39.3876 11.698 39.9936 11.938 40.8696 11.938C41.2056 11.938 41.5716 11.932 41.9676 11.92C42.3756 11.896 42.7776 11.872 43.1736 11.848C43.5696 11.824 43.9056 11.8 44.1816 11.776L44.2176 12.874C43.9296 12.922 43.5756 12.97 43.1556 13.018C42.7476 13.066 42.3276 13.102 41.8956 13.126C41.4636 13.162 41.0676 13.18 40.7076 13.18ZM38.5296 7.96H43.1196C43.1196 6.856 42.9396 6.088 42.5796 5.656C42.2316 5.212 41.6676 4.99 40.8876 4.99C40.3836 4.99 39.9576 5.092 39.6096 5.296C39.2616 5.488 38.9916 5.8 38.7996 6.232C38.6196 6.664 38.5296 7.24 38.5296 7.96ZM50.7806 13V0.561999H58.2506V1.84H52.2206V6.628H57.3146V7.906H52.2206V13H50.7806ZM60.0392 13V4H61.4252V13H60.0392ZM60.0392 2.02V0.399999H61.4252V2.02H60.0392ZM64.0118 13V4H65.3978V5.206C65.6258 5.05 65.9138 4.882 66.2618 4.702C66.6098 4.51 66.9938 4.33 67.4138 4.162C67.8338 3.994 68.2538 3.874 68.6738 3.802V5.224C68.2658 5.308 67.8518 5.422 67.4318 5.566C67.0118 5.698 66.6218 5.842 66.2618 5.998C65.9138 6.154 65.6258 6.292 65.3978 6.412V13H64.0118ZM73.0601 13.18C72.7841 13.18 72.4481 13.162 72.0521 13.126C71.6681 13.09 71.2841 13.048 70.9001 13C70.5161 12.94 70.1741 12.886 69.8741 12.838L69.9461 11.632C70.2461 11.668 70.5821 11.71 70.9541 11.758C71.3381 11.806 71.7101 11.848 72.0701 11.884C72.4301 11.908 72.7181 11.92 72.9341 11.92C73.4261 11.92 73.8341 11.878 74.1581 11.794C74.4821 11.698 74.7281 11.542 74.8961 11.326C75.0641 11.11 75.1481 10.804 75.1481 10.408C75.1481 10.108 75.0821 9.874 74.9501 9.706C74.8301 9.538 74.5961 9.4 74.2481 9.292C73.9121 9.184 73.4201 9.082 72.7721 8.986C72.1001 8.878 71.5361 8.746 71.0801 8.59C70.6361 8.422 70.3061 8.176 70.0901 7.852C69.8741 7.528 69.7661 7.066 69.7661 6.466C69.7661 5.794 69.9221 5.266 70.2341 4.882C70.5461 4.498 70.9481 4.228 71.4401 4.072C71.9441 3.904 72.4661 3.82 73.0061 3.82C73.3421 3.82 73.7081 3.838 74.1041 3.874C74.5121 3.91 74.9081 3.958 75.2921 4.018C75.6761 4.066 76.0061 4.114 76.2821 4.162L76.2461 5.368C75.9581 5.32 75.6221 5.278 75.2381 5.242C74.8541 5.194 74.4701 5.158 74.0861 5.134C73.7021 5.098 73.3661 5.08 73.0781 5.08C72.7181 5.08 72.3941 5.122 72.1061 5.206C71.8181 5.278 71.5901 5.41 71.4221 5.602C71.2541 5.794 71.1701 6.064 71.1701 6.412C71.1701 6.676 71.2301 6.892 71.3501 7.06C71.4701 7.216 71.6981 7.348 72.0341 7.456C72.3701 7.564 72.8561 7.672 73.4921 7.78C74.2361 7.9 74.8301 8.05 75.2741 8.23C75.7301 8.41 76.0601 8.662 76.2641 8.986C76.4681 9.31 76.5701 9.766 76.5701 10.354C76.5701 11.05 76.4261 11.608 76.1381 12.028C75.8621 12.436 75.4601 12.73 74.9321 12.91C74.4161 13.09 73.7921 13.18 73.0601 13.18ZM81.5888 13.198C80.9648 13.198 80.4668 13.102 80.0948 12.91C79.7348 12.718 79.4768 12.388 79.3208 11.92C79.1648 11.44 79.0868 10.768 79.0868 9.904V5.206H77.8088V4H79.0868V1.246H80.4728V4H83.2988V5.206H80.4728V9.49C80.4728 10.126 80.4968 10.624 80.5448 10.984C80.6048 11.332 80.7248 11.578 80.9048 11.722C81.0848 11.866 81.3668 11.938 81.7508 11.938C81.8708 11.938 82.0268 11.932 82.2188 11.92C82.4108 11.908 82.6028 11.896 82.7948 11.884C82.9988 11.86 83.1788 11.842 83.3348 11.83L83.4248 13C83.2568 13.024 83.0588 13.048 82.8308 13.072C82.6028 13.108 82.3748 13.138 82.1468 13.162C81.9308 13.186 81.7448 13.198 81.5888 13.198ZM89.1184 13V0.561999H91.7284L95.1664 11.002L98.6224 0.561999H101.232V13H99.7924V2.092H99.5224L95.9764 12.55H94.3744L90.8284 2.092H90.5584V13H89.1184ZM107.405 13.18C106.397 13.18 105.611 13.006 105.047 12.658C104.495 12.31 104.105 11.782 103.877 11.074C103.661 10.366 103.553 9.472 103.553 8.392C103.553 7.36 103.673 6.508 103.913 5.836C104.165 5.164 104.573 4.66 105.137 4.324C105.701 3.988 106.457 3.82 107.405 3.82C108.365 3.82 109.127 3.988 109.691 4.324C110.255 4.66 110.657 5.164 110.897 5.836C111.149 6.508 111.275 7.36 111.275 8.392C111.275 9.472 111.161 10.366 110.933 11.074C110.717 11.782 110.327 12.31 109.763 12.658C109.211 13.006 108.425 13.18 107.405 13.18ZM107.405 11.974C108.101 11.974 108.623 11.854 108.971 11.614C109.319 11.362 109.547 10.972 109.655 10.444C109.775 9.916 109.835 9.232 109.835 8.392C109.835 7.564 109.763 6.904 109.619 6.412C109.475 5.92 109.229 5.566 108.881 5.35C108.533 5.134 108.041 5.026 107.405 5.026C106.781 5.026 106.289 5.134 105.929 5.35C105.581 5.566 105.335 5.92 105.191 6.412C105.047 6.904 104.975 7.564 104.975 8.392C104.975 9.232 105.029 9.916 105.137 10.444C105.257 10.972 105.491 11.362 105.839 11.614C106.187 11.854 106.709 11.974 107.405 11.974ZM116.501 13.18C116.237 13.18 115.919 13.168 115.547 13.144C115.187 13.132 114.821 13.108 114.449 13.072C114.077 13.036 113.747 13.006 113.459 12.982V0.0939999H114.863V4.432C115.055 4.336 115.295 4.246 115.583 4.162C115.871 4.066 116.177 3.988 116.501 3.928C116.837 3.856 117.155 3.82 117.455 3.82C118.271 3.82 118.919 3.976 119.399 4.288C119.891 4.588 120.239 5.074 120.443 5.746C120.659 6.406 120.767 7.276 120.767 8.356C120.767 9.556 120.635 10.51 120.371 11.218C120.119 11.914 119.681 12.418 119.057 12.73C118.445 13.03 117.593 13.18 116.501 13.18ZM116.483 11.92C117.299 11.92 117.905 11.8 118.301 11.56C118.709 11.308 118.979 10.918 119.111 10.39C119.255 9.862 119.327 9.184 119.327 8.356C119.327 7.588 119.267 6.964 119.147 6.484C119.027 6.004 118.817 5.65 118.517 5.422C118.229 5.194 117.827 5.08 117.311 5.08C117.023 5.08 116.723 5.11 116.411 5.17C116.099 5.218 115.805 5.284 115.529 5.368C115.265 5.44 115.043 5.512 114.863 5.584V11.83C115.115 11.854 115.403 11.878 115.727 11.902C116.063 11.914 116.315 11.92 116.483 11.92ZM122.969 13V4H124.355V13H122.969ZM122.969 2.02V0.399999H124.355V2.02H122.969ZM127.05 13V0.0939999H128.436V13H127.05ZM134.329 13.18C133.429 13.18 132.715 13.006 132.187 12.658C131.671 12.31 131.299 11.794 131.071 11.11C130.843 10.426 130.729 9.574 130.729 8.554C130.729 7.414 130.885 6.502 131.197 5.818C131.509 5.122 131.947 4.618 132.511 4.306C133.075 3.982 133.741 3.82 134.509 3.82C135.709 3.82 136.615 4.156 137.227 4.828C137.839 5.488 138.145 6.556 138.145 8.032L138.073 9.094H132.151C132.163 10.03 132.337 10.738 132.673 11.218C133.009 11.698 133.615 11.938 134.491 11.938C134.827 11.938 135.193 11.932 135.589 11.92C135.997 11.896 136.399 11.872 136.795 11.848C137.191 11.824 137.527 11.8 137.803 11.776L137.839 12.874C137.551 12.922 137.197 12.97 136.777 13.018C136.369 13.066 135.949 13.102 135.517 13.126C135.085 13.162 134.689 13.18 134.329 13.18ZM132.151 7.96H136.741C136.741 6.856 136.561 6.088 136.201 5.656C135.853 5.212 135.289 4.99 134.509 4.99C134.005 4.99 133.579 5.092 133.231 5.296C132.883 5.488 132.613 5.8 132.421 6.232C132.241 6.664 132.151 7.24 132.151 7.96ZM5.85797 35.18C4.56197 35.18 3.55397 34.94 2.83397 34.46C2.12597 33.98 1.62797 33.272 1.33997 32.336C1.06397 31.388 0.925969 30.224 0.925969 28.844C0.925969 27.464 1.06997 26.294 1.35797 25.334C1.64597 24.374 2.14397 23.642 2.85197 23.138C3.57197 22.622 4.57397 22.364 5.85797 22.364C7.14197 22.364 8.13797 22.616 8.84597 23.12C9.56597 23.624 10.07 24.362 10.358 25.334C10.646 26.294 10.79 27.464 10.79 28.844C10.79 30.26 10.646 31.442 10.358 32.39C10.082 33.326 9.58397 34.028 8.86397 34.496C8.15597 34.952 7.15397 35.18 5.85797 35.18ZM5.85797 33.902C6.80597 33.902 7.52597 33.722 8.01797 33.362C8.50997 33.002 8.84597 32.45 9.02597 31.706C9.20597 30.95 9.29597 29.996 9.29597 28.844C9.29597 27.728 9.19997 26.786 9.00797 26.018C8.82797 25.238 8.49197 24.65 7.99997 24.254C7.50797 23.846 6.79397 23.642 5.85797 23.642C4.92197 23.642 4.20797 23.846 3.71597 24.254C3.22397 24.65 2.88197 25.232 2.68997 26C2.50997 26.768 2.41997 27.716 2.41997 28.844C2.41997 29.96 2.50997 30.896 2.68997 31.652C2.86997 32.396 3.20597 32.96 3.69797 33.344C4.18997 33.716 4.90997 33.902 5.85797 33.902ZM13.0968 38.978V26H14.4828V26.648C14.6748 26.528 14.9148 26.408 15.2028 26.288C15.5028 26.156 15.8208 26.048 16.1568 25.964C16.4928 25.868 16.8168 25.82 17.1288 25.82C17.8968 25.82 18.5208 25.982 19.0008 26.306C19.4808 26.618 19.8348 27.11 20.0628 27.782C20.3028 28.454 20.4228 29.324 20.4228 30.392C20.4228 31.568 20.2848 32.51 20.0088 33.218C19.7448 33.914 19.3188 34.418 18.7308 34.73C18.1548 35.03 17.4048 35.18 16.4808 35.18C16.1088 35.18 15.7308 35.156 15.3468 35.108C14.9748 35.06 14.6868 35.018 14.4828 34.982V38.978H13.0968ZM16.4088 33.956C17.0568 33.956 17.5668 33.836 17.9388 33.596C18.3228 33.356 18.5928 32.978 18.7488 32.462C18.9048 31.934 18.9828 31.244 18.9828 30.392C18.9828 29.18 18.8028 28.328 18.4428 27.836C18.0828 27.332 17.5788 27.08 16.9308 27.08C16.6428 27.08 16.3428 27.116 16.0308 27.188C15.7308 27.26 15.4428 27.35 15.1668 27.458C14.8908 27.554 14.6628 27.656 14.4828 27.764V33.776C14.6748 33.8 14.9568 33.836 15.3288 33.884C15.7008 33.932 16.0608 33.956 16.4088 33.956ZM25.7925 35.18C24.8925 35.18 24.1785 35.006 23.6505 34.658C23.1345 34.31 22.7625 33.794 22.5345 33.11C22.3065 32.426 22.1925 31.574 22.1925 30.554C22.1925 29.414 22.3485 28.502 22.6605 27.818C22.9725 27.122 23.4105 26.618 23.9745 26.306C24.5385 25.982 25.2045 25.82 25.9725 25.82C27.1725 25.82 28.0785 26.156 28.6905 26.828C29.3025 27.488 29.6085 28.556 29.6085 30.032L29.5365 31.094H23.6145C23.6265 32.03 23.8005 32.738 24.1365 33.218C24.4725 33.698 25.0785 33.938 25.9545 33.938C26.2905 33.938 26.6565 33.932 27.0525 33.92C27.4605 33.896 27.8625 33.872 28.2585 33.848C28.6545 33.824 28.9905 33.8 29.2665 33.776L29.3025 34.874C29.0145 34.922 28.6605 34.97 28.2405 35.018C27.8325 35.066 27.4125 35.102 26.9805 35.126C26.5485 35.162 26.1525 35.18 25.7925 35.18ZM23.6145 29.96H28.2045C28.2045 28.856 28.0245 28.088 27.6645 27.656C27.3165 27.212 26.7525 26.99 25.9725 26.99C25.4685 26.99 25.0425 27.092 24.6945 27.296C24.3465 27.488 24.0765 27.8 23.8845 28.232C23.7045 28.664 23.6145 29.24 23.6145 29.96ZM31.6944 35V26H33.0804V27.206C33.3084 27.05 33.5964 26.882 33.9444 26.702C34.2924 26.51 34.6764 26.33 35.0964 26.162C35.5164 25.994 35.9364 25.874 36.3564 25.802V27.224C35.9484 27.308 35.5344 27.422 35.1144 27.566C34.6944 27.698 34.3044 27.842 33.9444 27.998C33.5964 28.154 33.3084 28.292 33.0804 28.412V35H31.6944ZM39.8967 35.18C39.0687 35.18 38.4387 34.946 38.0067 34.478C37.5747 34.01 37.3587 33.326 37.3587 32.426C37.3587 31.838 37.4607 31.358 37.6647 30.986C37.8687 30.614 38.1747 30.332 38.5827 30.14C39.0027 29.936 39.5187 29.81 40.1307 29.762L42.9027 29.492V28.718C42.9027 28.106 42.7647 27.674 42.4887 27.422C42.2247 27.17 41.8287 27.044 41.3007 27.044C41.0007 27.044 40.6407 27.056 40.2207 27.08C39.8127 27.104 39.4047 27.134 38.9967 27.17C38.5887 27.206 38.2287 27.242 37.9167 27.278L37.8447 26.216C38.1327 26.156 38.4807 26.096 38.8887 26.036C39.2967 25.976 39.7227 25.928 40.1667 25.892C40.6107 25.844 41.0187 25.82 41.3907 25.82C42.0747 25.82 42.6327 25.928 43.0647 26.144C43.4967 26.348 43.8087 26.666 44.0007 27.098C44.2047 27.518 44.3067 28.058 44.3067 28.718V33.272C44.3307 33.536 44.4327 33.728 44.6127 33.848C44.8047 33.968 45.0447 34.046 45.3327 34.082L45.2787 35.18C45.1107 35.18 44.9487 35.174 44.7927 35.162C44.6367 35.15 44.4867 35.126 44.3427 35.09C44.2107 35.066 44.0787 35.036 43.9467 35C43.7907 34.94 43.6407 34.868 43.4967 34.784C43.3647 34.7 43.2327 34.598 43.1007 34.478C42.8727 34.574 42.5787 34.676 42.2187 34.784C41.8707 34.892 41.4927 34.982 41.0847 35.054C40.6887 35.138 40.2927 35.18 39.8967 35.18ZM40.1307 34.01C40.4547 34.01 40.7907 33.98 41.1387 33.92C41.4867 33.86 41.8167 33.788 42.1287 33.704C42.4407 33.62 42.6987 33.542 42.9027 33.47V30.536L40.2927 30.788C39.7527 30.836 39.3627 30.992 39.1227 31.256C38.8947 31.52 38.7807 31.898 38.7807 32.39C38.7807 32.894 38.8947 33.29 39.1227 33.578C39.3507 33.866 39.6867 34.01 40.1307 34.01ZM49.8164 35.198C49.1924 35.198 48.6944 35.102 48.3224 34.91C47.9624 34.718 47.7044 34.388 47.5484 33.92C47.3924 33.44 47.3144 32.768 47.3144 31.904V27.206H46.0364V26H47.3144V23.246H48.7004V26H51.5264V27.206H48.7004V31.49C48.7004 32.126 48.7244 32.624 48.7724 32.984C48.8324 33.332 48.9524 33.578 49.1324 33.722C49.3124 33.866 49.5944 33.938 49.9784 33.938C50.0984 33.938 50.2544 33.932 50.4464 33.92C50.6384 33.908 50.8304 33.896 51.0224 33.884C51.2264 33.86 51.4064 33.842 51.5624 33.83L51.6524 35C51.4844 35.024 51.2864 35.048 51.0584 35.072C50.8304 35.108 50.6024 35.138 50.3744 35.162C50.1584 35.186 49.9724 35.198 49.8164 35.198ZM56.6309 35.18C55.6229 35.18 54.8369 35.006 54.2729 34.658C53.7209 34.31 53.3309 33.782 53.1029 33.074C52.8869 32.366 52.7789 31.472 52.7789 30.392C52.7789 29.36 52.8989 28.508 53.1389 27.836C53.3909 27.164 53.7989 26.66 54.3629 26.324C54.9269 25.988 55.6829 25.82 56.6309 25.82C57.5909 25.82 58.3529 25.988 58.9169 26.324C59.4809 26.66 59.8829 27.164 60.1229 27.836C60.3749 28.508 60.5009 29.36 60.5009 30.392C60.5009 31.472 60.3869 32.366 60.1589 33.074C59.9429 33.782 59.5529 34.31 58.9889 34.658C58.4369 35.006 57.6509 35.18 56.6309 35.18ZM56.6309 33.974C57.3269 33.974 57.8489 33.854 58.1969 33.614C58.5449 33.362 58.7729 32.972 58.8809 32.444C59.0009 31.916 59.0609 31.232 59.0609 30.392C59.0609 29.564 58.9889 28.904 58.8449 28.412C58.7009 27.92 58.4549 27.566 58.1069 27.35C57.7589 27.134 57.2669 27.026 56.6309 27.026C56.0069 27.026 55.5149 27.134 55.1549 27.35C54.8069 27.566 54.5609 27.92 54.4169 28.412C54.2729 28.904 54.2009 29.564 54.2009 30.392C54.2009 31.232 54.2549 31.916 54.3629 32.444C54.4829 32.972 54.7169 33.362 55.0649 33.614C55.4129 33.854 55.9349 33.974 56.6309 33.974ZM62.7023 35V26H64.0883V27.206C64.3163 27.05 64.6043 26.882 64.9523 26.702C65.3003 26.51 65.6843 26.33 66.1043 26.162C66.5243 25.994 66.9443 25.874 67.3643 25.802V27.224C66.9563 27.308 66.5423 27.422 66.1223 27.566C65.7023 27.698 65.3123 27.842 64.9523 27.998C64.6043 28.154 64.3163 28.292 64.0883 28.412V35H62.7023ZM76.5156 35.162C76.1556 35.162 75.7356 35.138 75.2556 35.09C74.7756 35.054 74.2956 35.006 73.8156 34.946C73.3476 34.874 72.9336 34.814 72.5736 34.766L72.7176 33.578C73.0656 33.614 73.4676 33.656 73.9236 33.704C74.3916 33.752 74.8476 33.794 75.2916 33.83C75.7476 33.866 76.1316 33.884 76.4436 33.884C77.0316 33.884 77.5176 33.8 77.9016 33.632C78.2856 33.452 78.5736 33.182 78.7656 32.822C78.9576 32.462 79.0536 32 79.0536 31.436C79.0536 30.98 78.9636 30.62 78.7836 30.356C78.6156 30.08 78.3276 29.864 77.9196 29.708C77.5236 29.54 76.9896 29.39 76.3176 29.258C75.6696 29.126 75.1056 28.976 74.6256 28.808C74.1456 28.64 73.7436 28.43 73.4196 28.178C73.0956 27.914 72.8556 27.584 72.6996 27.188C72.5436 26.792 72.4656 26.3 72.4656 25.712C72.4656 24.908 72.6276 24.26 72.9516 23.768C73.2876 23.276 73.7556 22.916 74.3556 22.688C74.9676 22.46 75.6756 22.346 76.4796 22.346C76.8396 22.346 77.2476 22.37 77.7036 22.418C78.1716 22.454 78.6276 22.502 79.0716 22.562C79.5276 22.61 79.9176 22.664 80.2416 22.724L80.1156 23.93C79.7676 23.882 79.3656 23.84 78.9096 23.804C78.4536 23.756 78.0156 23.714 77.5956 23.678C77.1756 23.642 76.8396 23.624 76.5876 23.624C76.0116 23.624 75.5256 23.696 75.1296 23.84C74.7336 23.984 74.4336 24.206 74.2296 24.506C74.0256 24.794 73.9236 25.166 73.9236 25.622C73.9236 26.15 74.0196 26.552 74.2116 26.828C74.4156 27.104 74.7396 27.32 75.1836 27.476C75.6276 27.632 76.2096 27.794 76.9296 27.962C77.5536 28.106 78.0876 28.262 78.5316 28.43C78.9876 28.598 79.3596 28.808 79.6476 29.06C79.9476 29.3 80.1636 29.606 80.2956 29.978C80.4396 30.338 80.5116 30.788 80.5116 31.328C80.5116 32.24 80.3496 32.978 80.0256 33.542C79.7016 34.106 79.2396 34.52 78.6396 34.784C78.0396 35.036 77.3316 35.162 76.5156 35.162ZM82.6534 35V26H84.0394V35H82.6534ZM82.6534 24.02V22.4H84.0394V24.02H82.6534ZM86.6261 35V26H88.0121V26.63C88.2161 26.51 88.4681 26.39 88.7681 26.27C89.0801 26.15 89.4101 26.048 89.7581 25.964C90.1061 25.868 90.4421 25.82 90.7661 25.82C91.3901 25.82 91.9001 25.904 92.2961 26.072C92.6921 26.228 92.9981 26.486 93.2141 26.846C93.4421 27.194 93.5981 27.65 93.6821 28.214C93.7781 28.766 93.8261 29.438 93.8261 30.23V35H92.4221V30.284C92.4221 29.504 92.3741 28.88 92.2781 28.412C92.1941 27.944 92.0141 27.608 91.7381 27.404C91.4741 27.188 91.0661 27.08 90.5141 27.08C90.2141 27.08 89.9021 27.116 89.5781 27.188C89.2661 27.248 88.9721 27.332 88.6961 27.44C88.4201 27.536 88.1921 27.632 88.0121 27.728V35H86.6261ZM99.6416 35.18C98.6936 35.18 97.9496 35.024 97.4096 34.712C96.8696 34.388 96.4856 33.872 96.2576 33.164C96.0416 32.456 95.9336 31.52 95.9336 30.356C95.9336 29.264 96.0536 28.388 96.2936 27.728C96.5456 27.056 96.9476 26.57 97.4996 26.27C98.0516 25.97 98.7716 25.82 99.6596 25.82C99.8636 25.82 100.11 25.838 100.398 25.874C100.698 25.898 101.004 25.934 101.316 25.982C101.628 26.018 101.898 26.054 102.126 26.09L102.072 27.242C101.868 27.218 101.634 27.194 101.37 27.17C101.106 27.146 100.848 27.128 100.596 27.116C100.344 27.092 100.134 27.08 99.9656 27.08C99.2816 27.08 98.7476 27.188 98.3636 27.404C97.9916 27.62 97.7276 27.968 97.5716 28.448C97.4276 28.916 97.3556 29.552 97.3556 30.356C97.3556 31.232 97.4216 31.934 97.5536 32.462C97.6856 32.978 97.9376 33.35 98.3096 33.578C98.6816 33.806 99.2336 33.92 99.9656 33.92C100.134 33.92 100.344 33.914 100.596 33.902C100.86 33.878 101.124 33.854 101.388 33.83C101.664 33.806 101.904 33.788 102.108 33.776L102.144 34.928C101.904 34.964 101.628 35 101.316 35.036C101.004 35.072 100.698 35.102 100.398 35.126C100.098 35.162 99.8456 35.18 99.6416 35.18ZM107.232 35.18C106.332 35.18 105.618 35.006 105.09 34.658C104.574 34.31 104.202 33.794 103.974 33.11C103.746 32.426 103.632 31.574 103.632 30.554C103.632 29.414 103.788 28.502 104.1 27.818C104.412 27.122 104.85 26.618 105.414 26.306C105.978 25.982 106.644 25.82 107.412 25.82C108.612 25.82 109.518 26.156 110.13 26.828C110.742 27.488 111.048 28.556 111.048 30.032L110.976 31.094H105.054C105.066 32.03 105.24 32.738 105.576 33.218C105.912 33.698 106.518 33.938 107.394 33.938C107.73 33.938 108.096 33.932 108.492 33.92C108.9 33.896 109.302 33.872 109.698 33.848C110.094 33.824 110.43 33.8 110.706 33.776L110.742 34.874C110.454 34.922 110.1 34.97 109.68 35.018C109.272 35.066 108.852 35.102 108.42 35.126C107.988 35.162 107.592 35.18 107.232 35.18ZM105.054 29.96H109.644C109.644 28.856 109.464 28.088 109.104 27.656C108.756 27.212 108.192 26.99 107.412 26.99C106.908 26.99 106.482 27.092 106.134 27.296C105.786 27.488 105.516 27.8 105.324 28.232C105.144 28.664 105.054 29.24 105.054 29.96ZM121.373 35V24.722L118.349 26.738L117.683 25.64L121.463 23.12H122.813V35H121.373ZM130.311 35.18C129.951 35.18 129.567 35.162 129.159 35.126C128.751 35.09 128.361 35.048 127.989 35C127.617 34.952 127.299 34.904 127.035 34.856L127.179 33.686C127.419 33.71 127.713 33.74 128.061 33.776C128.409 33.812 128.781 33.842 129.177 33.866C129.573 33.89 129.951 33.902 130.311 33.902C131.379 33.902 132.177 33.572 132.705 32.912C133.245 32.24 133.521 31.214 133.533 29.834C133.233 29.942 132.903 30.05 132.543 30.158C132.183 30.266 131.823 30.356 131.463 30.428C131.115 30.488 130.791 30.518 130.491 30.518C129.243 30.518 128.283 30.224 127.611 29.636C126.939 29.048 126.603 28.13 126.603 26.882C126.603 26.066 126.771 25.364 127.107 24.776C127.443 24.188 127.917 23.738 128.529 23.426C129.153 23.102 129.885 22.94 130.725 22.94C131.733 22.94 132.549 23.192 133.173 23.696C133.809 24.188 134.277 24.896 134.577 25.82C134.877 26.744 135.027 27.836 135.027 29.096C135.027 30.248 134.919 31.214 134.703 31.994C134.487 32.774 134.175 33.398 133.767 33.866C133.371 34.334 132.879 34.67 132.291 34.874C131.715 35.078 131.055 35.18 130.311 35.18ZM130.617 29.24C130.917 29.24 131.247 29.204 131.607 29.132C131.967 29.06 132.321 28.976 132.669 28.88C133.017 28.772 133.311 28.676 133.551 28.592C133.539 27.74 133.437 26.99 133.245 26.342C133.065 25.682 132.771 25.166 132.363 24.794C131.955 24.41 131.409 24.218 130.725 24.218C129.909 24.218 129.261 24.458 128.781 24.938C128.313 25.418 128.079 26.066 128.079 26.882C128.079 27.698 128.295 28.298 128.727 28.682C129.159 29.054 129.789 29.24 130.617 29.24ZM140.384 35.18C140.024 35.18 139.64 35.162 139.232 35.126C138.824 35.09 138.434 35.048 138.062 35C137.69 34.952 137.372 34.904 137.108 34.856L137.252 33.686C137.492 33.71 137.786 33.74 138.134 33.776C138.482 33.812 138.854 33.842 139.25 33.866C139.646 33.89 140.024 33.902 140.384 33.902C141.452 33.902 142.25 33.572 142.778 32.912C143.318 32.24 143.594 31.214 143.606 29.834C143.306 29.942 142.976 30.05 142.616 30.158C142.256 30.266 141.896 30.356 141.536 30.428C141.188 30.488 140.864 30.518 140.563 30.518C139.316 30.518 138.356 30.224 137.684 29.636C137.012 29.048 136.676 28.13 136.676 26.882C136.676 26.066 136.844 25.364 137.18 24.776C137.516 24.188 137.99 23.738 138.602 23.426C139.226 23.102 139.958 22.94 140.798 22.94C141.806 22.94 142.622 23.192 143.246 23.696C143.882 24.188 144.35 24.896 144.65 25.82C144.95 26.744 145.1 27.836 145.1 29.096C145.1 30.248 144.992 31.214 144.776 31.994C144.56 32.774 144.248 33.398 143.84 33.866C143.444 34.334 142.952 34.67 142.364 34.874C141.788 35.078 141.128 35.18 140.384 35.18ZM140.689 29.24C140.99 29.24 141.32 29.204 141.68 29.132C142.04 29.06 142.394 28.976 142.742 28.88C143.09 28.772 143.384 28.676 143.624 28.592C143.612 27.74 143.51 26.99 143.318 26.342C143.138 25.682 142.844 25.166 142.436 24.794C142.028 24.41 141.482 24.218 140.798 24.218C139.982 24.218 139.334 24.458 138.854 24.938C138.386 25.418 138.152 26.066 138.152 26.882C138.152 27.698 138.368 28.298 138.8 28.682C139.232 29.054 139.862 29.24 140.689 29.24ZM151.014 35.18C150.558 35.18 150.084 35.15 149.592 35.09C149.1 35.042 148.638 34.982 148.206 34.91C147.774 34.838 147.414 34.766 147.126 34.694L147.252 33.524C147.528 33.572 147.87 33.626 148.278 33.686C148.686 33.746 149.118 33.8 149.574 33.848C150.03 33.884 150.462 33.902 150.87 33.902C151.734 33.902 152.37 33.716 152.778 33.344C153.198 32.96 153.408 32.396 153.408 31.652C153.408 31.112 153.3 30.686 153.084 30.374C152.868 30.062 152.574 29.834 152.202 29.69C151.842 29.546 151.44 29.468 150.996 29.456H148.602V28.214H150.996C151.296 28.214 151.608 28.13 151.932 27.962C152.268 27.794 152.55 27.554 152.778 27.242C153.006 26.918 153.12 26.534 153.12 26.09C153.12 25.418 152.934 24.938 152.562 24.65C152.202 24.35 151.59 24.2 150.726 24.2C150.33 24.2 149.922 24.224 149.502 24.272C149.094 24.308 148.704 24.356 148.332 24.416C147.972 24.464 147.672 24.518 147.432 24.578L147.306 23.426C147.546 23.354 147.852 23.282 148.224 23.21C148.608 23.126 149.022 23.06 149.466 23.012C149.91 22.952 150.348 22.922 150.78 22.922C151.728 22.922 152.478 23.036 153.03 23.264C153.594 23.48 153.996 23.816 154.236 24.272C154.488 24.728 154.614 25.31 154.614 26.018C154.614 26.474 154.542 26.864 154.398 27.188C154.254 27.5 154.08 27.764 153.876 27.98C153.672 28.184 153.474 28.346 153.282 28.466C153.09 28.586 152.946 28.676 152.85 28.736C153.258 28.88 153.612 29.054 153.912 29.258C154.224 29.45 154.464 29.732 154.632 30.104C154.812 30.464 154.902 30.962 154.902 31.598C154.902 32.402 154.764 33.068 154.488 33.596C154.224 34.124 153.804 34.52 153.228 34.784C152.652 35.048 151.914 35.18 151.014 35.18Z" fill="white"/>
</svg>
