<svg preserveAspectRatio="none" width="100%" height="100%" overflow="visible" style="display: block;" viewBox="0 0 42 42" fill="none" xmlns="http://www.w3.org/2000/svg">
<g id="devices_other_24dp_E3E3E3_FILL0_wght300_GRAD0_opsz24 1">
<path id="Vector" d="M7.53856 34.125C6.65452 34.125 5.90625 33.8187 5.29375 33.2062C4.68125 32.5937 4.375 31.8455 4.375 30.9614V11.0386C4.375 10.1545 4.68125 9.40625 5.29375 8.79375C5.90625 8.18125 6.65452 7.875 7.53856 7.875H36.4809C36.8528 7.875 37.1645 8.00085 37.4159 8.25256C37.6673 8.50427 37.793 8.81606 37.793 9.18794C37.793 9.5601 37.6673 9.87175 37.4159 10.1229C37.1645 10.3743 36.8528 10.5 36.4809 10.5H7.53856C7.40381 10.5 7.28044 10.5561 7.16844 10.6684C7.05615 10.7804 7 10.9038 7 11.0386V30.9614C7 31.0962 7.05615 31.2196 7.16844 31.3316C7.28044 31.4439 7.40381 31.5 7.53856 31.5H10.0625C10.4344 31.5 10.7462 31.6259 10.9979 31.8776C11.2493 32.1293 11.375 32.4411 11.375 32.8129C11.375 33.1851 11.2493 33.4967 10.9979 33.7479C10.7462 33.9993 10.4344 34.125 10.0625 34.125H7.53856ZM35.1684 31.2139V17.584C35.1684 17.5055 35.1403 17.4383 35.084 17.3823C35.028 17.326 34.9608 17.2979 34.8823 17.2979H28.1177C28.0392 17.2979 27.972 17.326 27.916 17.3823C27.8597 17.4383 27.8316 17.5055 27.8316 17.584V31.2139C27.8316 31.2923 27.8597 31.3597 27.916 31.416C27.972 31.472 28.0392 31.5 28.1177 31.5H34.8823C34.9608 31.5 35.028 31.472 35.084 31.416C35.1403 31.3597 35.1684 31.2923 35.1684 31.2139ZM27.5796 34.125C26.9204 34.125 26.3601 33.8943 25.8987 33.4329C25.4376 32.9715 25.207 32.4113 25.207 31.7524V17.0459C25.207 16.3867 25.4376 15.8264 25.8987 15.365C26.3601 14.9039 26.9204 14.6733 27.5796 14.6733H35.4204C36.0796 14.6733 36.6399 14.9039 37.1013 15.365C37.5624 15.8264 37.793 16.3867 37.793 17.0459V31.7524C37.793 32.4113 37.5624 32.9715 37.1013 33.4329C36.6399 33.8943 36.0796 34.125 35.4204 34.125H27.5796ZM31.4969 21.875C31.8557 21.875 32.1535 21.7508 32.3903 21.5023C32.6269 21.254 32.7451 20.9643 32.7451 20.6329C32.7451 20.2742 32.6269 19.9764 32.3903 19.7396C32.1538 19.503 31.8547 19.3848 31.493 19.3848C31.1588 19.3848 30.8688 19.503 30.6233 19.7396C30.3777 19.9761 30.2549 20.2752 30.2549 20.6369C30.2549 20.9708 30.3791 21.2607 30.6276 21.5066C30.8758 21.7522 31.1656 21.875 31.4969 21.875ZM15.6861 32.9739L15.1948 31.2476C14.6631 30.7966 14.2469 30.2552 13.9462 29.6231C13.6455 28.9908 13.4951 28.3036 13.4951 27.5616C13.4951 26.8196 13.6455 26.1327 13.9462 25.501C14.2469 24.8695 14.6631 24.3284 15.1948 23.8774L15.6861 22.1511C15.7935 21.8069 15.9813 21.5291 16.2496 21.3176C16.518 21.1059 16.8338 21 17.1972 21H19.4184C19.7854 21 20.0999 21.1059 20.3621 21.3176C20.6243 21.5291 20.8078 21.8069 20.9125 22.1511L21.4209 23.8774C21.9526 24.3284 22.3686 24.8698 22.6691 25.5019C22.9698 26.1342 23.1201 26.8214 23.1201 27.5634C23.1201 28.3054 22.9698 28.9921 22.6691 29.6236C22.3686 30.2553 21.9526 30.7966 21.4209 31.2476L20.9125 32.9739C20.8078 33.3178 20.6243 33.5956 20.3621 33.8074C20.0999 34.0191 19.7854 34.125 19.4184 34.125H17.1972C16.8338 34.125 16.518 34.0191 16.2496 33.8074C15.9813 33.5956 15.7935 33.3178 15.6861 32.9739ZM18.3076 30.2886C19.0951 30.2886 19.7464 30.0234 20.2615 29.4932C20.7763 28.9632 21.0337 28.3197 21.0337 27.5625C21.0337 26.8053 20.7611 26.1616 20.216 25.6314C19.6709 25.1014 19.0347 24.8364 18.3076 24.8364C17.5808 24.8364 16.9448 25.094 16.3997 25.6091C15.8546 26.1239 15.582 26.775 15.582 27.5625C15.582 28.35 15.8394 29.0011 16.3542 29.5159C16.869 30.031 17.5201 30.2886 18.3076 30.2886Z" fill="var(--fill-0, #0095DA)"/>
</g>
</svg>
