<svg preserveAspectRatio="none" width="100%" height="100%" overflow="visible" style="display: block;" viewBox="0 0 39 39" fill="none" xmlns="http://www.w3.org/2000/svg">
<g id="agriculture_24dp_E3E3E3_FILL0_wght300_GRAD0_opsz24 1">
<path id="Vector" d="M6.25016 14.844C5.90484 14.844 5.61532 14.7271 5.38159 14.4934C5.14814 14.2596 5.03141 13.97 5.03141 13.6244C5.03141 13.2791 5.14814 12.9897 5.38159 12.7563C5.61532 12.5231 5.90484 12.4065 6.25016 12.4065H11.2186C11.9249 12.4065 12.539 12.6413 13.0609 13.1109C13.5828 13.5808 13.8854 14.1585 13.9685 14.844H6.25016ZM9.53103 29.4377C10.9375 29.4377 12.1328 28.9454 13.117 27.961C14.1015 26.9765 14.5937 25.7812 14.5937 24.375C14.5937 22.9688 14.1015 21.7735 13.117 20.789C12.1328 19.8046 10.9375 19.3123 9.53103 19.3123C8.12486 19.3123 6.92968 19.8046 5.94547 20.789C4.96099 21.7735 4.46875 22.9688 4.46875 24.375C4.46875 25.7812 4.96099 26.9765 5.94547 27.961C6.92968 28.9454 8.12486 29.4377 9.53103 29.4377ZM31.6875 29.4377C32.4689 29.4377 33.1381 29.159 33.6952 28.6016C34.2526 28.0443 34.5312 27.3749 34.5312 26.5935C34.5312 25.8124 34.2526 25.1432 33.6952 24.5858C33.1381 24.0285 32.4689 23.7498 31.6875 23.7498C30.9061 23.7498 30.2369 24.0285 29.6798 24.5858C29.1224 25.1432 28.8437 25.8124 28.8437 26.5935C28.8437 27.3749 29.1224 28.0443 29.6798 28.6016C30.2369 29.159 30.9061 29.4377 31.6875 29.4377ZM9.52737 26.5001C8.93615 26.5001 8.43483 26.293 8.02344 25.8789C7.61204 25.4651 7.40634 24.9626 7.40634 24.3713C7.40634 23.7801 7.61326 23.2788 8.02709 22.8674C8.44093 22.4557 8.94359 22.2499 9.53509 22.2499C10.1263 22.2499 10.6276 22.457 11.039 22.8711C11.4504 23.2849 11.6561 23.7874 11.6561 24.3787C11.6561 24.9699 11.4492 25.4712 11.0354 25.8826C10.6215 26.2943 10.1189 26.5001 9.52737 26.5001ZM32.4687 21.3533C32.9855 21.4573 33.4168 21.588 33.7626 21.7453C34.1082 21.9027 34.4894 22.1605 34.9062 22.5188V13.3124C34.9062 12.5048 34.6186 11.8133 34.0433 11.2381C33.4681 10.6628 32.7765 10.3752 31.9686 10.3752H22.6687L20.9625 8.58772L23.2375 6.31272L22.1 5.17522L16.3312 10.944L17.55 12.0815L19.825 9.80647L21.5312 11.5127V14.625C21.5312 15.6907 21.1518 16.603 20.3929 17.3619C19.6341 18.1208 18.7218 18.5002 17.656 18.5002H14.1623C14.6289 18.8667 15.005 19.2312 15.2904 19.5938C15.5759 19.9562 15.8718 20.404 16.1781 20.9373H17.656C19.4021 20.9373 20.8907 20.3217 22.1219 19.0905C23.3531 17.8593 23.9687 16.3708 23.9687 14.625V12.8123H31.9686C32.1146 12.8123 32.2344 12.8593 32.3282 12.9533C32.4219 13.047 32.4687 13.1667 32.4687 13.3124V21.3533ZM26.4936 25.5938C26.6249 25.0605 26.7742 24.6239 26.9413 24.284C27.1081 23.9441 27.3682 23.5682 27.7217 23.1563H16.9154C16.9926 23.6237 17.0312 24.0301 17.0312 24.3754C17.0312 24.721 16.9926 25.1271 16.9154 25.5938H26.4936ZM31.6875 31.8748C30.2209 31.8748 28.974 31.3613 27.9467 30.3343C26.9197 29.3073 26.4062 28.0604 26.4062 26.5935C26.4062 25.127 26.9197 23.8802 27.9467 22.8532C28.974 21.8262 30.2209 21.3127 31.6875 21.3127C33.1541 21.3127 34.401 21.8262 35.4282 22.8532C36.4552 23.8802 36.9687 25.127 36.9687 26.5935C36.9687 28.0604 36.4552 29.3073 35.4282 30.3343C34.401 31.3613 33.1541 31.8748 31.6875 31.8748ZM9.53103 31.8748C7.45618 31.8748 5.6875 31.1435 4.225 29.681C2.7625 28.2185 2.03125 26.4499 2.03125 24.375C2.03125 22.3001 2.7625 20.5315 4.225 19.069C5.6875 17.6065 7.45618 16.8752 9.53103 16.8752C11.6062 16.8752 13.375 17.6065 14.8375 19.069C16.3 20.5315 17.0312 22.3001 17.0312 24.375C17.0312 26.4499 16.3 28.2185 14.8375 29.681C13.375 31.1435 11.6062 31.8748 9.53103 31.8748Z" fill="var(--fill-0, #0095DA)"/>
</g>
</svg>
