<svg preserveAspectRatio="none" width="100%" height="100%" overflow="visible" style="display: block;" viewBox="0 0 40 40" fill="none" xmlns="http://www.w3.org/2000/svg">
<g id="chat_24dp_E3E3E3_FILL0_wght300_GRAD0_opsz24 1">
<path id="Vector" d="M10.0642 29.1667L6.7275 32.5029C6.25333 32.9774 5.70792 33.0849 5.09125 32.8254C4.47486 32.5657 4.16667 32.0982 4.16667 31.4229V7.17958C4.16667 6.33764 4.45833 5.625 5.04167 5.04167C5.625 4.45833 6.33764 4.16667 7.17958 4.16667H32.8204C33.6624 4.16667 34.375 4.45833 34.9583 5.04167C35.5417 5.625 35.8333 6.33764 35.8333 7.17958V26.1538C35.8333 26.9957 35.5417 27.7083 34.9583 28.2917C34.375 28.875 33.6624 29.1667 32.8204 29.1667H10.0642ZM9 26.6667H32.8204C32.9487 26.6667 33.0662 26.6132 33.1729 26.5063C33.2799 26.3996 33.3333 26.2821 33.3333 26.1538V7.17958C33.3333 7.05125 33.2799 6.93375 33.1729 6.82708C33.0662 6.72014 32.9487 6.66667 32.8204 6.66667H7.17958C7.05125 6.66667 6.93375 6.72014 6.82708 6.82708C6.72014 6.93375 6.66667 7.05125 6.66667 7.17958V28.9746L9 26.6667ZM11.6667 22.9167H21.6667C22.0214 22.9167 22.3183 22.7969 22.5575 22.5575C22.7969 22.3183 22.9167 22.0214 22.9167 21.6667C22.9167 21.3119 22.7969 21.015 22.5575 20.7758C22.3183 20.5364 22.0214 20.4167 21.6667 20.4167H11.6667C11.3119 20.4167 11.015 20.5364 10.7758 20.7758C10.5364 21.015 10.4167 21.3119 10.4167 21.6667C10.4167 22.0214 10.5364 22.3183 10.7758 22.5575C11.015 22.7969 11.3119 22.9167 11.6667 22.9167ZM11.6667 17.9167H28.3333C28.6881 17.9167 28.985 17.7969 29.2242 17.5575C29.4636 17.3183 29.5833 17.0214 29.5833 16.6667C29.5833 16.3119 29.4636 16.015 29.2242 15.7758C28.985 15.5364 28.6881 15.4167 28.3333 15.4167H11.6667C11.3119 15.4167 11.015 15.5364 10.7758 15.7758C10.5364 16.015 10.4167 16.3119 10.4167 16.6667C10.4167 17.0214 10.5364 17.3183 10.7758 17.5575C11.015 17.7969 11.3119 17.9167 11.6667 17.9167ZM11.6667 12.9167H28.3333C28.6881 12.9167 28.985 12.7969 29.2242 12.5575C29.4636 12.3183 29.5833 12.0214 29.5833 11.6667C29.5833 11.3119 29.4636 11.015 29.2242 10.7758C28.985 10.5364 28.6881 10.4167 28.3333 10.4167H11.6667C11.3119 10.4167 11.015 10.5364 10.7758 10.7758C10.5364 11.015 10.4167 11.3119 10.4167 11.6667C10.4167 12.0214 10.5364 12.3183 10.7758 12.5575C11.015 12.7969 11.3119 12.9167 11.6667 12.9167Z" fill="var(--fill-0, #0095DA)"/>
</g>
</svg>
