<svg preserveAspectRatio="none" width="100%" height="100%" overflow="visible" style="display: block;" viewBox="0 0 40 40" fill="none" xmlns="http://www.w3.org/2000/svg">
<g id="cloud_circle_24dp_E3E3E3_FILL0_wght300_GRAD0_opsz24 1">
<path id="Vector" d="M14.1667 25.8333H26.6667C27.8311 25.8333 28.8167 25.43 29.6233 24.6233C30.43 23.8167 30.8333 22.8311 30.8333 21.6667C30.8333 20.5236 30.4326 19.5433 29.6312 18.7258C28.8301 17.9086 27.8419 17.5 26.6667 17.5H25.8333V17.0033C25.6967 15.5203 25.0754 14.2601 23.9696 13.2229C22.8637 12.1854 21.5972 11.6667 20.17 11.6667C18.8281 11.6667 17.6368 12.0411 16.5962 12.79C15.5557 13.5389 14.8485 14.5533 14.4746 15.8333H13.9617C12.6025 15.9189 11.4636 16.4322 10.545 17.3733C9.62611 18.3147 9.16667 19.4628 9.16667 20.8175C9.16667 22.2028 9.65333 23.385 10.6267 24.3642C11.6 25.3436 12.78 25.8333 14.1667 25.8333ZM14.1667 23.3333C13.4722 23.3333 12.8819 23.0903 12.3958 22.6042C11.9097 22.1181 11.6667 21.5278 11.6667 20.8333C11.6667 20.1389 11.9097 19.5486 12.3958 19.0625C12.8819 18.5764 13.4722 18.3333 14.1667 18.3333H16.6667V17.5C16.6667 16.5833 16.9931 15.7986 17.6458 15.1458C18.2986 14.4931 19.0833 14.1667 20 14.1667C20.9167 14.1667 21.7014 14.4931 22.3542 15.1458C23.0069 15.7986 23.3333 16.5833 23.3333 17.5V20H26.6667C27.1389 20 27.5347 20.1597 27.8542 20.4792C28.1736 20.7986 28.3333 21.1944 28.3333 21.6667C28.3333 22.1389 28.1736 22.5347 27.8542 22.8542C27.5347 23.1736 27.1389 23.3333 26.6667 23.3333H14.1667ZM20.0029 35.8333C17.8129 35.8333 15.7544 35.4178 13.8275 34.5867C11.9006 33.7556 10.2244 32.6276 8.79917 31.2029C7.37389 29.7782 6.24542 28.1028 5.41375 26.1767C4.58236 24.2506 4.16667 22.1926 4.16667 20.0029C4.16667 17.8129 4.58222 15.7544 5.41333 13.8275C6.24444 11.9006 7.37236 10.2244 8.79708 8.79917C10.2218 7.37389 11.8972 6.24542 13.8233 5.41375C15.7494 4.58236 17.8074 4.16667 19.9971 4.16667C22.1871 4.16667 24.2456 4.58222 26.1725 5.41333C28.0994 6.24444 29.7756 7.37236 31.2008 8.79708C32.6261 10.2218 33.7546 11.8972 34.5862 13.8233C35.4176 15.7494 35.8333 17.8074 35.8333 19.9971C35.8333 22.1871 35.4178 24.2456 34.5867 26.1725C33.7556 28.0994 32.6276 29.7756 31.2029 31.2008C29.7782 32.6261 28.1028 33.7546 26.1767 34.5862C24.2506 35.4176 22.1926 35.8333 20.0029 35.8333ZM20 33.3333C23.7222 33.3333 26.875 32.0417 29.4583 29.4583C32.0417 26.875 33.3333 23.7222 33.3333 20C33.3333 16.2778 32.0417 13.125 29.4583 10.5417C26.875 7.95833 23.7222 6.66667 20 6.66667C16.2778 6.66667 13.125 7.95833 10.5417 10.5417C7.95833 13.125 6.66667 16.2778 6.66667 20C6.66667 23.7222 7.95833 26.875 10.5417 29.4583C13.125 32.0417 16.2778 33.3333 20 33.3333Z" fill="var(--fill-0, #0095DA)"/>
</g>
</svg>
