<svg preserveAspectRatio="none" width="100%" height="100%" overflow="visible" style="display: block;" viewBox="0 0 40 40" fill="none" xmlns="http://www.w3.org/2000/svg">
<g id="network_intelligence_24dp_E3E3E3_FILL0_wght300_GRAD0_opsz24 1">
<path id="Vector" d="M13.8271 32.5C13.5535 32.5 13.2981 32.4343 13.0608 32.3029C12.8236 32.1715 12.641 31.9776 12.5129 31.7213L9.42333 26.1858H11.6796L13.2821 29.3267H16.875V27.8525H14.17L12.5675 24.7117H8.6025L6.35583 20.7533C6.30028 20.625 6.25431 20.4994 6.21792 20.3767C6.18153 20.2539 6.16333 20.1283 6.16333 20C6.16333 19.9103 6.2275 19.6592 6.35583 19.2467L8.6025 15.2883H12.5675L14.17 12.1475H16.875V10.6733H13.2821L11.6796 13.8142H9.42333L12.5129 8.27875C12.641 8.02236 12.8236 7.82847 13.0608 7.69708C13.2981 7.56569 13.5535 7.5 13.8271 7.5H17.7562C18.186 7.5 18.5444 7.64375 18.8317 7.93125C19.1192 8.21847 19.2629 8.57694 19.2629 9.00667V15.3525H16.7467L15.2725 16.8271H19.2629V21.6025H15.7883L14.2179 18.4775H10.7533L9.27875 19.9521H13.33L14.9008 23.0771H19.2629V30.9933C19.2629 31.4231 19.1192 31.7815 18.8317 32.0688C18.5444 32.3563 18.186 32.5 17.7562 32.5H13.8271ZM22.2437 32.5C21.814 32.5 21.4556 32.3563 21.1683 32.0688C20.8808 31.7815 20.7371 31.4231 20.7371 30.9933V23.0771H25.0992L26.67 19.9521H30.7213L29.2467 18.4775H25.7821L24.1954 21.6025H20.7371V16.8271H24.7275L23.2533 15.3525H20.7371V9.00667C20.7371 8.57694 20.8808 8.21847 21.1683 7.93125C21.4556 7.64375 21.814 7.5 22.2437 7.5H26.1729C26.4465 7.5 26.7019 7.56569 26.9392 7.69708C27.1764 7.82847 27.359 8.02236 27.4871 8.27875L30.5767 13.8142H28.3204L26.7179 10.6733H23.125V12.1475H25.83L27.4167 15.2883H31.3975L33.6442 19.2467C33.6997 19.375 33.7457 19.5006 33.7821 19.6233C33.8185 19.7461 33.8367 19.8717 33.8367 20C33.8367 20.0897 33.7725 20.3408 33.6442 20.7533L31.3975 24.7117H27.4167L25.83 27.8525H23.125V29.3267H26.7179L28.3204 26.1858H30.5767L27.4871 31.7213C27.359 31.9776 27.1764 32.1715 26.9392 32.3029C26.7019 32.4343 26.4465 32.5 26.1729 32.5H22.2437Z" fill="var(--fill-0, #0095DA)"/>
</g>
</svg>
