<svg preserveAspectRatio="none" width="100%" height="100%" overflow="visible" style="display: block;" viewBox="0 0 42 42" fill="none" xmlns="http://www.w3.org/2000/svg">
<g id="business_messages_24dp_E3E3E3_FILL0_wght300_GRAD0_opsz24 2">
<path id="Vector" d="M12.1997 34.125C11.2932 34.125 10.5252 33.8187 9.89581 33.2062C9.26669 32.5937 8.95212 31.8455 8.95212 30.9614V15.3965L4.79587 10.4764C4.66112 10.3128 4.56735 10.1474 4.51456 9.98025C4.46206 9.81312 4.43581 9.63871 4.43581 9.457C4.43581 9.04633 4.57931 8.68 4.86631 8.358C5.1536 8.036 5.53729 7.875 6.01737 7.875H34.3774C35.2836 7.875 36.0515 8.18125 36.6809 8.79375C37.3103 9.40625 37.625 10.1545 37.625 11.0386V30.9614C37.625 31.8455 37.3103 32.5937 36.6809 33.2062C36.0515 33.8187 35.2836 34.125 34.3774 34.125H12.1997ZM8.26525 10.5L11.5767 14.4038V30.9614C11.5767 31.0962 11.6413 31.2196 11.7705 31.3316C11.8994 31.4439 12.0425 31.5 12.1997 31.5H34.3774C34.5344 31.5 34.6774 31.4439 34.8066 31.3316C34.9355 31.2196 35 31.0962 35 30.9614V11.0386C35 10.9038 34.9355 10.7804 34.8066 10.6684C34.6774 10.5561 34.5344 10.5 34.3774 10.5H8.26525ZM22.1812 25.543H29.1948C29.5673 25.543 29.8791 25.4174 30.1302 25.1663C30.3816 24.9149 30.5073 24.6031 30.5073 24.2309C30.5073 23.8585 30.3816 23.5465 30.1302 23.2951C29.8791 23.044 29.5673 22.9184 29.1948 22.9184H19.1017C18.4939 22.9184 18.076 23.1916 17.8482 23.7379C17.6205 24.2842 17.722 24.767 18.1528 25.1864L21.9122 28.8448C22.1543 29.0869 22.4588 29.2079 22.8257 29.2079C23.1926 29.2079 23.4971 29.0869 23.7392 28.8448C23.9929 28.5911 24.1198 28.2781 24.1198 27.9059C24.1198 27.5335 23.9929 27.2261 23.7392 26.9837L22.1812 25.543ZM24.1937 16.457H17.1636C16.7911 16.457 16.4792 16.5826 16.2278 16.8337C15.9766 17.0851 15.8511 17.3969 15.8511 17.7691C15.8511 18.1415 15.9766 18.4535 16.2278 18.7049C16.4792 18.956 16.7911 19.0816 17.1636 19.0816H27.2562C27.8644 19.0816 28.2822 18.8084 28.5097 18.2621C28.7375 17.7158 28.636 17.233 28.2052 16.8136L24.4628 13.1552C24.2207 12.9131 23.9162 12.7921 23.5493 12.7921C23.1824 12.7921 22.8779 12.9131 22.6358 13.1552C22.3821 13.4089 22.2552 13.7219 22.2552 14.0941C22.2552 14.4665 22.3821 14.7739 22.6358 15.0163L24.1937 16.457Z" fill="var(--fill-0, #0095DA)"/>
</g>
</svg>
