<svg preserveAspectRatio="none" width="100%" height="100%" overflow="visible" style="display: block;" viewBox="0 0 4 4" fill="none" xmlns="http://www.w3.org/2000/svg">
<path id="Vector" d="M0.464527 0.400734C0.774774 0.133577 1.21725 0 1.79452 0C2.37178 0 2.81427 0.133577 3.12112 0.400734C3.42798 0.667045 3.58226 1.05256 3.58226 1.55306V1.83205C3.58226 2.32916 3.42798 2.71046 3.12112 2.97761C2.81342 3.24477 2.37178 3.37835 1.79452 3.37835C1.21725 3.37835 0.773079 3.24477 0.464527 2.97761C0.15428 2.7113 0 2.32832 0 1.83205V1.55306C0 1.05172 0.155127 0.667045 0.464527 0.400734ZM2.42688 2.43062C2.5642 2.30549 2.63286 2.11442 2.63286 1.8591V1.5184C2.63286 1.26815 2.5642 1.07962 2.42688 0.95365C2.28956 0.828526 2.07849 0.765115 1.79537 0.765115C1.51224 0.765115 1.29355 0.828526 1.15538 0.95365C1.01805 1.07877 0.949392 1.2673 0.949392 1.5184V1.8591C0.949392 2.11442 1.01805 2.30549 1.15538 2.43062C1.2927 2.55574 1.50546 2.61915 1.79537 2.61915C2.08527 2.61915 2.29041 2.55574 2.42688 2.43062Z" fill="var(--fill-0, white)"/>
</svg>
