<svg preserveAspectRatio="none" width="100%" height="100%" overflow="visible" style="display: block;" viewBox="0 0 40 40" fill="none" xmlns="http://www.w3.org/2000/svg">
<g id="interactive_space_24dp_E3E3E3_FILL0_wght300_GRAD0_opsz24 1">
<path id="Vector" d="M11.1475 13.6313C11.3033 13.7874 11.479 13.8654 11.6746 13.8654C11.8701 13.8654 12.046 13.7874 12.2021 13.6313L14.1604 11.6729C14.3162 11.521 14.3942 11.3436 14.3942 11.1408C14.3942 10.9381 14.3162 10.7586 14.1604 10.6025L12.2021 8.64417C12.046 8.48833 11.8701 8.41042 11.6746 8.41042C11.479 8.41042 11.3033 8.48833 11.1475 8.64417L9.18917 10.6025C9.03305 10.7547 8.955 10.9322 8.955 11.135C8.955 11.3378 9.03305 11.5171 9.18917 11.6729L11.1475 13.6313ZM7.17958 23.1408C6.33764 23.1408 5.625 22.8492 5.04167 22.2658C4.45833 21.6825 4.16667 20.97 4.16667 20.1283V6.15375C4.16667 5.31208 4.45833 4.59958 5.04167 4.01625C5.625 3.43292 6.33764 3.14125 7.17958 3.14125H32.8204C33.6624 3.14125 34.375 3.43292 34.9583 4.01625C35.5417 4.59958 35.8333 5.31208 35.8333 6.15375V20.1283C35.8333 20.97 35.5417 21.6825 34.9583 22.2658C34.375 22.8492 33.6624 23.1408 32.8204 23.1408H29.0767C28.7256 23.1408 28.4364 23.0211 28.2092 22.7817C27.9822 22.5419 27.8687 22.2449 27.8687 21.8904C27.8687 21.5363 27.9885 21.2394 28.2279 21C28.4674 20.7608 28.7642 20.6413 29.1183 20.6413H32.8204C32.9487 20.6413 33.0662 20.5878 33.1729 20.4808C33.2799 20.3739 33.3333 20.2564 33.3333 20.1283V6.15375C33.3333 6.02569 33.2799 5.90819 33.1729 5.80125C33.0662 5.69458 32.9487 5.64125 32.8204 5.64125H7.17958C7.05125 5.64125 6.93375 5.69458 6.82708 5.80125C6.72014 5.90819 6.66667 6.02569 6.66667 6.15375V20.1283C6.66667 20.2564 6.72014 20.3739 6.82708 20.4808C6.93375 20.5878 7.05125 20.6413 7.17958 20.6413H10.8817C11.2358 20.6413 11.5326 20.761 11.7721 21.0004C12.0115 21.2401 12.1312 21.5372 12.1312 21.8917C12.1312 22.2458 12.0115 22.5426 11.7721 22.7821C11.5326 23.0212 11.2358 23.1408 10.8817 23.1408H7.17958ZM27.4979 11.8913C28.0762 11.8913 28.5683 11.6889 28.9742 11.2842C29.3803 10.8794 29.5833 10.3879 29.5833 9.80958C29.5833 9.23153 29.381 8.73944 28.9762 8.33333C28.5715 7.9275 28.0801 7.72458 27.5021 7.72458C26.9237 7.72458 26.4317 7.92695 26.0258 8.33167C25.6197 8.73639 25.4167 9.22778 25.4167 9.80583C25.4167 10.3839 25.619 10.876 26.0237 11.2821C26.4285 11.6882 26.9199 11.8913 27.4979 11.8913ZM10.6733 36.8588C10.2464 36.8588 9.88861 36.7144 9.6 36.4258C9.31111 36.1369 9.16667 35.7792 9.16667 35.3525V33.9358C9.16667 33.1211 9.39208 32.3646 9.84292 31.6663C10.2937 30.9679 10.8942 30.4478 11.6442 30.1058C12.9625 29.4989 14.3231 29.0411 15.7258 28.7325C17.1286 28.4236 18.5533 28.2692 20 28.2692C21.4467 28.2692 22.8714 28.4236 24.2742 28.7325C25.6769 29.0411 27.0375 29.4989 28.3558 30.1058C29.1058 30.4478 29.7062 30.9679 30.1571 31.6663C30.6079 32.3646 30.8333 33.1211 30.8333 33.9358V35.3525C30.8333 35.7792 30.6889 36.1369 30.4 36.4258C30.1114 36.7144 29.7536 36.8588 29.3267 36.8588H10.6733ZM11.6667 34.3588H28.3333V33.9358C28.3333 33.6025 28.2361 33.2969 28.0417 33.0192C27.8472 32.7414 27.5972 32.5331 27.2917 32.3942C26.125 31.8664 24.9306 31.4636 23.7083 31.1858C22.4861 30.9081 21.25 30.7692 20 30.7692C18.75 30.7692 17.5139 30.9081 16.2917 31.1858C15.0694 31.4636 13.875 31.8664 12.7083 32.3942C12.4028 32.5331 12.1528 32.7414 11.9583 33.0192C11.7639 33.2969 11.6667 33.6025 11.6667 33.9358V34.3588ZM20 26.2821C18.6133 26.2821 17.4333 25.7954 16.46 24.8221C15.4867 23.8487 15 22.6687 15 21.2821C15 19.8954 15.4867 18.7154 16.46 17.7421C17.4333 16.7688 18.6133 16.2821 20 16.2821C21.3867 16.2821 22.5667 16.7688 23.54 17.7421C24.5133 18.7154 25 19.8954 25 21.2821C25 22.6687 24.5133 23.8487 23.54 24.8221C22.5667 25.7954 21.3867 26.2821 20 26.2821ZM20 23.7821C20.6944 23.7821 21.2847 23.539 21.7708 23.0529C22.2569 22.5668 22.5 21.9765 22.5 21.2821C22.5 20.5876 22.2569 19.9974 21.7708 19.5112C21.2847 19.0251 20.6944 18.7821 20 18.7821C19.3056 18.7821 18.7153 19.0251 18.2292 19.5112C17.7431 19.9974 17.5 20.5876 17.5 21.2821C17.5 21.9765 17.7431 22.5668 18.2292 23.0529C18.7153 23.539 19.3056 23.7821 20 23.7821Z" fill="var(--fill-0, #0095DA)"/>
</g>
</svg>
