<svg preserveAspectRatio="none" width="100%" height="100%" overflow="visible" style="display: block;" viewBox="0 0 36 36" fill="none" xmlns="http://www.w3.org/2000/svg">
<g id="close_24dp_E3E3E3_FILL0_wght300_GRAD0_opsz24 1">
<path id="Vector" d="M18 19.5806L10.3905 27.1905C10.1827 27.398 9.92162 27.5043 9.60712 27.5093C9.29287 27.514 9.027 27.4078 8.8095 27.1905C8.59225 26.973 8.48362 26.7095 8.48362 26.4C8.48362 26.0905 8.59225 25.827 8.8095 25.6095L16.4194 18L8.8095 10.3905C8.602 10.1827 8.49575 9.92162 8.49075 9.60712C8.486 9.29287 8.59225 9.027 8.8095 8.8095C9.027 8.59225 9.2905 8.48362 9.6 8.48362C9.9095 8.48362 10.173 8.59225 10.3905 8.8095L18 16.4194L25.6095 8.8095C25.8173 8.602 26.0784 8.49575 26.3929 8.49075C26.7071 8.486 26.973 8.59225 27.1905 8.8095C27.4078 9.027 27.5164 9.2905 27.5164 9.6C27.5164 9.9095 27.4078 10.173 27.1905 10.3905L19.5806 18L27.1905 25.6095C27.398 25.8173 27.5043 26.0784 27.5093 26.3929C27.514 26.7071 27.4078 26.973 27.1905 27.1905C26.973 27.4078 26.7095 27.5164 26.4 27.5164C26.0905 27.5164 25.827 27.4078 25.6095 27.1905L18 19.5806Z" fill="var(--fill-0, #0095DA)"/>
</g>
</svg>
