<svg preserveAspectRatio="none" width="100%" height="100%" overflow="visible" style="display: block;" viewBox="0 0 43 43" fill="none" xmlns="http://www.w3.org/2000/svg">
<g id="mobile_24dp_E3E3E3_FILL0_wght300_GRAD0_opsz24 1">
<path id="Vector" d="M13.0931 40.3125C12.1996 40.3125 11.4364 39.9961 10.8033 39.3634C10.1705 38.7303 9.85417 37.9671 9.85417 37.0736V5.92638C9.85417 5.02129 10.1677 4.25521 10.7948 3.62812C11.4219 3.00104 12.188 2.6875 13.0931 2.6875H29.9759C30.8694 2.6875 31.6325 3.00388 32.2652 3.63664C32.8983 4.26969 33.2148 5.03294 33.2148 5.92638V11.584C33.7063 11.7124 34.1163 11.9691 34.4448 12.354C34.7733 12.7386 34.9375 13.1859 34.9375 13.6959V17.0723C34.9375 17.5824 34.7733 18.0298 34.4448 18.4147C34.1163 18.7994 33.7063 19.056 33.2148 19.1847V37.0736C33.2148 37.9671 32.8983 38.7303 32.2652 39.3634C31.6325 39.9961 30.8694 40.3125 29.9759 40.3125H13.0931ZM13.0931 37.625H29.9759C30.1366 37.625 30.2687 37.5733 30.3723 37.47C30.4757 37.3667 30.5273 37.2346 30.5273 37.0736V5.92638C30.5273 5.76543 30.4757 5.6333 30.3723 5.52998C30.2687 5.42666 30.1366 5.375 29.9759 5.375H13.0931C12.9321 5.375 12.8 5.42666 12.6966 5.52998C12.5933 5.6333 12.5417 5.76543 12.5417 5.92638V37.0736C12.5417 37.2346 12.5933 37.3667 12.6966 37.47C12.8 37.5733 12.9321 37.625 13.0931 37.625ZM21.5345 11.0255C21.9848 11.0255 22.3615 10.8739 22.6646 10.5708C22.9677 10.2677 23.1192 9.89105 23.1192 9.44074C23.1192 8.99043 22.9677 8.61373 22.6646 8.31064C22.3615 8.00755 21.9848 7.85601 21.5345 7.85601C21.0842 7.85601 20.7075 8.00755 20.4044 8.31064C20.1013 8.61373 19.9498 8.99043 19.9498 9.44074C19.9498 9.89105 20.1013 10.2677 20.4044 10.5708C20.7075 10.8739 21.0842 11.0255 21.5345 11.0255Z" fill="var(--fill-0, #0095DA)"/>
</g>
</svg>
