<svg preserveAspectRatio="none" width="100%" height="100%" overflow="visible" style="display: block;" viewBox="0 0 50 50" fill="none" xmlns="http://www.w3.org/2000/svg">
<g id="play_circle_24dp_E3E3E3_FILL0_wght200_GRAD0_opsz24 1">
<path id="Vector" d="M22.7885 31.2099L30.7812 26.0615C31.1872 25.8076 31.3901 25.4552 31.3901 25.0042C31.3901 24.5528 31.1872 24.1976 30.7812 23.9385L22.7885 18.7901C22.3747 18.4964 21.9453 18.471 21.5005 18.7141C21.0557 18.9575 20.8333 19.3366 20.8333 19.8516V30.1484C20.8333 30.6634 21.0557 31.0425 21.5005 31.2859C21.9453 31.529 22.3747 31.5036 22.7885 31.2099ZM25.0068 43.75C22.4141 43.75 19.9764 43.258 17.6937 42.274C15.4115 41.2899 13.426 39.9545 11.7375 38.2677C10.049 36.5809 8.71233 34.5972 7.7276 32.3167C6.74253 30.0365 6.25 27.5998 6.25 25.0068C6.25 22.4141 6.74201 19.9764 7.72604 17.6937C8.71007 15.4115 10.0455 13.426 11.7323 11.7375C13.4191 10.049 15.4028 8.71233 17.6833 7.7276C19.9635 6.74253 22.4002 6.25 24.9932 6.25C27.5859 6.25 30.0236 6.74201 32.3063 7.72604C34.5885 8.71007 36.574 10.0455 38.2625 11.7323C39.951 13.4191 41.2877 15.4028 42.2724 17.6833C43.2575 19.9635 43.75 22.4002 43.75 24.9932C43.75 27.5859 43.258 30.0236 42.274 32.3062C41.2899 34.5885 39.9545 36.574 38.2677 38.2625C36.5809 39.951 34.5972 41.2877 32.3167 42.2724C30.0365 43.2575 27.5998 43.75 25.0068 43.75ZM25 41.6667C29.6528 41.6667 33.5937 40.0521 36.8229 36.8229C40.0521 33.5937 41.6667 29.6528 41.6667 25C41.6667 20.3472 40.0521 16.4062 36.8229 13.1771C33.5937 9.94792 29.6528 8.33333 25 8.33333C20.3472 8.33333 16.4062 9.94792 13.1771 13.1771C9.94792 16.4062 8.33333 20.3472 8.33333 25C8.33333 29.6528 9.94792 33.5937 13.1771 36.8229C16.4062 40.0521 20.3472 41.6667 25 41.6667Z" fill="var(--fill-0, #0095DA)"/>
</g>
</svg>
