<svg preserveAspectRatio="none" width="100%" height="100%" overflow="visible" style="display: block;" viewBox="0 0 34 12" fill="none" xmlns="http://www.w3.org/2000/svg">
<path id="Vector" d="M29.255 0.000677539H21.2233L21.0503 1.85811H29.2548C30.6744 1.85811 31.1587 2.36493 31.1587 3.54706V4.89791C31.1587 6.08003 30.6392 6.41746 29.2548 6.41746H24.408C22.8498 6.41746 22.6076 6.07936 22.6769 4.89791L22.7806 2.70236H20.9802L20.7723 4.89791C20.71 5.50568 20.7612 6.00347 20.92 6.41746H19.3877C18.176 6.41746 17.4838 5.91064 17.4838 4.72851V3.54638C17.4838 1.35084 15.9255 0 13.6758 0H9.79859L9.62566 1.85744H13.6758C14.9217 1.85744 15.5797 2.36426 15.5797 3.54638V4.89723C15.5797 5.91064 15.2331 6.41678 14.5409 6.41678C13.9031 6.41678 12.6776 6.12995 11.1348 5.68885C11.1908 5.44177 11.23 5.17797 11.2517 4.89745L11.3552 2.70191H9.55482L9.34693 4.89745C9.24322 6.07958 8.82744 6.41701 7.78868 6.41701H7.61575C6.577 6.41701 6.0582 6.0789 6.0582 4.89745V1.68917H4.15432V7.93725C4.15432 9.4568 3.46213 9.9634 1.90388 9.9634H0V11.8208H1.90388C4.38536 11.8208 5.91768 10.4311 6.04778 7.94944C6.53139 8.18636 7.11802 8.27445 7.61575 8.27445H7.78868C8.93671 8.27445 9.81943 7.9133 10.4095 7.21925C12.6215 7.97045 14.0564 8.27445 14.7122 8.27445C15.4514 8.27445 16.1906 7.93228 16.68 7.36967C17.2729 7.93228 18.1535 8.27445 19.3854 8.27445H29.2515C31.6749 8.27445 33.0595 7.09232 33.0595 4.89745V3.54661C33.0595 1.35107 31.6749 0.000225904 29.2515 0.000225904" fill="var(--fill-0, #010101)"/>
</svg>
