<svg preserveAspectRatio="none" width="100%" height="100%" overflow="visible" style="display: block;" viewBox="0 0 36 36" fill="none" xmlns="http://www.w3.org/2000/svg">
<g id="home_work_24dp_E3E3E3_FILL0_wght300_GRAD0_opsz24 2">
<path id="Vector" d="M33.75 7.96162V28.0384C33.75 28.7841 33.4845 29.4225 32.9535 29.9535C32.4225 30.4845 31.7841 30.75 31.0384 30.75H25.875C25.5563 30.75 25.289 30.6421 25.0733 30.4264C24.8578 30.2106 24.75 29.9434 24.75 29.6246C24.75 29.3056 24.8578 29.0385 25.0733 28.8233C25.289 28.6078 25.5563 28.5 25.875 28.5H31.0384C31.1731 28.5 31.2838 28.4567 31.3703 28.3702C31.4568 28.2837 31.5 28.1731 31.5 28.0384V7.96162C31.5 7.82687 31.4568 7.71625 31.3703 7.62975C31.2838 7.54325 31.1731 7.5 31.0384 7.5H18C17.8653 7.5 17.7546 7.54325 17.6681 7.62975C17.5816 7.71625 17.5384 7.82687 17.5384 7.96162V9.21638C17.5384 9.53513 17.4305 9.80238 17.2148 10.0181C16.999 10.2336 16.7318 10.3414 16.413 10.3414C16.094 10.3414 15.8269 10.2336 15.6116 10.0181C15.3961 9.80238 15.2884 9.53513 15.2884 9.21638V7.9155C15.2884 7.1865 15.5504 6.56 16.0744 6.036C16.5984 5.512 17.2249 5.25 17.9539 5.25H31.0384C31.7841 5.25 32.4225 5.5155 32.9535 6.0465C33.4845 6.5775 33.75 7.21587 33.75 7.96162ZM2.25 18.2681C2.25 17.8259 2.3505 17.4091 2.5515 17.0179C2.7525 16.6264 3.03375 16.3076 3.39525 16.0616L10.4336 11.0452C10.6831 10.8657 10.9383 10.7367 11.199 10.6582C11.4598 10.5797 11.7262 10.5405 11.9985 10.5405C12.2707 10.5405 12.5376 10.5797 12.7991 10.6582C13.0604 10.7367 13.3161 10.8657 13.5664 11.0452L20.6048 16.0616C20.9663 16.3076 21.2475 16.6264 21.4485 17.0179C21.6495 17.4091 21.75 17.8259 21.75 18.2681V28.0384C21.75 28.7841 21.4845 29.4225 20.9535 29.9535C20.4225 30.4845 19.7841 30.75 19.0384 30.75H16.4134C15.6679 30.75 15.0296 30.4845 14.4986 29.9535C13.9676 29.4225 13.7021 28.7841 13.7021 28.0384V23.625H10.2979V28.0384C10.2979 28.7841 10.0324 29.4225 9.50137 29.9535C8.97037 30.4845 8.33212 30.75 7.58662 30.75H4.96162C4.21587 30.75 3.5775 30.4845 3.0465 29.9535C2.5155 29.4225 2.25 28.7841 2.25 28.0384V18.2681ZM4.5 18.2453V28.0384C4.5 28.1731 4.54325 28.2837 4.62975 28.3702C4.71625 28.4567 4.82687 28.5 4.96162 28.5H7.58662C7.72112 28.5 7.83162 28.4567 7.91812 28.3702C8.00487 28.2837 8.04825 28.1731 8.04825 28.0384V23.6539C8.04825 23.0211 8.26988 22.4831 8.71313 22.0399C9.15638 21.5966 9.69425 21.375 10.3268 21.375H13.6733C14.3058 21.375 14.8436 21.5966 15.2869 22.0399C15.7301 22.4831 15.9518 23.0211 15.9518 23.6539V28.0384C15.9518 28.1731 15.9951 28.2837 16.0819 28.3702C16.1684 28.4567 16.2789 28.5 16.4134 28.5H19.0384C19.1731 28.5 19.2837 28.4567 19.3702 28.3702C19.4567 28.2837 19.5 28.1731 19.5 28.0384V18.2453C19.5 18.1683 19.4831 18.0961 19.4494 18.0289C19.4159 17.9616 19.3654 17.9039 19.2979 17.8556L12.2595 12.8914C12.1828 12.8336 12.0963 12.8048 12 12.8048C11.9038 12.8048 11.8172 12.8336 11.7405 12.8914L4.70212 17.8556C4.63462 17.9039 4.58412 17.9616 4.55062 18.0289C4.51687 18.0961 4.5 18.1683 4.5 18.2453ZM26.3509 13.3268H27.6491C27.8299 13.3268 27.988 13.259 28.1235 13.1235C28.259 12.988 28.3268 12.8299 28.3268 12.6491V11.3509C28.3268 11.1701 28.259 11.012 28.1235 10.8765C27.988 10.741 27.8299 10.6732 27.6491 10.6732H26.3509C26.1701 10.6732 26.012 10.741 25.8765 10.8765C25.741 11.012 25.6733 11.1701 25.6733 11.3509V12.6491C25.6733 12.8299 25.741 12.988 25.8765 13.1235C26.012 13.259 26.1701 13.3268 26.3509 13.3268ZM26.3509 19.3268H27.6491C27.8299 19.3268 27.988 19.259 28.1235 19.1235C28.259 18.988 28.3268 18.8299 28.3268 18.6491V17.3509C28.3268 17.1701 28.259 17.012 28.1235 16.8765C27.988 16.741 27.8299 16.6732 27.6491 16.6732H26.3509C26.1701 16.6732 26.012 16.741 25.8765 16.8765C25.741 17.012 25.6733 17.1701 25.6733 17.3509V18.6491C25.6733 18.8299 25.741 18.988 25.8765 19.1235C26.012 19.259 26.1701 19.3268 26.3509 19.3268ZM26.3509 25.3268H27.6491C27.8299 25.3268 27.988 25.259 28.1235 25.1235C28.259 24.988 28.3268 24.8299 28.3268 24.6491V23.3509C28.3268 23.1701 28.259 23.012 28.1235 22.8765C27.988 22.741 27.8299 22.6733 27.6491 22.6733H26.3509C26.1701 22.6733 26.012 22.741 25.8765 22.8765C25.741 23.012 25.6733 23.1701 25.6733 23.3509V24.6491C25.6733 24.8299 25.741 24.988 25.8765 25.1235C26.012 25.259 26.1701 25.3268 26.3509 25.3268Z" fill="var(--fill-0, #0095DA)"/>
</g>
</svg>
