<svg preserveAspectRatio="none" width="100%" height="100%" overflow="visible" style="display: block;" viewBox="0 0 70 11" fill="none" xmlns="http://www.w3.org/2000/svg">
<g id="Group">
<path id="Vector" d="M11.4237 0.000820839H9.51986C8.79248 0.000820839 8.27391 0.20364 7.75442 0.71046L7.57107 0.889337C6.94671 0.296466 6.0207 0.000820839 4.84674 0.000820839H0V1.85826H5.01968C6.23136 1.85826 6.57723 2.36508 6.57723 3.37781V8.34257H8.48111V3.37781C8.48111 2.79533 8.39082 2.28919 8.21859 1.85826H11.2501C12.6347 1.85826 13.154 2.53357 13.154 3.71569V10.1323H15.0579V3.71569C15.0579 1.52015 13.8462 0.000594763 11.4228 0.000594763" fill="var(--fill-0, #010101)"/>
<path id="Vector_2" d="M31.3293 0.000677456H29.4254V10.133H31.3293V0.000677456Z" fill="var(--fill-0, #010101)"/>
<path id="Vector_3" d="M19.2134 5.40382V4.897C19.2134 2.87085 20.425 1.85744 22.156 1.85744H26.8291V6.05635e-07H22.156C19.2134 6.05635e-07 17.3092 1.85744 17.3092 4.89723V5.40405C17.3092 8.44361 18.8668 10.1326 21.9824 10.1326H27.175V8.27512H21.9824C20.0785 8.27512 19.2131 7.4311 19.2131 5.40427" fill="var(--fill-0, #010101)"/>
<path id="Vector_4" d="M36.1494 0.101862L36.7627 1.89651L36.8661 2.30079H36.9097L37.0173 1.89651L37.6313 0.101862H38.633V2.81913H38.0498V0.619522H38.0065L37.8769 1.06604L37.2854 2.81913H36.4953L35.9038 1.06604L35.7741 0.619522H35.7309V2.81913H35.1477V0.101862H36.1494Z" fill="var(--fill-0, #010101)"/>
<path id="Vector_5" d="M39.4638 1.05994C39.6555 0.898002 39.9294 0.817598 40.2864 0.817598C40.6433 0.817598 40.917 0.898228 41.1068 1.05994C41.2964 1.2212 41.3918 1.45406 41.3918 1.75716V1.92587C41.3918 2.22626 41.2966 2.45708 41.1068 2.61902C40.9165 2.78096 40.6433 2.86137 40.2864 2.86137C39.9294 2.86137 39.6551 2.78073 39.4638 2.61902C39.2719 2.45776 39.1768 2.22626 39.1768 1.92587V1.75716C39.1768 1.45406 39.2726 1.22098 39.4638 1.05994ZM40.6776 2.28837C40.7623 2.21248 40.8049 2.09707 40.8049 1.94281V1.7366C40.8049 1.58505 40.7623 1.471 40.6776 1.39511C40.5929 1.31922 40.4621 1.28105 40.2871 1.28105C40.112 1.28105 39.9769 1.31922 39.8917 1.39511C39.8069 1.471 39.7643 1.58505 39.7643 1.7366V1.94281C39.7643 2.09707 39.8069 2.21248 39.8917 2.28837C39.9764 2.36426 40.1079 2.40243 40.2871 2.40243C40.4662 2.40243 40.5929 2.36426 40.6776 2.28837Z" fill="var(--fill-0, #010101)"/>
<path id="Vector_6" d="M41.9495 0.000677456H42.5368V0.969825C42.606 0.921943 42.6921 0.885128 42.7959 0.8578C42.8996 0.831149 43.01 0.817598 43.1283 0.817598C43.7617 0.817598 44.0782 1.11663 44.0782 1.71492V1.96359C44.0782 2.56188 43.761 2.86091 43.1283 2.86091C42.9674 2.86091 42.8273 2.84104 42.7097 2.80219C42.5914 2.76267 42.5039 2.7053 42.4465 2.62941L42.4123 2.81936H41.9502V0.000903532H41.9495V0.000677456ZM43.0204 2.41891C43.1906 2.41891 43.311 2.38549 43.383 2.31796C43.4549 2.25043 43.4908 2.1384 43.4908 1.98053V1.69844C43.4908 1.54147 43.4552 1.42876 43.383 1.36101C43.311 1.29348 43.1896 1.26005 43.0204 1.26005C42.8623 1.26005 42.7419 1.29076 42.66 1.35288C42.578 1.41431 42.5368 1.50578 42.5368 1.62661V2.05212C42.5368 2.2965 42.6979 2.41891 43.0204 2.41891Z" fill="var(--fill-0, #010101)"/>
<path id="Vector_7" d="M44.6361 0.497109V6.05635e-07H45.2234V0.497109H44.6361ZM45.2234 2.81913H44.6361V0.859833H45.2234V2.81913Z" fill="var(--fill-0, #010101)"/>
<path id="Vector_8" d="M46.4842 0.000677456H45.8968V2.81913H46.4842V0.000677456Z" fill="var(--fill-0, #010101)"/>
<path id="Vector_9" d="M47.3023 1.05384C47.485 0.896647 47.7475 0.817598 48.0906 0.817598C48.4337 0.817598 48.7017 0.894841 48.8788 1.0491C49.0559 1.20336 49.1441 1.43418 49.1441 1.74022V2.03925H47.6153C47.6208 2.1655 47.6644 2.25788 47.7447 2.31525C47.8253 2.37261 47.9533 2.40197 48.129 2.40197C48.4455 2.40197 48.7506 2.38074 49.0446 2.33851L49.0879 2.76809C48.7365 2.82952 48.411 2.86091 48.1121 2.86091C47.7551 2.86091 47.485 2.78435 47.3023 2.63144C47.1196 2.47854 47.028 2.25585 47.028 1.96359V1.74428C47.028 1.44096 47.1196 1.21104 47.3023 1.05317M48.561 1.69844V1.65597C48.561 1.51527 48.5246 1.41295 48.451 1.34858C48.3774 1.28376 48.257 1.25169 48.0906 1.25169C47.9241 1.25169 47.7952 1.2858 47.7239 1.35491C47.6519 1.42379 47.616 1.53785 47.616 1.69844H48.5617H48.561Z" fill="var(--fill-0, #010101)"/>
<path id="Vector_10" d="M36.8661 3.75598C37.0419 3.79686 37.1986 3.85084 37.3366 3.9186L37.1727 4.32762C36.908 4.21831 36.6497 4.16297 36.3999 4.16297C36.1501 4.16297 35.9506 4.22576 35.8302 4.35088C35.7091 4.47578 35.6489 4.67318 35.6489 4.94285V5.25498C35.6489 5.51923 35.7077 5.71392 35.826 5.84085C35.9443 5.9671 36.1311 6.0308 36.3874 6.0308C36.514 6.0308 36.6562 6.01453 36.815 5.98224C36.9731 5.95017 37.1287 5.90296 37.2812 5.84085L37.4241 6.2492C37.2567 6.3278 37.0768 6.38923 36.8844 6.43214C36.6911 6.47596 36.5099 6.49764 36.3406 6.49764C35.9172 6.49764 35.5987 6.39036 35.3838 6.17534C35.169 5.96033 35.0618 5.64684 35.0618 5.23353V4.95979C35.0618 4.5467 35.1725 4.23321 35.3943 4.01797C35.616 3.80296 35.9408 3.69568 36.37 3.69568C36.5254 3.69568 36.6914 3.71623 36.8671 3.75643" fill="var(--fill-0, #010101)"/>
<path id="Vector_11" d="M38.0086 4.69576C38.2003 4.53383 38.4742 4.45342 38.8311 4.45342C39.1881 4.45342 39.4618 4.53405 39.6516 4.69576C39.8412 4.85703 39.9366 5.08988 39.9366 5.39298V5.56169C39.9366 5.86208 39.8414 6.09291 39.6516 6.25485C39.4613 6.41678 39.1881 6.49719 38.8311 6.49719C38.4742 6.49719 38.1998 6.41656 38.0086 6.25485C37.8167 6.09359 37.7215 5.86208 37.7215 5.56169V5.39298C37.7215 5.08988 37.8174 4.8568 38.0086 4.69576ZM39.2224 5.92352C39.3071 5.84763 39.3497 5.73222 39.3497 5.57796V5.37175C39.3497 5.2202 39.3071 5.10614 39.2224 5.03026C39.1377 4.95437 39.0069 4.9162 38.8318 4.9162C38.6568 4.9162 38.5216 4.95437 38.4364 5.03026C38.3517 5.10614 38.3091 5.21998 38.3091 5.37175V5.57796C38.3091 5.73222 38.3517 5.84763 38.4364 5.92352C38.5212 5.9994 38.6527 6.03757 38.8318 6.03757C39.011 6.03757 39.1377 5.9994 39.2224 5.92352Z" fill="var(--fill-0, #010101)"/>
<path id="Vector_12" d="M40.4984 4.49566H40.9605L40.9948 4.68131C41.0494 4.61107 41.1307 4.55573 41.239 4.51463C41.3469 4.47352 41.4687 4.4532 41.6036 4.4532C41.8942 4.4532 42.0986 4.53857 42.2169 4.70999C42.2889 4.6253 42.387 4.56183 42.5109 4.51802C42.6347 4.4742 42.781 4.45252 42.9512 4.45252C43.2535 4.45252 43.4783 4.52208 43.6246 4.66076C43.7716 4.80011 43.845 5.02416 43.845 5.33268V6.45337H43.2577V5.32861C43.2577 5.16803 43.2276 5.056 43.1674 4.99118C43.1072 4.92704 43.0093 4.89429 42.8734 4.89429C42.6026 4.89429 42.4674 5.01513 42.4674 5.25702V6.45337H41.88V5.32861C41.88 5.16803 41.8499 5.056 41.7898 4.99118C41.7296 4.92704 41.6316 4.89429 41.4957 4.89429C41.2221 4.89429 41.0855 5.01513 41.0855 5.25702V6.45337H40.4982V4.49408V4.49543L40.4984 4.49566Z" fill="var(--fill-0, #010101)"/>
<path id="Vector_13" d="M44.4759 4.49566H44.938L44.9722 4.68131C45.0269 4.61107 45.1079 4.55573 45.2165 4.51463C45.3243 4.47352 45.4461 4.4532 45.5811 4.4532C45.8716 4.4532 46.076 4.53857 46.1943 4.70999C46.2663 4.6253 46.3645 4.56183 46.4883 4.51802C46.6122 4.4742 46.7585 4.45252 46.9287 4.45252C47.231 4.45252 47.4558 4.52208 47.6021 4.66076C47.7491 4.80011 47.8225 5.02416 47.8225 5.33268V6.45337H47.2352V5.32861C47.2352 5.16803 47.2051 5.056 47.1442 4.99118C47.084 4.92704 46.9861 4.89429 46.8502 4.89429C46.5793 4.89429 46.4441 5.01513 46.4441 5.25702V6.45337H45.8568V5.32861C45.8568 5.16803 45.8267 5.056 45.7665 4.99118C45.7063 4.92704 45.6084 4.89429 45.4725 4.89429C45.1989 4.89429 45.0623 5.01513 45.0623 5.25702V6.45337H44.475V4.49408L44.4756 4.49543L44.4759 4.49566Z" fill="var(--fill-0, #010101)"/>
<path id="Vector_14" d="M49.9951 6.45495L49.9609 6.26501C49.9035 6.3409 49.8166 6.39826 49.7018 6.43779C49.5863 6.47731 49.4541 6.49651 49.3041 6.49651C48.999 6.49651 48.7735 6.4213 48.6279 6.27111C48.4823 6.12091 48.4103 5.89686 48.4103 5.59919V4.49566H48.9976V5.62042C48.9976 5.77468 49.0284 5.88602 49.0907 5.95288C49.1522 6.02041 49.2601 6.05383 49.4127 6.05383C49.7178 6.05383 49.8704 5.93165 49.8704 5.68705V4.49475H50.4577V6.45405H49.9956L49.9949 6.45473L49.9951 6.45495Z" fill="var(--fill-0, #010101)"/>
<path id="Vector_15" d="M51.5499 4.49566L51.5842 4.68967C51.6444 4.61378 51.7319 4.55573 51.8453 4.51485C51.9587 4.47375 52.0909 4.45342 52.2407 4.45342C52.5458 4.45342 52.7713 4.52863 52.9169 4.67883C53.0626 4.82902 53.1345 5.05307 53.1345 5.35075V6.45428H52.5472V5.33358C52.5472 5.17661 52.5164 5.06391 52.4542 4.99683C52.3919 4.9293 52.2847 4.89587 52.1321 4.89587C51.827 4.89587 51.6745 5.01806 51.6745 5.26266V6.45495H51.0871V4.49566H51.5499Z" fill="var(--fill-0, #010101)"/>
<path id="Vector_16" d="M53.7478 4.13293V3.63582H54.3351V4.13293H53.7478ZM54.3351 6.45495H53.7478V4.49566H54.3351V6.45495Z" fill="var(--fill-0, #010101)"/>
<path id="Vector_17" d="M56.7101 4.55844L56.624 4.9756C56.405 4.93314 56.195 4.91213 55.9934 4.91213C55.8121 4.91213 55.679 4.95098 55.5936 5.02822C55.5088 5.10547 55.4662 5.22156 55.4662 5.37582V5.57796C55.4662 5.73222 55.5088 5.84763 55.5936 5.92352C55.6783 5.9994 55.8119 6.03757 55.9934 6.03757C56.2466 6.03757 56.4932 6.01092 56.7319 5.95762L56.7962 6.39126C56.6696 6.42198 56.5288 6.44728 56.3756 6.46715C56.2216 6.48703 56.0809 6.49651 55.9543 6.49651C55.6084 6.49651 55.3431 6.41588 55.1577 6.25417C54.9722 6.09291 54.8792 5.86141 54.8792 5.56102V5.3923C54.8792 5.0892 54.9722 4.85612 55.1577 4.69509C55.3431 4.53315 55.6091 4.45274 55.9543 4.45274C56.1698 4.45274 56.4219 4.4882 56.7103 4.55799" fill="var(--fill-0, #010101)"/>
<path id="Vector_18" d="M58.589 4.91507C58.5288 4.87125 58.423 4.84957 58.2739 4.84957C58.1556 4.84957 58.0176 4.85567 57.8595 4.86877C57.7014 4.88097 57.5627 4.89745 57.4451 4.91733L57.4018 4.54647C57.537 4.52118 57.6889 4.49927 57.8574 4.48098C58.0262 4.46246 58.1795 4.45365 58.3172 4.45365C58.6427 4.45365 58.8814 4.51034 59.0339 4.62439C59.1865 4.73845 59.2629 4.91868 59.2629 5.166V6.45947H58.8094L58.7659 6.23204C58.6476 6.40888 58.4033 6.49764 58.0315 6.49764C57.7607 6.49764 57.5604 6.44434 57.4289 6.33773C57.2981 6.23113 57.2322 6.06806 57.2322 5.84876C57.2322 5.62945 57.3021 5.46977 57.4414 5.36859C57.5808 5.26763 57.8104 5.21704 58.1302 5.21704H58.679V5.16238C58.679 5.04155 58.649 4.95956 58.5888 4.91575M57.9021 5.60122C57.8447 5.64504 57.816 5.72002 57.816 5.82663C57.816 5.92758 57.8454 6.00008 57.9042 6.04367C57.963 6.08726 58.0588 6.10917 58.1913 6.10917C58.341 6.10917 58.4593 6.07913 58.5476 6.01838C58.6351 5.9583 58.6793 5.87292 58.6793 5.76361V5.53617H58.1915C58.0563 5.53617 57.9598 5.55808 57.9024 5.60167" fill="var(--fill-0, #010101)"/>
<path id="Vector_19" d="M60.0141 4.49566V3.97325H60.6014V4.49566H61.0936V4.9171H60.6014V5.7932C60.6014 5.8806 60.6225 5.94339 60.6644 5.98314C60.7063 6.02267 60.7672 6.04186 60.8478 6.04186H61.0941L61.0464 6.46331H60.7741C60.2674 6.46331 60.0139 6.2291 60.0139 5.76V4.91733H59.6514V4.49588H60.0139L60.0141 4.49566Z" fill="var(--fill-0, #010101)"/>
<path id="Vector_20" d="M61.6464 4.13293V3.63582H62.2338V4.13293H61.6464ZM61.6464 6.45495V4.49566H62.2338V6.45495H61.6464Z" fill="var(--fill-0, #010101)"/>
<path id="Vector_21" d="M63.0653 4.69576C63.257 4.53383 63.5309 4.45342 63.8879 4.45342C64.2448 4.45342 64.5185 4.53405 64.7083 4.69576C64.8979 4.85703 64.9933 5.08988 64.9933 5.39298V5.56169C64.9933 5.86208 64.8981 6.09291 64.7083 6.25485C64.518 6.41678 64.2448 6.49719 63.8879 6.49719C63.5309 6.49719 63.2565 6.41656 63.0653 6.25485C62.8734 6.09359 62.7783 5.86208 62.7783 5.56169V5.39298C62.7783 5.08988 62.8741 4.8568 63.0653 4.69576ZM64.2784 5.92352C64.3631 5.84763 64.4057 5.73222 64.4057 5.57796V5.37175C64.4057 5.2202 64.3631 5.10614 64.2784 5.03026C64.1937 4.95437 64.0629 4.9162 63.8879 4.9162C63.7128 4.9162 63.5776 4.95437 63.4925 5.03026C63.4077 5.10614 63.3651 5.2202 63.3651 5.37175V5.57796C63.3651 5.73222 63.4077 5.84763 63.4925 5.92352C63.5772 5.9994 63.7087 6.03757 63.8879 6.03757C64.067 6.03757 64.1937 5.9994 64.2784 5.92352Z" fill="var(--fill-0, #010101)"/>
<path id="Vector_22" d="M66.0172 4.49566L66.0515 4.68967C66.1117 4.61378 66.1992 4.55573 66.3126 4.51485C66.4261 4.47375 66.5582 4.45342 66.708 4.45342C67.0132 4.45342 67.2386 4.52863 67.3843 4.67883C67.5299 4.82902 67.6019 5.05307 67.6019 5.35075V6.45428H67.0145V5.33358C67.0145 5.17661 66.9838 5.06391 66.9215 4.99683C66.8592 4.9293 66.752 4.89587 66.5995 4.89587C66.2943 4.89587 66.1418 5.01806 66.1418 5.26266V6.45495H65.5545V4.49566H66.0172Z" fill="var(--fill-0, #010101)"/>
<path id="Vector_23" d="M68.5371 6.46715C68.3656 6.44728 68.2137 6.42062 68.0815 6.3872L68.1635 5.99511C68.489 6.05383 68.7698 6.0832 69.0057 6.0832C69.161 6.0832 69.2682 6.06829 69.3277 6.03893C69.3865 6.00957 69.4166 5.9583 69.4166 5.88535C69.4166 5.8465 69.4048 5.81578 69.3823 5.79455C69.3592 5.77332 69.3145 5.75435 69.2488 5.73786C69.1823 5.7207 69.0744 5.70173 68.9247 5.67914C68.6971 5.643 68.5235 5.60122 68.4045 5.55492C68.2848 5.50839 68.2015 5.44967 68.154 5.37807C68.1063 5.30648 68.0827 5.21004 68.0827 5.0892C68.0827 4.66505 68.395 4.45274 69.02 4.45274C69.2847 4.45274 69.5856 4.48888 69.9224 4.56206L69.8363 4.94985C69.534 4.89655 69.2763 4.8699 69.0636 4.8699C68.9138 4.8699 68.8101 4.88345 68.7529 4.9101C68.6955 4.93675 68.6668 4.9826 68.6668 5.04674C68.6668 5.08898 68.6779 5.12263 68.699 5.1477C68.7207 5.173 68.7633 5.19423 68.8284 5.21049C68.8927 5.22766 68.993 5.24527 69.1286 5.26515C69.3645 5.29857 69.5437 5.3381 69.6662 5.38327C69.7886 5.42822 69.8748 5.48694 69.9252 5.56011C69.9757 5.63329 70.0009 5.73289 70.0009 5.85915C70.0009 6.07845 69.9245 6.23881 69.772 6.34203C69.6194 6.44434 69.3773 6.49561 69.0467 6.49561C68.8793 6.49561 68.7108 6.48612 68.5392 6.46625" fill="var(--fill-0, #010101)"/>
<path id="Vector_24" d="M35.3486 8.33159C35.5396 8.16965 35.8142 8.08925 36.1712 8.08925C36.5282 8.08925 36.8018 8.16988 36.9916 8.33159C37.1812 8.49285 37.2766 8.72571 37.2766 9.0288V9.19752C37.2766 9.49791 37.1815 9.72873 36.9916 9.89067C36.8013 10.0526 36.5282 10.133 36.1712 10.133C35.8142 10.133 35.5399 10.0524 35.3486 9.89067C35.1567 9.72941 35.0616 9.49791 35.0616 9.19752V9.0288C35.0616 8.72571 35.1574 8.49353 35.3486 8.33159ZM36.5624 9.55934C36.6471 9.48345 36.6897 9.36804 36.6897 9.21378V9.00758C36.6897 8.85603 36.6471 8.74197 36.5624 8.66608C36.4777 8.59019 36.3469 8.55202 36.1719 8.55202C35.9969 8.55202 35.8617 8.59019 35.7772 8.66608C35.6924 8.74197 35.6498 8.85603 35.6498 9.00758V9.21378C35.6498 9.36804 35.6924 9.48345 35.7772 9.55934C35.8619 9.63523 35.9934 9.6734 36.1719 9.6734C36.3504 9.6734 36.4777 9.63523 36.5624 9.55934Z" fill="var(--fill-0, #010101)"/>
<path id="Vector_25" d="M38.173 7.46972C38.3158 7.33783 38.5334 7.27165 38.8274 7.27165H39.1733L39.1298 7.71003H38.905C38.7728 7.71003 38.6795 7.73533 38.6265 7.78592C38.5732 7.83651 38.5466 7.92663 38.5466 8.05559V8.13555H39.0603V8.5527H38.5466V10.0906H37.9593V8.5527H37.6394V8.13555H37.9593V8.07208C37.9593 7.80241 38.0306 7.60162 38.1727 7.46972" fill="var(--fill-0, #010101)"/>
<path id="Vector_26" d="M41.2286 7.37283H40.6413V10.0901H41.2286V7.37283Z" fill="var(--fill-0, #010101)"/>
<path id="Vector_27" d="M41.8585 8.1308H42.3206L42.3641 8.3876C42.4852 8.18817 42.6706 8.08857 42.9213 8.08857H43.1936L43.1503 8.56874H42.8822C42.747 8.56874 42.6408 8.60758 42.5623 8.68483C42.4845 8.76207 42.4454 8.86641 42.4454 8.99899V10.0903H41.858V8.13103H41.8587L41.8585 8.1308Z" fill="var(--fill-0, #010101)"/>
<path id="Vector_28" d="M44.8173 8.54999C44.7572 8.50618 44.6514 8.48449 44.5023 8.48449C44.384 8.48449 44.246 8.49059 44.0879 8.50369C43.9298 8.51589 43.7911 8.53237 43.6735 8.55225L43.63 8.18139C43.7652 8.1561 43.917 8.13419 44.0856 8.1159C44.2543 8.09738 44.4076 8.08857 44.5453 8.08857C44.8708 8.08857 45.1095 8.14526 45.2621 8.25931C45.4146 8.37337 45.491 8.5536 45.491 8.80092V10.0944H45.0375L44.994 9.86695C44.8757 10.0438 44.6314 10.1326 44.2597 10.1326C43.9888 10.1326 43.7885 10.0793 43.6571 9.97266C43.5263 9.86605 43.4603 9.70298 43.4603 9.48368C43.4603 9.26437 43.5302 9.10469 43.6696 9.00351C43.8089 8.90232 44.0386 8.85196 44.3583 8.85196H44.9072V8.7973C44.9072 8.67647 44.8771 8.59449 44.8169 8.55067M44.1307 9.23704C44.0733 9.28086 44.0446 9.35584 44.0446 9.46245C44.0446 9.56341 44.074 9.63591 44.1328 9.6795C44.1916 9.72309 44.2874 9.74499 44.4199 9.74499C44.5696 9.74499 44.6879 9.71495 44.7761 9.6542C44.8636 9.59412 44.9079 9.50875 44.9079 9.39943V9.172H44.4201C44.2849 9.172 44.1884 9.1939 44.1309 9.23749" fill="var(--fill-0, #010101)"/>
<path id="Vector_29" d="M46.5701 8.1308L46.6043 8.32481C46.6645 8.24893 46.752 8.19088 46.8655 8.15C46.9789 8.1089 47.1111 8.08857 47.2609 8.08857C47.566 8.08857 47.7915 8.16378 47.9371 8.31397C48.0827 8.46416 48.1547 8.68821 48.1547 8.98589V10.0894H47.5674V8.96873C47.5674 8.81176 47.5366 8.69906 47.4743 8.63198C47.412 8.56445 47.3048 8.53102 47.1523 8.53102C46.8472 8.53102 46.6946 8.65321 46.6946 8.89781V10.0901H46.1073V8.1308H46.5701Z" fill="var(--fill-0, #010101)"/>
</g>
</svg>
