<svg preserveAspectRatio="none" width="100%" height="100%" overflow="visible" style="display: block;" viewBox="0 0 30 40" fill="none" xmlns="http://www.w3.org/2000/svg">
<g id="_Layer_" clip-path="url(#clip0_178_44)">
<path id="Vector" d="M4.12973 21.1864H19.9405C20.36 21.1864 20.7 20.8421 20.7 20.4172V11.4581C20.7 11.0332 20.36 10.6888 19.9405 10.6888H4.12973C3.71023 10.6888 3.37024 11.0332 3.37024 11.4581V20.4172C3.37024 20.8421 3.71023 21.1864 4.12973 21.1864ZM4.88922 12.2273H19.1811V19.648H4.88922V12.2273Z" fill="var(--fill-0, #0095DA)"/>
<path id="Vector_2" d="M26.2761 16.4273C25.8566 16.4273 25.5166 16.7716 25.5166 17.1965V28.3956C25.5166 28.8204 25.8566 29.1648 26.2761 29.1648C26.6956 29.1648 27.0356 28.8204 27.0356 28.3956V17.1965C27.0356 16.7716 26.6956 16.4273 26.2761 16.4273Z" fill="var(--fill-0, #0095DA)"/>
<path id="Vector_3" d="M10.808 29.0548H8.23905C7.81955 29.0548 7.47956 29.3992 7.47956 29.824C7.47956 30.2489 7.81955 30.5933 8.23905 30.5933H10.808C11.2275 30.5933 11.5675 30.2489 11.5675 29.824C11.5675 29.3992 11.2275 29.0548 10.808 29.0548Z" fill="var(--fill-0, #0095DA)"/>
<path id="Vector_4" d="M10.808 24.3513H8.23905C7.81955 24.3513 7.47956 24.6957 7.47956 25.1206C7.47956 25.5454 7.81955 25.8898 8.23905 25.8898H10.808C11.2275 25.8898 11.5675 25.5454 11.5675 25.1206C11.5675 24.6957 11.2275 24.3513 10.808 24.3513Z" fill="var(--fill-0, #0095DA)"/>
<path id="Vector_5" d="M5.78352 24.3513H3.21454C2.79504 24.3513 2.45505 24.6957 2.45505 25.1206C2.45505 25.5454 2.79504 25.8898 3.21454 25.8898H5.78352C6.20302 25.8898 6.54301 25.5454 6.54301 25.1206C6.54301 24.6957 6.20302 24.3513 5.78352 24.3513Z" fill="var(--fill-0, #0095DA)"/>
<path id="Vector_6" d="M15.8322 24.3513H13.2632C12.8437 24.3513 12.5037 24.6957 12.5037 25.1206C12.5037 25.5454 12.8437 25.8898 13.2632 25.8898H15.8322C16.2517 25.8898 16.5917 25.5454 16.5917 25.1206C16.5917 24.6957 16.2517 24.3513 15.8322 24.3513Z" fill="var(--fill-0, #0095DA)"/>
<path id="Vector_7" d="M5.78352 29.0548H3.21454C2.79504 29.0548 2.45505 29.3992 2.45505 29.824C2.45505 30.2489 2.79504 30.5933 3.21454 30.5933H5.78352C6.20302 30.5933 6.54301 30.2489 6.54301 29.824C6.54301 29.3992 6.20302 29.0548 5.78352 29.0548Z" fill="var(--fill-0, #0095DA)"/>
<path id="Vector_8" d="M15.8322 29.0548H13.2632C12.8437 29.0548 12.5037 29.3992 12.5037 29.824C12.5037 30.2489 12.8437 30.5933 13.2632 30.5933H15.8322C16.2517 30.5933 16.5917 30.2489 16.5917 29.824C16.5917 29.3992 16.2517 29.0548 15.8322 29.0548Z" fill="var(--fill-0, #0095DA)"/>
<path id="Vector_9" d="M10.808 33.7582H8.23905C7.81955 33.7582 7.47956 34.1025 7.47956 34.5274C7.47956 34.9523 7.81955 35.2966 8.23905 35.2966H10.808C11.2275 35.2966 11.5675 34.9523 11.5675 34.5274C11.5675 34.1025 11.2275 33.7582 10.808 33.7582Z" fill="var(--fill-0, #0095DA)"/>
<path id="Vector_10" d="M5.78352 33.7582H3.21454C2.79504 33.7582 2.45505 34.1025 2.45505 34.5274C2.45505 34.9523 2.79504 35.2966 3.21454 35.2966H5.78352C6.20302 35.2966 6.54301 34.9523 6.54301 34.5274C6.54301 34.1025 6.20302 33.7582 5.78352 33.7582Z" fill="var(--fill-0, #0095DA)"/>
<path id="Vector_11" d="M15.8322 33.7582H13.2632C12.8437 33.7582 12.5037 34.1025 12.5037 34.5274C12.5037 34.9523 12.8437 35.2966 13.2632 35.2966H15.8322C16.2517 35.2966 16.5917 34.9523 16.5917 34.5274C16.5917 34.1025 16.2517 33.7582 15.8322 33.7582Z" fill="var(--fill-0, #0095DA)"/>
<path id="Vector_12" d="M27.5791 13.0676H24.0712V9.3416C24.0712 7.29496 22.5774 5.62958 20.7409 5.62958H19.7146V0.768881C19.7146 0.608184 19.6649 0.451573 19.5724 0.321044C19.3281 -0.0242682 18.8536 -0.103595 18.5127 0.143881L17.223 1.07753L15.9357 0.143881C15.6713 -0.0478259 15.3157 -0.0478259 15.0513 0.143881L13.7659 1.07705L12.4776 0.143881C12.2131 -0.0480663 11.8573 -0.0480663 11.5928 0.143881L10.3059 1.07753L9.01907 0.143881C8.75467 -0.0478259 8.39914 -0.0478259 8.13474 0.143881L6.84788 1.07753L5.5609 0.143881C5.43202 0.0503712 5.27739 -0.000109537 5.11873 -0.000109537C4.69923 -0.000229729 4.35912 0.344001 4.359 0.768881V5.62946H3.33084C1.4943 5.62958 0 7.29496 0 9.3416V36.2879C0 38.3345 1.4943 39.9999 3.33084 39.9999H20.7409C22.5774 39.9999 24.0712 38.3345 24.0712 36.2879V32.5239H27.5791C28.9158 32.521 29.9985 31.4234 30 30.0696V15.5219C29.9985 14.168 28.9158 13.0704 27.5791 13.0676ZM5.87798 2.26407L6.40535 2.64869C6.66987 2.84064 7.02564 2.84064 7.29016 2.64869L8.57655 1.71503L9.86389 2.64869C10.1283 2.8404 10.4838 2.8404 10.7482 2.64869L12.0351 1.71503L13.3224 2.64869C13.5868 2.8404 13.9424 2.8404 14.2067 2.64869L15.4936 1.71503L16.7809 2.65061C17.0453 2.84232 17.4009 2.84232 17.6653 2.65061L18.1931 2.266V6.3797C18.193 6.38607 18.1927 6.39232 18.1927 6.39869C18.1927 6.40506 18.193 6.41143 18.1931 6.41768V7.83859H5.87798V2.26407ZM22.5522 36.2879C22.5522 37.4864 21.7377 38.4614 20.7409 38.4614H3.33084C2.33164 38.4614 1.51898 37.4864 1.51898 36.2879V9.3416C1.51898 8.14304 2.33401 7.16804 3.33084 7.16804H4.359V8.60794C4.359 9.03282 4.69899 9.37717 5.11849 9.37717H18.9527C18.9536 9.37717 18.9543 9.37717 18.9551 9.37717C19.3746 9.37717 19.7146 9.03282 19.7146 8.60794V7.16804H20.7409C21.7396 7.16804 22.5522 8.14304 22.5522 9.3416V36.2879ZM28.481 30.072C28.4792 30.5757 28.0765 30.9837 27.5791 30.9855H24.0736L24.0712 14.606H27.5791C28.0773 14.6082 28.4802 15.0173 28.481 15.5219V30.072Z" fill="var(--fill-0, #0095DA)"/>
<path id="Vector_13" d="M20.8567 23.4364H18.2872C17.8677 23.4364 17.5277 23.7808 17.5277 24.2056V35.4042C17.5277 35.8291 17.8677 36.1734 18.2872 36.1734H20.8567C21.2762 36.1734 21.6162 35.8291 21.6162 35.4042V24.2056C21.6162 23.7808 21.2762 23.4364 20.8567 23.4364ZM20.0972 34.6351H19.0467V24.975H20.0972V34.6351Z" fill="var(--fill-0, #0095DA)"/>
</g>
<defs>
<clipPath id="clip0_178_44">
<rect width="30" height="40" fill="white"/>
</clipPath>
</defs>
</svg>
