<svg preserveAspectRatio="none" width="100%" height="100%" overflow="visible" style="display: block;" viewBox="0 0 38 38" fill="none" xmlns="http://www.w3.org/2000/svg">
<g id="construction_24dp_E3E3E3_FILL0_wght300_GRAD0_opsz24 2">
<path id="Vector" d="M28.7193 31.2067L21.2412 23.7286L23.7437 21.2258L31.2221 28.7039C31.5591 29.0408 31.7276 29.458 31.7276 29.9555C31.7276 30.4526 31.5591 30.8697 31.2221 31.2067C30.8852 31.5437 30.468 31.7122 29.9705 31.7122C29.4734 31.7122 29.0563 31.5437 28.7193 31.2067ZM6.79329 31.2067C6.45631 30.8697 6.28781 30.4526 6.28781 29.9555C6.28781 29.458 6.45631 29.0408 6.79329 28.7039L16.5126 18.985L12.8159 15.3033C12.556 15.5632 12.2272 15.6932 11.8295 15.6932C11.4315 15.6932 11.1026 15.5632 10.8427 15.3033L10.0696 14.5148V17.8184C10.0696 18.1472 9.92394 18.3701 9.6326 18.487C9.34127 18.6036 9.07883 18.5452 8.84529 18.3116L4.85054 14.3169C4.617 14.0834 4.55868 13.821 4.67558 13.53C4.79222 13.2386 5.01494 13.093 5.34375 13.093H8.64738L7.9135 12.3591C7.62744 12.0728 7.48442 11.7363 7.48442 11.3497C7.48442 10.9631 7.62744 10.6267 7.9135 10.3404L11.4214 6.83287C11.8679 6.38611 12.3515 6.05928 12.8721 5.85239C13.3928 5.64524 13.9343 5.54167 14.4966 5.54167C14.9431 5.54167 15.3643 5.60566 15.7601 5.73364C16.1559 5.86137 16.5427 6.06337 16.9203 6.33967C17.1008 6.46132 17.2003 6.62823 17.2188 6.8404C17.237 7.05256 17.1639 7.24085 16.9995 7.40525L14.4479 9.95679L15.3188 10.8276C15.5784 11.0873 15.7083 11.4161 15.7083 11.814C15.7083 12.212 15.5784 12.5408 15.3188 12.8005L19.015 16.4821L22.8214 12.6758C22.6448 12.3551 22.5159 12.0238 22.4346 11.6818C22.3534 11.3396 22.3127 10.9798 22.3127 10.6024C22.3127 9.17739 22.804 7.97367 23.7864 6.99121C24.7689 6.00875 25.9726 5.51752 27.3976 5.51752C27.5784 5.51752 27.7433 5.52148 27.8924 5.5294C28.0418 5.53758 28.1986 5.56304 28.363 5.60579C28.5599 5.67467 28.6888 5.81413 28.7498 6.02419C28.8105 6.23451 28.7638 6.41672 28.6096 6.57083L26.1887 8.99136C26.0407 9.13966 25.9667 9.30921 25.9667 9.5C25.9667 9.69079 26.0407 9.86034 26.1887 10.0086L27.9914 11.8113C28.1397 11.9593 28.3092 12.0333 28.5 12.0333C28.6908 12.0333 28.8603 11.9593 29.0086 11.8113L31.4292 9.39035C31.5833 9.23624 31.7655 9.18558 31.9758 9.23835C32.1859 9.29113 32.3253 9.424 32.3942 9.63696C32.437 9.80136 32.4624 9.95824 32.4706 10.1076C32.4785 10.2567 32.4825 10.4216 32.4825 10.6024C32.4825 12.0274 31.9913 13.2311 31.0088 14.2136C30.0263 15.196 28.8226 15.6873 27.3976 15.6873C27.0202 15.6873 26.6604 15.6507 26.3182 15.5776C25.9762 15.5045 25.6449 15.3715 25.3242 15.1786L9.29615 31.2067C8.95916 31.5437 8.54195 31.7122 8.04452 31.7122C7.54735 31.7122 7.13028 31.5437 6.79329 31.2067Z" fill="var(--fill-0, #0095DA)"/>
</g>
</svg>
