<svg preserveAspectRatio="none" width="100%" height="100%" overflow="visible" style="display: block;" viewBox="0 0 41 41" fill="none" xmlns="http://www.w3.org/2000/svg">
<g id="person_play_24dp_E3E3E3_FILL0_wght300_GRAD0_opsz24 1">
<path id="Vector" d="M8.54508 19.7411L4.86533 16.0618C4.55669 15.7528 4.40508 15.3925 4.41049 14.9808C4.4159 14.5691 4.57307 14.2088 4.88199 13.8999L8.54508 10.2368C8.85372 9.92812 9.21404 9.7738 9.62603 9.7738C10.0377 9.7738 10.3979 9.92812 10.7066 10.2368L14.3696 13.8999C14.6786 14.2088 14.833 14.5691 14.833 14.9808C14.833 15.3925 14.6786 15.7528 14.3696 16.0618L10.7066 19.7248C10.3979 20.0335 10.0377 20.1905 9.62603 20.1959C9.21404 20.2016 8.85372 20.05 8.54508 19.7411ZM17.6091 36.7292C17.1715 36.7292 16.8047 36.5811 16.5089 36.285C16.2131 35.9892 16.0652 35.6224 16.0652 35.1848V28.5326C14.5997 28.417 13.149 28.2583 11.7132 28.0564C10.277 27.8545 8.84105 27.5949 7.4052 27.2774C7.0305 27.1854 6.72386 26.9834 6.48526 26.6714C6.24638 26.3593 6.18175 26.0188 6.29136 25.6498C6.40098 25.2808 6.62435 25.0097 6.96146 24.8366C7.29885 24.6635 7.65476 24.6229 8.02917 24.7149C10.0749 25.1881 12.1401 25.5155 14.2249 25.6972C16.3096 25.8791 18.4013 25.9701 20.5 25.9701C22.5987 25.9701 24.6904 25.8791 26.7751 25.6972C28.8599 25.5155 30.9251 25.1881 32.9708 24.7149C33.3452 24.6229 33.7013 24.6629 34.039 24.8349C34.3766 25.0072 34.5999 25.2759 34.7086 25.6412C34.8183 26.0159 34.7536 26.3593 34.5147 26.6714C34.2761 26.9834 33.9695 27.1854 33.5948 27.2774C32.1589 27.5949 30.723 27.8545 29.2868 28.0564C27.851 28.2583 26.4003 28.417 24.9348 28.5326V35.1848C24.9348 35.6224 24.7869 35.9892 24.4911 36.285C24.1953 36.5811 23.8285 36.7292 23.3909 36.7292H17.6091ZM9.62603 17.2379L11.8665 14.9808L9.62603 12.7403L7.3689 14.9808L9.62603 17.2379ZM20.5 12.2868C19.2407 12.2868 18.1703 11.846 17.2888 10.9645C16.4073 10.083 15.9665 9.0126 15.9665 7.75327C15.9665 6.49394 16.4073 5.42353 17.2888 4.54203C18.1703 3.66053 19.2407 3.21978 20.5 3.21978C21.7593 3.21978 22.8297 3.66053 23.7112 4.54203C24.5927 5.42353 25.0335 6.49394 25.0335 7.75327C25.0335 9.0126 24.5927 10.083 23.7112 10.9645C22.8297 11.846 21.7593 12.2868 20.5 12.2868ZM20.5 23.736C19.6327 23.736 18.8903 23.4272 18.2728 22.8097C17.6549 22.1918 17.346 21.4493 17.346 20.582C17.346 19.7147 17.6549 18.9723 18.2728 18.3548C18.8903 17.7372 19.6327 17.4284 20.5 17.4284C21.3673 17.4284 22.1097 17.7372 22.7272 18.3548C23.3451 18.9723 23.654 19.7147 23.654 20.582C23.654 21.4493 23.3451 22.1918 22.7272 22.8097C22.1097 23.4272 21.3673 23.736 20.5 23.736ZM20.5 9.72426C21.0498 9.72426 21.5157 9.53321 21.8978 9.15112C22.2799 8.76902 22.471 8.30307 22.471 7.75327C22.471 7.20347 22.2799 6.73752 21.8978 6.35543C21.5157 5.97333 21.0498 5.78228 20.5 5.78228C19.9502 5.78228 19.4843 5.97333 19.1022 6.35543C18.7201 6.73752 18.529 7.20347 18.529 7.75327C18.529 8.30307 18.7201 8.76902 19.1022 9.15112C19.4843 9.53321 19.9502 9.72426 20.5 9.72426ZM28.6411 19.5967L26.9229 16.6071C26.7914 16.3762 26.7256 16.1197 26.7256 15.8375C26.7256 15.5554 26.7914 15.2971 26.9229 15.0628L28.6411 12.0732C28.7723 11.8215 28.9543 11.6299 29.1869 11.4984C29.4192 11.3671 29.6775 11.3015 29.9616 11.3015H33.2958C33.58 11.3015 33.8384 11.3671 34.071 11.4984C34.3033 11.6299 34.4853 11.8215 34.6168 12.0732L36.335 15.0628C36.4662 15.2937 36.5319 15.5502 36.5319 15.8324C36.5319 16.1146 36.4662 16.3728 36.335 16.6071L34.6168 19.5967C34.4853 19.8484 34.3033 20.04 34.071 20.1716C33.8384 20.3028 33.58 20.3685 33.2958 20.3685H29.9616C29.6775 20.3685 29.4192 20.3028 29.1869 20.1716C28.9543 20.04 28.7723 19.8484 28.6411 19.5967ZM30.5386 17.806H32.7244L33.8118 15.835L32.7189 13.864H30.533L29.4457 15.835L30.5386 17.806Z" fill="var(--fill-0, #0095DA)"/>
</g>
</svg>
