<svg preserveAspectRatio="none" width="100%" height="100%" overflow="visible" style="display: block;" viewBox="0 0 39 39" fill="none" xmlns="http://www.w3.org/2000/svg">
<g id="play_lesson_24dp_E3E3E3_FILL0_wght300_GRAD0_opsz24 1">
<path id="Vector" d="M8.62509 34.9375C7.8042 34.9375 7.10937 34.6531 6.54062 34.0844C5.97187 33.5156 5.6875 32.8208 5.6875 31.9999V7.00009C5.6875 6.1792 5.97187 5.48437 6.54062 4.91562C7.10937 4.34687 7.8042 4.0625 8.62509 4.0625H27.1249C27.9458 4.0625 28.6406 4.34687 29.2094 4.91562C29.7781 5.48437 30.0625 6.1792 30.0625 7.00009V17.1718C30.0625 17.5176 29.9458 17.8073 29.7123 18.0407C29.4791 18.2739 29.1896 18.3905 28.8437 18.3905C28.4979 18.3905 28.2084 18.2739 27.9752 18.0407C27.7417 17.8073 27.625 17.5176 27.625 17.1718V7.00009C27.625 6.87497 27.5729 6.7604 27.4686 6.6564C27.3646 6.55213 27.25 6.5 27.1249 6.5H19.0937V15.9376C19.0937 16.2147 18.9713 16.4266 18.7265 16.5734C18.4817 16.7202 18.2343 16.7176 17.9843 16.5657L15.4375 15.0312L12.8907 16.5657C12.6407 16.7176 12.3933 16.7202 12.1485 16.5734C11.9037 16.4266 11.7812 16.2147 11.7812 15.9376V6.5H8.62509C8.49997 6.5 8.38541 6.55213 8.28141 6.6564C8.17714 6.7604 8.125 6.87497 8.125 7.00009V31.9999C8.125 32.125 8.17714 32.2396 8.28141 32.3436C8.38541 32.4479 8.49997 32.5 8.62509 32.5H17.0312C17.3771 32.5 17.6667 32.6167 17.9002 32.8502C18.1334 33.0834 18.25 33.3729 18.25 33.7187C18.25 34.0646 18.1334 34.3541 17.9002 34.5873C17.6667 34.8208 17.3771 34.9375 17.0312 34.9375H8.62509ZM28.8437 36.3122C26.8147 36.3122 25.0886 35.6009 23.6657 34.1782C22.2427 32.7553 21.5312 31.0292 21.5312 29.0002C21.5312 26.9708 22.2427 25.2448 23.6657 23.8221C25.0886 22.3991 26.8147 21.6877 28.8437 21.6877C30.8728 21.6877 32.5989 22.3991 34.0218 23.8221C35.4448 25.2448 36.1562 26.9708 36.1562 29.0002C36.1562 31.0292 35.4448 32.7553 34.0218 34.1782C32.5989 35.6009 30.8728 36.3122 28.8437 36.3122ZM28.275 31.8061L31.6688 29.5811C31.8979 29.4292 32.0125 29.2251 32.0125 28.9689C32.0125 28.7124 31.8979 28.5082 31.6688 28.3562L28.275 26.1312C28.025 25.9793 27.7708 25.9699 27.5125 26.1032C27.2541 26.2364 27.1249 26.45 27.1249 26.7438V31.1935C27.1249 31.4874 27.2541 31.7009 27.5125 31.8342C27.7708 31.9677 28.025 31.9583 28.275 31.8061Z" fill="var(--fill-0, #0095DA)"/>
</g>
</svg>
