<svg preserveAspectRatio="none" width="100%" height="100%" overflow="visible" style="display: block;" viewBox="0 0 9 12" fill="none" xmlns="http://www.w3.org/2000/svg">
<path id="Vector" d="M8.15653 7.59936V3.54639C8.15653 1.35084 6.59828 0 4.34854 0H0.47133L0.298396 1.85744H4.34854C5.59449 1.85744 6.25242 2.36426 6.25242 3.54639V6.41724H3.65611C2.44443 6.41724 1.85572 6.07913 1.92494 4.897L2.02842 2.70146H0.22802L0.0201291 4.897C-0.18776 7.09254 1.23182 8.27467 3.48226 8.27467C4.40827 8.27467 5.33451 8.23515 6.24501 8.17078C6.1744 9.50852 5.47573 9.96272 4.00152 9.96272H0.0205926V11.8202H4.00152C6.59782 11.8202 8.15584 10.3006 8.15584 7.59846" fill="var(--fill-0, #010101)"/>
</svg>
