<svg preserveAspectRatio="none" width="100%" height="100%" overflow="visible" style="display: block;" viewBox="0 0 37 27" fill="none" xmlns="http://www.w3.org/2000/svg">
<path id="Vector" d="M18.3579 14.8479C17.4739 14.8479 16.7144 14.5304 16.0794 13.8954C15.4445 13.2605 15.127 12.501 15.127 11.6169C15.127 10.7332 15.4445 9.97383 16.0794 9.33888C16.7144 8.70392 17.4739 8.38644 18.3579 8.38644C19.242 8.38644 20.0015 8.70392 20.6364 9.33888C21.2714 9.97383 21.5889 10.7332 21.5889 11.6169C21.5889 12.501 21.2714 13.2605 20.6364 13.8954C20.0015 14.5304 19.242 14.8479 18.3579 14.8479ZM2.62456 7.777V21.602C2.95444 22.0599 3.48396 22.4666 4.21313 22.8222C4.94229 23.1777 5.80956 23.4453 6.81494 23.625V9.31875C5.92623 9.13908 5.12969 8.92077 4.42531 8.66381C3.72065 8.40715 3.1204 8.11154 2.62456 7.777ZM34.0913 7.75031C33.5955 8.08456 32.9997 8.38017 32.3041 8.63712C31.6085 8.89408 30.8074 9.11225 29.9009 9.29163V23.625C30.9063 23.4453 31.7736 23.1777 32.5027 22.8222C33.2319 22.4666 33.7614 22.0599 34.0913 21.602V7.75031ZM0 21.8312V4.70138C0 3.17333 1.55983 2.00783 4.6795 1.20487C7.79917 0.401624 12.3586 0 18.3579 0C24.3572 0 28.9167 0.401624 32.0364 1.20487C35.156 2.00783 36.7159 3.17333 36.7159 4.70138V21.8312C36.6934 22.8565 36.0961 23.7644 34.9239 24.5551C33.7517 25.3461 32.0752 25.9671 29.8944 26.418C29.2034 26.5638 28.5943 26.404 28.0669 25.9385C27.5399 25.473 27.2764 24.8948 27.2764 24.2038V9.3555C27.2764 8.69808 27.4878 8.11256 27.9107 7.59894C28.3337 7.08502 28.8737 6.76083 29.5308 6.62638C30.5808 6.37729 31.4621 6.10123 32.1746 5.79819C32.8869 5.49544 33.4091 5.16571 33.7413 4.809C32.6554 4.14487 30.694 3.61025 27.8569 3.20513C25.0199 2.80029 21.8536 2.59788 18.3579 2.59788C14.8174 2.59788 11.6006 2.80875 8.70756 3.2305C5.81452 3.65225 3.90352 4.17842 2.97456 4.809C3.28431 5.16571 3.79531 5.49996 4.50756 5.81175C5.2201 6.12383 6.1126 6.40427 7.18506 6.65306C7.84219 6.8056 8.38221 7.12979 8.80512 7.62562C9.22804 8.12146 9.4395 8.69808 9.4395 9.3555V24.2038C9.4395 24.8948 9.17598 25.4702 8.64894 25.9302C8.1216 26.3901 7.51246 26.5528 6.8215 26.418C4.64071 25.9671 2.96421 25.3461 1.792 24.5551C0.619792 23.7644 0.0224583 22.8565 0 21.8312ZM18.3579 16.4631C20.2896 16.4631 21.8495 16.8216 23.0374 17.5385C24.2254 18.2554 24.8194 19.2049 24.8194 20.3871C24.8194 20.6566 24.733 20.8776 24.5604 21.0503C24.3877 21.223 24.1666 21.3093 23.8971 21.3093H12.8187C12.5492 21.3093 12.3282 21.223 12.1555 21.0503C11.9828 20.8776 11.8965 20.6566 11.8965 20.3871C11.8965 19.2049 12.4905 18.2554 13.6784 17.5385C14.8664 16.8216 16.4262 16.4631 18.3579 16.4631Z" fill="var(--fill-0, #0095DA)"/>
</svg>
