<svg preserveAspectRatio="none" width="100%" height="100%" overflow="visible" style="display: block;" viewBox="0 0 39 39" fill="none" xmlns="http://www.w3.org/2000/svg">
<g id="laptop_car_24dp_E3E3E3_FILL0_wght300_GRAD0_opsz24 1">
<path id="Vector" d="M16.4377 34.0685V25.4L18.6282 19.0812C18.7427 18.7876 18.9229 18.5496 19.1685 18.3674C19.4139 18.1851 19.6962 18.094 20.0155 18.094H31.3592C31.6786 18.094 31.961 18.1851 32.2067 18.3674C32.4521 18.5496 32.6322 18.7876 32.747 19.0812L34.9375 25.4V34.0685C34.9375 34.3136 34.8539 34.5197 34.6868 34.6868C34.5197 34.8539 34.3136 34.9375 34.0685 34.9375H33.3686C33.1237 34.9375 32.9178 34.8539 32.7507 34.6868C32.5836 34.5197 32.5 34.3136 32.5 34.0685V32.5H18.8748V34.0685C18.8748 34.3136 18.7914 34.5197 18.6245 34.6868C18.4574 34.8539 18.2513 34.9375 18.0062 34.9375H17.3062C17.0611 34.9375 16.855 34.8539 16.6879 34.6868C16.5211 34.5197 16.4377 34.3136 16.4377 34.0685ZM18.9126 24.1873H32.4626L31.0249 20.0314H20.3499L18.9126 24.1873ZM21.6877 29.8748C22.1213 29.8748 22.4849 29.7282 22.7784 29.4348C23.072 29.1413 23.2188 28.7775 23.2188 28.3437C23.2188 27.9098 23.072 27.5462 22.7784 27.2529C22.4849 26.9593 22.1213 26.8125 21.6877 26.8125C21.2538 26.8125 20.8901 26.9593 20.5965 27.2529C20.3029 27.5462 20.1561 27.9098 20.1561 28.3437C20.1561 28.7775 20.3029 29.1413 20.5965 29.4348C20.8901 29.7282 21.2538 29.8748 21.6877 29.8748ZM29.6875 29.8748C30.1214 29.8748 30.485 29.7282 30.7783 29.4348C31.0719 29.1413 31.2187 28.7775 31.2187 28.3437C31.2187 27.9098 31.0719 27.5462 30.7783 27.2529C30.485 26.9593 30.1214 26.8125 29.6875 26.8125C29.2537 26.8125 28.8899 26.9593 28.5963 27.2529C28.303 27.5462 28.1564 27.9098 28.1564 28.3437C28.1564 28.7775 28.303 29.1413 28.5963 29.4348C28.8899 29.7282 29.2537 29.8748 29.6875 29.8748ZM18.3751 30.5626H33.0001V26.1251H18.3751V30.5626ZM4.26562 31.6875C3.75781 31.6875 3.32624 31.5094 2.97091 31.1533C2.6153 30.7974 2.4375 30.3652 2.4375 29.8565C2.4375 29.3479 2.6153 28.9166 2.97091 28.5626C3.32624 28.2084 3.75781 28.0312 4.26562 28.0312H5.6875V10.2501C5.6875 9.4422 5.97512 8.75062 6.55037 8.17537C7.12562 7.60012 7.8172 7.3125 8.62509 7.3125H28.7499C29.5578 7.3125 30.2494 7.60012 30.8246 8.17537C31.3999 8.75062 31.6875 9.4422 31.6875 10.2501V13.3124C31.6875 13.6577 31.5706 13.9472 31.3369 14.181C31.1032 14.4144 30.8137 14.5312 30.4683 14.5312C30.1228 14.5312 29.8334 14.4144 29.6002 14.181C29.3667 13.9472 29.25 13.6577 29.25 13.3124V10.2501C29.25 10.1041 29.2031 9.98427 29.1094 9.89056C29.0157 9.79685 28.8959 9.75 28.7499 9.75H8.62509C8.47911 9.75 8.35927 9.79685 8.26556 9.89056C8.17185 9.98427 8.125 10.1041 8.125 10.2501V28.0312H11.0467C11.5546 28.0312 11.9863 28.2093 12.3419 28.5655C12.6972 28.9213 12.8749 29.3536 12.8749 29.8622C12.8749 30.3708 12.6972 30.8021 12.3419 31.1561C11.9863 31.5104 11.5546 31.6875 11.0467 31.6875H4.26562Z" fill="var(--fill-0, #0095DA)"/>
</g>
</svg>
