<svg preserveAspectRatio="none" width="100%" height="100%" overflow="visible" style="display: block;" viewBox="0 0 39 39" fill="none" xmlns="http://www.w3.org/2000/svg">
<g id="play_circle_24dp_E3E3E3_FILL0_wght300_GRAD0_opsz24 2">
<path id="Vector" d="M17.5407 24.9685L24.6187 20.4218C24.9665 20.2011 25.1404 19.8943 25.1404 19.5016C25.1404 19.1089 24.9665 18.8011 24.6187 18.5782L17.5407 14.0315C17.1761 13.7815 16.8021 13.7614 16.4186 13.9713C16.0354 14.1812 15.8437 14.5085 15.8437 14.9532V24.0467C15.8437 24.4915 16.0354 24.8188 16.4186 25.0287C16.8021 25.2385 17.1761 25.2185 17.5407 24.9685ZM19.5028 34.9375C17.3676 34.9375 15.3606 34.5323 13.4818 33.722C11.603 32.9117 9.96883 31.8119 8.57919 30.4228C7.18954 29.0337 6.08928 27.4002 5.27841 25.5222C4.4678 23.6443 4.0625 21.6378 4.0625 19.5028C4.0625 17.3676 4.46767 15.3606 5.278 13.4818C6.08833 11.603 7.18805 9.96883 8.57716 8.57919C9.96626 7.18954 11.5998 6.08928 13.4777 5.27841C15.3557 4.4678 17.3622 4.0625 19.4972 4.0625C21.6324 4.0625 23.6394 4.46767 25.5182 5.278C27.397 6.08833 29.0312 7.18805 30.4208 8.57716C31.8105 9.96626 32.9107 11.5998 33.7216 13.4777C34.5322 15.3557 34.9375 17.3622 34.9375 19.4972C34.9375 21.6324 34.5323 23.6394 33.722 25.5182C32.9117 27.397 31.8119 29.0312 30.4228 30.4208C29.0337 31.8105 27.4002 32.9107 25.5222 33.7216C23.6443 34.5322 21.6378 34.9375 19.5028 34.9375ZM19.5 32.5C23.1292 32.5 26.2031 31.2406 28.7219 28.7219C31.2406 26.2031 32.5 23.1292 32.5 19.5C32.5 15.8708 31.2406 12.7969 28.7219 10.2781C26.2031 7.75937 23.1292 6.5 19.5 6.5C15.8708 6.5 12.7969 7.75937 10.2781 10.2781C7.75937 12.7969 6.5 15.8708 6.5 19.5C6.5 23.1292 7.75937 26.2031 10.2781 28.7219C12.7969 31.2406 15.8708 32.5 19.5 32.5Z" fill="var(--fill-0, #0095DA)"/>
</g>
</svg>
