<svg preserveAspectRatio="none" width="100%" height="100%" overflow="visible" style="display: block;" viewBox="0 0 4 4" fill="none" xmlns="http://www.w3.org/2000/svg">
<path id="Vector" d="M2.19547 0.762581C2.09799 0.690719 1.9276 0.654363 1.68602 0.654363C1.49444 0.654363 1.2715 0.664508 1.01551 0.685644C0.759511 0.705934 0.535723 0.732989 0.344997 0.765961L0.274644 0.153023C0.493343 0.111597 0.739173 0.0752433 1.01128 0.0448078C1.28423 0.0143722 1.53174 0 1.75467 0C2.28108 0 2.66677 0.0938426 2.91344 0.282374C3.16011 0.470905 3.28387 0.769342 3.28387 1.17769V3.31578H2.55064L2.48028 2.93957C2.28871 3.23209 1.8937 3.37835 1.2927 3.37835C0.854452 3.37835 0.530642 3.29042 0.317876 3.11373C0.105959 2.93788 0 2.66818 0 2.30549C0 1.9428 0.113587 1.67903 0.33822 1.51163C0.5637 1.34424 0.934981 1.26138 1.45206 1.26138H2.33957V1.17092C2.33957 0.971399 2.29125 0.835284 2.19377 0.763422M1.08502 1.89715C0.992626 1.96901 0.946003 2.09329 0.946003 2.26998C0.946003 2.43738 0.993467 2.55658 1.08841 2.62929C1.18334 2.70115 1.33847 2.73751 1.55293 2.73751C1.79536 2.73751 1.98609 2.68763 2.12935 2.58702C2.27091 2.4881 2.34211 2.34692 2.34211 2.166V1.78978H1.55293C1.33423 1.78978 1.17827 1.82613 1.08502 1.898" fill="var(--fill-0, white)"/>
</svg>
