<svg preserveAspectRatio="none" width="100%" height="100%" overflow="visible" style="display: block;" viewBox="0 0 41 41" fill="none" xmlns="http://www.w3.org/2000/svg">
<g id="live_tv_24dp_E3E3E3_FILL0_wght300_GRAD0_opsz24 2">
<path id="Vector" d="M18.8609 24.278L25.5396 19.9973C25.9755 19.7103 26.1934 19.3084 26.1934 18.7917C26.1934 18.2749 25.9755 17.873 25.5396 17.586L18.8609 13.3054C18.3899 12.9899 17.9048 12.9641 17.4054 13.2281C16.906 13.492 16.6563 13.9108 16.6563 14.4845V23.0988C16.6563 23.6725 16.906 24.0913 17.4054 24.3553C17.9048 24.6192 18.3899 24.5935 18.8609 24.278ZM7.35907 31.6042C6.49608 31.6042 5.76562 31.3052 5.16771 30.7073C4.56979 30.1094 4.27083 29.3789 4.27083 28.5159V9.06741C4.27083 8.20441 4.56979 7.47396 5.16771 6.87604C5.76562 6.27812 6.49608 5.97917 7.35907 5.97917H33.6409C34.5039 5.97917 35.2344 6.27812 35.8323 6.87604C36.4302 7.47396 36.7292 8.20441 36.7292 9.06741V28.5159C36.7292 29.3789 36.4302 30.1094 35.8323 30.7073C35.2344 31.3052 34.5039 31.6042 33.6409 31.6042H26.4792V33.4765C26.4792 33.917 26.3318 34.2844 26.0371 34.5788C25.7427 34.8735 25.3753 35.0208 24.9348 35.0208H16.0652C15.6247 35.0208 15.2573 34.8735 14.9629 34.5788C14.6682 34.2844 14.5208 33.917 14.5208 33.4765V31.6042H7.35907ZM7.35907 29.0417H33.6409C33.7725 29.0417 33.8929 28.9869 34.0022 28.8772C34.1119 28.7679 34.1667 28.6475 34.1667 28.5159V9.06741C34.1667 8.93586 34.1119 8.81543 34.0022 8.70609C33.8929 8.59647 33.7725 8.54167 33.6409 8.54167H7.35907C7.22753 8.54167 7.10709 8.59647 6.99776 8.70609C6.88814 8.81543 6.83333 8.93586 6.83333 9.06741V28.5159C6.83333 28.6475 6.88814 28.7679 6.99776 28.8772C7.10709 28.9869 7.22753 29.0417 7.35907 29.0417Z" fill="var(--fill-0, #0095DA)"/>
</g>
</svg>
