<svg preserveAspectRatio="none" width="100%" height="100%" overflow="visible" style="display: block;" viewBox="0 0 41 41" fill="none" xmlns="http://www.w3.org/2000/svg">
<g id="shopping_cart_24dp_E3E3E3_FILL0_wght300_GRAD0_opsz24 2">
<path id="Vector" d="M12.221 36.8278C11.391 36.8278 10.6853 36.537 10.1039 35.9553C9.52254 35.3739 9.23183 34.6682 9.23183 33.8382C9.23183 33.008 9.52254 32.3022 10.1039 31.7208C10.6853 31.1394 11.391 30.8487 12.221 30.8487C13.0512 30.8487 13.7571 31.1394 14.3385 31.7208C14.9199 32.3022 15.2106 33.008 15.2106 33.8382C15.2106 34.6682 14.9199 35.3739 14.3385 35.9553C13.7571 36.537 13.0512 36.8278 12.221 36.8278ZM28.779 36.8278C27.9488 36.8278 27.2429 36.537 26.6615 35.9553C26.0801 35.3739 25.7894 34.6682 25.7894 33.8382C25.7894 33.008 26.0801 32.3022 26.6615 31.7208C27.2429 31.1394 27.9488 30.8487 28.779 30.8487C29.609 30.8487 30.3147 31.1394 30.8961 31.7208C31.4775 32.3022 31.7682 33.008 31.7682 33.8382C31.7682 34.6682 31.4775 35.3739 30.8961 35.9553C30.3147 36.537 29.609 36.8278 28.779 36.8278ZM10.2761 9.82292L14.6063 18.8903H26.2524C26.3509 18.8903 26.4386 18.8657 26.5155 18.8164C26.5921 18.7672 26.6577 18.6987 26.7124 18.611L31.2954 10.2829C31.3612 10.1624 31.3666 10.0557 31.3116 9.96257C31.257 9.86947 31.1638 9.82292 31.0323 9.82292H10.2761ZM9.04776 7.26042H32.7671C33.4658 7.26042 33.9941 7.55781 34.352 8.15259C34.7102 8.74709 34.7273 9.35426 34.4033 9.9741L28.9298 19.8888C28.6496 20.3817 28.279 20.7655 27.8181 21.0403C27.3568 21.3153 26.8514 21.4528 26.3019 21.4528H13.8375L11.8597 25.0664C11.772 25.1979 11.7693 25.3403 11.8516 25.4935C11.9336 25.6469 12.0567 25.7237 12.221 25.7237H30.4873C30.8507 25.7237 31.155 25.8462 31.4004 26.0914C31.6456 26.3368 31.7682 26.6413 31.7682 27.0049C31.7682 27.3685 31.6456 27.6729 31.4004 27.918C31.155 28.1634 30.8507 28.2862 30.4873 28.2862H12.221C11.0821 28.2862 10.2264 27.795 9.65379 26.8127C9.08093 25.8304 9.06072 24.8497 9.59315 23.8705L12.0305 19.4882L5.81517 6.40625H3.84375C3.48016 6.40625 3.17579 6.28353 2.93065 6.0381C2.68522 5.79296 2.5625 5.48859 2.5625 5.125C2.5625 4.76141 2.68522 4.45704 2.93065 4.2119C3.17579 3.96646 3.48016 3.84375 3.84375 3.84375H6.45536C6.74692 3.84375 7.01855 3.92091 7.27024 4.07523C7.52222 4.22983 7.71384 4.44722 7.84509 4.72739L9.04776 7.26042Z" fill="var(--fill-0, #0095DA)"/>
</g>
</svg>
