<svg preserveAspectRatio="none" width="100%" height="100%" overflow="visible" style="display: block;" viewBox="0 0 40 40" fill="none" xmlns="http://www.w3.org/2000/svg">
<g id="energy_savings_leaf_24dp_E3E3E3_FILL0_wght300_GRAD0_opsz24 1">
<path id="Vector" d="M20.0158 30C22.7936 30 25.1408 29.0251 27.0575 27.0754C28.9742 25.1257 29.955 22.7619 30 19.9842V10.5129C30 10.3632 29.9519 10.2403 29.8558 10.1442C29.7597 10.0481 29.6368 10 29.4871 10H20.0158C17.2381 10.045 14.8743 11.0258 12.9246 12.9425C10.9749 14.8592 10 17.2064 10 19.9842C10 22.7619 10.9737 25.1257 12.9212 27.0754C14.8687 29.0251 17.2336 30 20.0158 30ZM18.2108 26.6129L25.2425 20.3321C25.4719 20.1279 25.5364 19.8864 25.4358 19.6075C25.3356 19.3286 25.1293 19.1614 24.8171 19.1058L19.3142 18.5867L22.625 14.0288C22.6975 13.9113 22.7354 13.7926 22.7387 13.6729C22.7421 13.5535 22.6987 13.4435 22.6087 13.3429C22.4976 13.2149 22.3658 13.1572 22.2133 13.17C22.0608 13.1825 21.921 13.2397 21.7937 13.3417L14.8146 19.6108C14.5857 19.8147 14.5188 20.0588 14.6138 20.3429C14.7088 20.6271 14.9124 20.7969 15.2246 20.8525L20.7275 21.3717L17.4071 25.9296C17.3343 26.0471 17.3007 26.1657 17.3063 26.2854C17.3115 26.4049 17.3617 26.5149 17.4567 26.6154C17.5519 26.7157 17.6696 26.7658 17.8096 26.7658C17.9496 26.7658 18.0833 26.7149 18.2108 26.6129ZM20.0158 32.5C18.5028 32.5 17.0775 32.2515 15.74 31.7546C14.4028 31.2579 13.1914 30.5651 12.1058 29.6762L9.65375 32.1283C9.52903 32.2522 9.38861 32.3451 9.2325 32.4071C9.07639 32.469 8.91514 32.5 8.74875 32.5C8.39486 32.5 8.09833 32.38 7.85917 32.14C7.61972 31.8997 7.5 31.6022 7.5 31.2475C7.5 31.0803 7.53097 30.9193 7.59292 30.7646C7.65486 30.6096 7.74778 30.4701 7.87167 30.3463L10.3238 27.8942C9.43486 26.8086 8.74208 25.5972 8.24542 24.26C7.74847 22.9225 7.5 21.4972 7.5 19.9842C7.5 16.4989 8.71417 13.5469 11.1425 11.1283C13.5711 8.70945 16.5289 7.5 20.0158 7.5H29.4871C30.3157 7.5 31.025 7.795 31.615 8.385C32.205 8.975 32.5 9.68431 32.5 10.5129V19.9842C32.5 23.4711 31.2906 26.4289 28.8717 28.8575C26.4531 31.2858 23.5011 32.5 20.0158 32.5Z" fill="var(--fill-0, #0095DA)"/>
</g>
</svg>
