<svg preserveAspectRatio="none" width="100%" height="100%" overflow="visible" style="display: block;" viewBox="0 0 4 4" fill="none" xmlns="http://www.w3.org/2000/svg">
<path id="Vector" d="M0.464522 0.400736C0.774769 0.13358 1.21725 0 1.79452 0C2.37178 0 2.81427 0.13358 3.12112 0.400736C3.42798 0.667047 3.58226 1.05256 3.58226 1.55306V1.83205C3.58226 2.32917 3.42798 2.71045 3.12112 2.97761C2.81342 3.24561 2.37178 3.37835 1.79452 3.37835C1.21725 3.37835 0.773074 3.24477 0.464522 2.97761C0.154274 2.7113 0 2.32832 0 1.83205V1.55306C0 1.05172 0.155122 0.667047 0.464522 0.400736ZM2.42773 2.43231C2.56505 2.30718 2.63371 2.11612 2.63371 1.8608V1.52009C2.63371 1.26984 2.56505 1.08131 2.42773 0.955339C2.29041 0.830216 2.07934 0.766807 1.79621 0.766807C1.51309 0.766807 1.29439 0.830216 1.15622 0.955339C1.0189 1.08046 0.95024 1.26899 0.95024 1.52009V1.8608C0.95024 2.11612 1.0189 2.30718 1.15622 2.43231C1.29355 2.55743 1.50631 2.62084 1.79621 2.62084C2.08612 2.62084 2.29125 2.55743 2.42773 2.43231Z" fill="var(--fill-0, white)"/>
</svg>
