<svg preserveAspectRatio="none" width="100%" height="100%" overflow="visible" style="display: block;" viewBox="0 0 40 40" fill="none" xmlns="http://www.w3.org/2000/svg">
<g id="delivery_truck_bolt_24dp_E3E3E3_FILL0_wght300_GRAD0_opsz24 1">
<path id="Vector" d="M12.0833 32.5C10.8119 32.5 9.73028 32.0539 8.83833 31.1617C7.94611 30.2697 7.5 29.1881 7.5 27.9167H5.08667C4.73194 27.9167 4.43486 27.7969 4.19542 27.5575C3.95625 27.3183 3.83667 27.0214 3.83667 26.6667C3.83667 26.3119 3.95625 26.015 4.19542 25.7758C4.43486 25.5364 4.73194 25.4167 5.08667 25.4167H8.35917C8.74583 24.7819 9.26667 24.2761 9.92167 23.8992C10.5764 23.5219 11.2969 23.3333 12.0833 23.3333C12.8697 23.3333 13.5904 23.5219 14.2454 23.8992C14.9001 24.2761 15.421 24.7819 15.8079 25.4167H23.1346L26.715 10H13.3013C12.9465 10 12.6496 9.88028 12.4104 9.64083C12.171 9.40167 12.0513 9.10472 12.0513 8.75C12.0513 8.39528 12.171 8.09833 12.4104 7.85917C12.6496 7.61972 12.9465 7.5 13.3013 7.5H27.9488C28.4401 7.5 28.8365 7.68972 29.1379 8.06917C29.439 8.44833 29.5308 8.87514 29.4133 9.34958L28.3942 13.75H31.0575C31.5319 13.75 31.9839 13.8574 32.4133 14.0721C32.8428 14.2868 33.1943 14.5811 33.4679 14.955L36.5288 19.0163C36.8024 19.3729 36.9781 19.7538 37.0558 20.1588C37.1339 20.5635 37.1367 20.9807 37.0642 21.4104L36.0033 26.7117C35.9306 27.0683 35.7547 27.3583 35.4758 27.5817C35.1969 27.805 34.8792 27.9167 34.5225 27.9167H33.1408C33.1408 29.1881 32.6949 30.2697 31.8029 31.1617C30.9107 32.0539 29.829 32.5 28.5579 32.5C27.2865 32.5 26.2047 32.0539 25.3125 31.1617C24.4206 30.2697 23.9746 29.1881 23.9746 27.9167H16.6667C16.6667 29.1881 16.2206 30.2697 15.3283 31.1617C14.4364 32.0539 13.3547 32.5 12.0833 32.5ZM26.5096 21.875H34.4071L34.6379 20.6954L31.3142 16.25H27.8204L26.5096 21.875ZM26.715 10L23.1346 25.4167L23.3783 24.4358L26.715 10ZM6.45833 16.6825H4.2275C3.92639 16.6825 3.70472 16.5528 3.5625 16.2933C3.42056 16.0336 3.43611 15.7756 3.60917 15.5192L7.40708 9.78542C7.52458 9.6293 7.66833 9.57639 7.83833 9.62667C8.00806 9.67694 8.09292 9.8025 8.09292 10.0033V13.5417H10.3238C10.6251 13.5417 10.8468 13.6715 10.9888 13.9312C11.131 14.1907 11.1156 14.4486 10.9425 14.705L7.14417 20.4229C7.02667 20.579 6.88306 20.6346 6.71333 20.5896C6.54333 20.5449 6.45833 20.4221 6.45833 20.2213V16.6825ZM12.0833 30C12.6625 30 13.1544 29.7975 13.5592 29.3925C13.9642 28.9878 14.1667 28.4958 14.1667 27.9167C14.1667 27.3375 13.9642 26.8456 13.5592 26.4408C13.1544 26.0358 12.6625 25.8333 12.0833 25.8333C11.5042 25.8333 11.0122 26.0358 10.6075 26.4408C10.2025 26.8456 10 27.3375 10 27.9167C10 28.4958 10.2025 28.9878 10.6075 29.3925C11.0122 29.7975 11.5042 30 12.0833 30ZM28.5579 30C29.1368 30 29.6288 29.7975 30.0338 29.3925C30.4388 28.9878 30.6413 28.4958 30.6413 27.9167C30.6413 27.3375 30.4388 26.8456 30.0338 26.4408C29.6288 26.0358 29.1368 25.8333 28.5579 25.8333C27.9788 25.8333 27.4867 26.0358 27.0817 26.4408C26.6767 26.8456 26.4742 27.3375 26.4742 27.9167C26.4742 28.4958 26.6767 28.9878 27.0817 29.3925C27.4867 29.7975 27.9788 30 28.5579 30Z" fill="var(--fill-0, #0095DA)"/>
</g>
</svg>
