<svg preserveAspectRatio="none" width="100%" height="100%" overflow="visible" style="display: block;" viewBox="0 0 43 43" fill="none" xmlns="http://www.w3.org/2000/svg">
<g id="book_2_24dp_E3E3E3_FILL0_wght300_GRAD0_opsz24 2">
<path id="Vector" d="M10.75 28.3876C11.1567 28.1096 11.5925 27.9028 12.0575 27.7673C12.5227 27.632 13.0172 27.5643 13.541 27.5643H14.6778V7.16667H13.8854C13.0239 7.16667 12.2861 7.47394 11.6718 8.08848C11.0573 8.70272 10.75 9.44059 10.75 10.3021V28.3876ZM17.3653 27.5643H32.25V7.71805C32.25 7.5571 32.1983 7.42497 32.095 7.32165C31.9917 7.21833 31.8596 7.16667 31.6986 7.16667H17.3653V27.5643ZM13.541 38.5208C12.0273 38.5208 10.7358 37.9862 9.66649 36.9168C8.59716 35.8475 8.0625 34.556 8.0625 33.0424V10.3021C8.0625 8.6851 8.62867 7.3103 9.761 6.17767C10.8936 5.04533 12.2684 4.47917 13.8854 4.47917H31.6986C32.5921 4.47917 33.3553 4.79554 33.9884 5.4283C34.6211 6.06136 34.9375 6.82461 34.9375 7.71805V29.4693C34.9375 29.6852 34.8548 29.8787 34.6894 30.0498C34.5239 30.2209 34.2564 30.3858 33.8867 30.5443C33.3653 30.7304 32.9449 31.0463 32.6254 31.4921C32.3061 31.9377 32.1465 32.4544 32.1465 33.0424C32.1465 33.619 32.3033 34.1347 32.6168 34.5895C32.9304 35.0443 33.3478 35.3612 33.8692 35.5404C34.2069 35.6736 34.4694 35.8596 34.6567 36.0985C34.8439 36.3374 34.9375 36.5958 34.9375 36.8738V37.1493C34.9375 37.5306 34.8088 37.8546 34.5514 38.1213C34.2943 38.3877 33.9751 38.5208 33.5937 38.5208H13.541ZM13.541 35.8333H30.2827C30.023 35.4266 29.8208 34.9954 29.6763 34.5398C29.5314 34.0838 29.459 33.5846 29.459 33.0424C29.459 32.5302 29.5268 32.0387 29.6624 31.5678C29.798 31.0969 30.0047 30.6581 30.2827 30.2514H13.541C12.7416 30.2514 12.0766 30.5242 11.5459 31.0697C11.0153 31.6153 10.75 32.2728 10.75 33.0424C10.75 33.8417 11.0153 34.5068 11.5459 35.0374C12.0766 35.568 12.7416 35.8333 13.541 35.8333Z" fill="var(--fill-0, #0095DA)"/>
</g>
</svg>
