<svg preserveAspectRatio="none" width="100%" height="100%" overflow="visible" style="display: block;" viewBox="0 0 41 41" fill="none" xmlns="http://www.w3.org/2000/svg">
<g id="digital_wellbeing_24dp_E3E3E3_FILL0_wght300_GRAD0_opsz24 1">
<path id="Vector" d="M20.5 15.2763C19.0237 15.2763 17.7677 14.7584 16.7318 13.7226C15.696 12.6865 15.1781 11.4305 15.1781 9.95446C15.1781 8.47817 15.696 7.22212 16.7318 6.1863C17.7677 5.1502 19.0237 4.63215 20.5 4.63215C21.9763 4.63215 23.2323 5.1502 24.2682 6.1863C25.304 7.22212 25.8219 8.47817 25.8219 9.95446C25.8219 11.4305 25.304 12.6865 24.2682 13.7226C23.2323 14.7584 21.9763 15.2763 20.5 15.2763ZM20.5 12.7138C21.2665 12.7138 21.9181 12.4456 22.4548 11.9092C22.9915 11.3725 23.2598 10.7209 23.2598 9.95446C23.2598 9.1877 22.9915 8.53611 22.4548 7.9997C21.9181 7.463 21.2665 7.19465 20.5 7.19465C19.7335 7.19465 19.0819 7.463 18.5452 7.9997C18.0085 8.53611 17.7402 9.1877 17.7402 9.95446C17.7402 10.7209 18.0085 11.3725 18.5452 11.9092C19.0819 12.4456 19.7335 12.7138 20.5 12.7138ZM18.6571 34.2619L10.71 26.3147C10.2063 25.8111 9.82847 25.2389 9.57649 24.5983C9.32479 23.9577 9.19895 23.2577 9.19895 22.4983C9.19895 21.0047 9.71202 19.7452 10.7382 18.7199C11.7646 17.6946 13.0255 17.182 14.5208 17.182C15.2529 17.182 15.9281 17.3194 16.5465 17.5941C17.1649 17.8692 17.7315 18.2639 18.2463 18.7784L20.5 21.0321L22.7537 18.7784C23.2574 18.2748 23.8224 17.8827 24.4488 17.6022C25.0752 17.3221 25.7544 17.182 26.4864 17.182C27.9752 17.182 29.2333 17.6946 30.2606 18.7199C31.2876 19.7452 31.8011 21.0047 31.8011 22.4983C31.8011 23.2577 31.6752 23.9577 31.4235 24.5983C31.1715 25.2389 30.7937 25.8111 30.29 26.3147L22.3429 34.2619C22.0781 34.527 21.7868 34.723 21.4691 34.85C21.1516 34.977 20.8286 35.0405 20.5 35.0405C20.1714 35.0405 19.8484 34.977 19.5309 34.85C19.2132 34.723 18.9219 34.527 18.6571 34.2619ZM20.5 32.4519L28.4373 24.5146C28.7155 24.2364 28.9187 23.9254 29.0468 23.5814C29.1749 23.2377 29.239 22.8813 29.239 22.512C29.239 21.774 28.975 21.1282 28.4472 20.5747C27.9193 20.0212 27.2627 19.7445 26.4775 19.7445C26.115 19.7445 25.7874 19.799 25.4947 19.9081C25.2018 20.0174 24.9166 20.2124 24.6393 20.4932L20.5 24.6329L16.3936 20.5261C16.2043 20.3307 15.9598 20.1516 15.6603 19.9888C15.3605 19.8259 14.9831 19.7445 14.5281 19.7445C13.7391 19.7445 13.0807 20.0198 12.5528 20.5705C12.025 21.1214 11.761 21.764 11.761 22.4983C11.761 22.8656 11.8295 23.2153 11.9664 23.5472C12.1034 23.8789 12.3021 24.1839 12.5627 24.4621L20.5 32.4519Z" fill="var(--fill-0, #0095DA)"/>
</g>
</svg>
