<svg preserveAspectRatio="none" width="100%" height="100%" overflow="visible" style="display: block;" viewBox="0 0 40 40" fill="none" xmlns="http://www.w3.org/2000/svg">
<g id="finance_mode_24dp_E3E3E3_FILL0_wght300_GRAD0_opsz24 1">
<path id="Vector" d="M13.9104 19.1667V12.5C13.9104 11.9658 14.0974 11.5118 14.4712 11.1379C14.8451 10.764 15.2992 10.5771 15.8333 10.5771C16.3675 10.5771 16.8215 10.764 17.1954 11.1379C17.5693 11.5118 17.7562 11.9658 17.7562 12.5V19.1667C17.7562 19.7008 17.5693 20.1549 17.1954 20.5287C16.8215 20.9026 16.3675 21.0896 15.8333 21.0896C15.2992 21.0896 14.8451 20.9026 14.4712 20.5287C14.0974 20.1549 13.9104 19.7008 13.9104 19.1667ZM21.6987 20.0579V5.83333C21.6987 5.29917 21.8857 4.84514 22.2596 4.47125C22.6335 4.09736 23.0875 3.91042 23.6217 3.91042C24.1558 3.91042 24.6099 4.09736 24.9837 4.47125C25.3576 4.84514 25.5446 5.29917 25.5446 5.83333V20.0579C25.5446 20.6987 25.3472 21.1794 24.9525 21.5C24.5578 21.8206 24.115 21.9808 23.6242 21.9808C23.1333 21.9808 22.6897 21.8206 22.2933 21.5C21.8969 21.1794 21.6987 20.6987 21.6987 20.0579ZM6.09 24.7179V19.1667C6.09 18.6325 6.27694 18.1785 6.65083 17.8046C7.02472 17.4307 7.47875 17.2437 8.01292 17.2437C8.54708 17.2437 9.00111 17.4307 9.375 17.8046C9.74889 18.1785 9.93583 18.6325 9.93583 19.1667V24.7179C9.93583 25.359 9.73847 25.8397 9.34375 26.16C8.94875 26.4806 8.50583 26.6408 8.015 26.6408C7.52417 26.6408 7.08056 26.4806 6.68417 26.16C6.28806 25.8397 6.09 25.359 6.09 24.7179ZM8.99417 34.6667C8.44667 34.6667 8.06458 34.4118 7.84792 33.9021C7.63097 33.3926 7.72222 32.9381 8.12167 32.5383L14.795 25.8654C15.0683 25.5918 15.4011 25.4411 15.7933 25.4133C16.1853 25.3856 16.5331 25.5085 16.8367 25.7821L21.6987 29.9617L31.9937 19.6667H30C29.6458 19.6667 29.349 19.5468 29.1096 19.3071C28.8699 19.0674 28.75 18.7704 28.75 18.4162C28.75 18.0618 28.8699 17.765 29.1096 17.5258C29.349 17.2864 29.6458 17.1667 30 17.1667H34.7437C35.1704 17.1667 35.5282 17.311 35.8171 17.5996C36.1057 17.8885 36.25 18.2462 36.25 18.6729V23.4167C36.25 23.7708 36.1301 24.0676 35.8904 24.3071C35.6507 24.5468 35.3537 24.6667 34.9996 24.6667C34.6451 24.6667 34.3483 24.5468 34.1092 24.3071C33.8697 24.0676 33.75 23.7708 33.75 23.4167V21.4229L22.7883 32.3846C22.515 32.6582 22.1822 32.8089 21.79 32.8367C21.3981 32.8644 21.0503 32.7415 20.7467 32.4679L15.8846 28.2883L9.87833 34.295C9.77306 34.3981 9.64139 34.4858 9.48333 34.5583C9.32556 34.6306 9.1625 34.6667 8.99417 34.6667Z" fill="var(--fill-0, #0095DA)"/>
</g>
</svg>
