<svg width="35" height="35" viewBox="0 0 35 35" fill="none" xmlns="http://www.w3.org/2000/svg">
<path d="M10.6488 17.2812C11.0452 16.4886 11.4677 15.7248 11.9164 14.9898C12.3651 14.2551 12.8596 13.5297 13.3999 12.8136L11.2602 12.3845C11.1853 12.3658 11.1129 12.3681 11.0429 12.3914C10.9726 12.415 10.9094 12.4547 10.8533 12.5106L7.55234 15.8116C7.52439 15.8398 7.51504 15.8726 7.52427 15.91C7.53375 15.9472 7.55721 15.9752 7.59464 15.9939L10.6488 17.2812ZM27.7867 6.82059C25.8143 6.92535 23.918 7.4213 22.0978 8.30845C20.2778 9.19561 18.5965 10.4104 17.0541 11.9528C16.0051 13.0016 15.0795 14.1093 14.2774 15.276C13.4754 16.4427 12.8472 17.5691 12.3929 18.6553L16.5353 22.7751C17.6215 22.3209 18.7503 21.6927 19.9216 20.8906C21.0928 20.0885 22.203 19.1631 23.252 18.1143C24.7945 16.5719 26.0093 14.8966 26.8964 13.0885C27.7836 11.2807 28.2795 9.39042 28.3843 7.41778C28.3843 7.33927 28.373 7.26307 28.3504 7.18918C28.328 7.11529 28.2851 7.04663 28.2217 6.98319C28.158 6.91951 28.0892 6.87649 28.0153 6.85413C27.9414 6.83177 27.8652 6.82059 27.7867 6.82059ZM19.8782 15.3041C19.3845 14.8104 19.1377 14.2103 19.1377 13.5038C19.1377 12.797 19.3845 12.1967 19.8782 11.7031C20.3718 11.2094 20.9757 10.9626 21.6898 10.9626C22.4041 10.9626 23.008 11.2094 23.5014 11.7031C23.9951 12.1967 24.2419 12.797 24.2419 13.5038C24.2419 14.2103 23.9951 14.8104 23.5014 15.3041C23.008 15.7977 22.4041 16.0445 21.6898 16.0445C20.9757 16.0445 20.3718 15.7977 19.8782 15.3041ZM17.9094 24.5335L19.1968 27.6102C19.2155 27.6477 19.2434 27.6687 19.2806 27.6733C19.3181 27.6779 19.3509 27.6662 19.3791 27.6383L22.68 24.3512C22.7359 24.2951 22.7756 24.232 22.7992 24.162C22.8226 24.0918 22.8249 24.0193 22.8061 23.9447L22.377 21.805C21.661 22.3453 20.9356 22.836 20.2008 23.2772C19.4658 23.7183 18.702 24.1371 17.9094 24.5335ZM30.4679 6.1308C30.5595 8.68288 30.1103 11.1072 29.1204 13.4039C28.1304 15.7007 26.607 17.8776 24.5503 19.9343C24.5036 19.981 24.4593 20.023 24.4172 20.0604C24.3752 20.0979 24.3308 20.1399 24.2842 20.1866L24.9572 23.5014C25.0449 23.9408 25.0229 24.3681 24.8912 24.7832C24.7595 25.1981 24.5374 25.5618 24.2251 25.8741L19.8979 30.2013C19.5707 30.5285 19.1753 30.6519 18.7115 30.5717C18.2478 30.4913 17.928 30.2313 17.7523 29.7919L15.7668 25.1252L10.0654 19.4097L5.39875 17.4241C4.95931 17.2484 4.69802 16.9288 4.6149 16.4653C4.53177 16.0015 4.65379 15.6061 4.98094 15.2789L9.30818 10.9517C9.6205 10.6394 9.98788 10.4196 10.4103 10.2925C10.8327 10.1654 11.2637 10.1457 11.7031 10.2335L15.0179 10.9068C15.0648 10.8599 15.1046 10.8178 15.1371 10.7803C15.1699 10.7431 15.2097 10.7011 15.2564 10.6542C17.3131 8.59769 19.4899 7.07203 21.7868 6.0772C24.0836 5.08262 26.5081 4.63114 29.0602 4.72278C29.2359 4.73785 29.4092 4.78087 29.5801 4.85184C29.7512 4.92281 29.9051 5.0266 30.0417 5.16319C30.178 5.29955 30.2794 5.45097 30.3457 5.61747C30.4121 5.78372 30.4528 5.95482 30.4679 6.1308ZM6.59349 23.4372C7.30394 22.7268 8.17007 22.3701 9.19188 22.3672C10.2134 22.3645 11.0794 22.7184 11.7899 23.4288C12.5003 24.1393 12.8519 25.0053 12.8446 26.0268C12.8371 27.0486 12.4781 27.9148 11.7677 28.6252C10.7787 29.6142 9.612 30.2158 8.26766 30.4299C6.92332 30.644 5.57059 30.8324 4.20948 30.995C4.37233 29.6247 4.56313 28.2696 4.78188 26.9299C5.00063 25.5904 5.6045 24.4262 6.59349 23.4372ZM8.15281 24.9878C7.73014 25.4105 7.4375 25.9135 7.2749 26.4968C7.11229 27.0801 6.987 27.6802 6.89901 28.2971C7.51613 28.2094 8.11635 28.0855 8.69969 27.9256C9.28302 27.7657 9.7859 27.4745 10.2083 27.052C10.5 26.7604 10.6534 26.4103 10.6684 26.0017C10.6833 25.5931 10.5448 25.243 10.2532 24.9513C9.96151 24.6597 9.61139 24.5199 9.20281 24.532C8.79448 24.5442 8.44448 24.6961 8.15281 24.9878Z" fill="#0095DA"/>
</svg>
