<svg width="35" height="35" viewBox="0 0 35 35" fill="none" xmlns="http://www.w3.org/2000/svg">
<path d="M1.99136 25.9415C1.63382 25.9415 1.33402 25.8206 1.09193 25.5788C0.850092 25.3367 0.729172 25.0369 0.729172 24.6793V24.1635C0.729172 23.1932 1.23582 22.3962 2.24912 21.7725C3.26266 21.1491 4.58367 20.8374 6.21214 20.8374C6.4812 20.8374 6.75221 20.8458 7.02516 20.8625C7.29811 20.8793 7.57301 20.912 7.84985 20.9606C7.56572 21.4151 7.35487 21.8868 7.2173 22.3755C7.07997 22.8646 7.01131 23.3661 7.01131 23.8802V25.9415H1.99136ZM10.803 25.9415C10.4233 25.9415 10.1078 25.8151 9.85652 25.5624C9.60495 25.3098 9.47917 24.9968 9.47917 24.6232V23.9363C9.47917 23.2536 9.67082 22.6295 10.0541 22.0642C10.4374 21.4986 10.9899 21.0056 11.7115 20.5851C12.4331 20.1643 13.2858 19.8489 14.2694 19.6386C15.2528 19.4281 16.3279 19.3229 17.4945 19.3229C18.6836 19.3229 19.7698 19.4281 20.7532 19.6386C21.7366 19.8489 22.5891 20.1643 23.3107 20.5851C24.0326 21.0056 24.5814 21.4986 24.9572 22.0642C25.333 22.6295 25.5208 23.2536 25.5208 23.9363V24.6232C25.5208 24.9968 25.3945 25.3098 25.1417 25.5624C24.8891 25.8151 24.5761 25.9415 24.2025 25.9415H10.803ZM27.9887 25.9415V23.882C27.9887 23.3329 27.9238 22.8163 27.794 22.3322C27.664 21.848 27.4691 21.3908 27.2092 20.9606C27.4953 20.912 27.7687 20.8793 28.0295 20.8625C28.2903 20.8458 28.5479 20.8374 28.8021 20.8374C30.4306 20.8374 31.7491 21.1454 32.7578 21.7616C33.7665 22.3775 34.2708 23.1781 34.2708 24.1635V24.6793C34.2708 25.0369 34.1499 25.3367 33.9081 25.5788C33.666 25.8206 33.3662 25.9415 33.0087 25.9415H27.9887ZM11.779 23.754H23.2437V23.5998C23.0942 23.0109 22.4734 22.5154 21.3814 22.1134C20.2896 21.7114 18.9958 21.5104 17.5 21.5104C16.0042 21.5104 14.7105 21.7114 13.6187 22.1134C12.5266 22.5154 11.9134 23.0109 11.779 23.5998V23.754ZM6.20813 19.421C5.52077 19.421 4.93355 19.1766 4.44646 18.6878C3.95938 18.199 3.71584 17.6114 3.71584 16.925C3.71584 16.2296 3.96035 15.6422 4.44938 15.1626C4.93817 14.6831 5.52575 14.4433 6.21214 14.4433C6.90752 14.4433 7.4973 14.6831 7.98146 15.1626C8.46587 15.6422 8.70808 16.2311 8.70808 16.9294C8.70808 17.607 8.46843 18.1917 7.98912 18.6834C7.51006 19.1751 6.91639 19.421 6.20813 19.421ZM28.8021 19.421C28.1215 19.421 27.5354 19.1751 27.0437 18.6834C26.552 18.1917 26.3062 17.607 26.3062 16.9294C26.3062 16.2311 26.552 15.6422 27.0437 15.1626C27.5354 14.6831 28.1224 14.4433 28.8046 14.4433C29.5078 14.4433 30.0992 14.6831 30.5787 15.1626C31.0583 15.6422 31.298 16.2296 31.298 16.925C31.298 17.6114 31.0589 18.199 30.5805 18.6878C30.1022 19.1766 29.5094 19.421 28.8021 19.421ZM17.5051 18.2291C16.4546 18.2291 15.5602 17.861 14.8218 17.1248C14.0834 16.3888 13.7142 15.495 13.7142 14.4433C13.7142 13.3705 14.0822 12.4713 14.8181 11.7457C15.5543 11.02 16.4483 10.6571 17.5 10.6571C18.5726 10.6571 19.4718 11.0195 20.1976 11.7443C20.9231 12.4688 21.2858 13.3668 21.2858 14.4382C21.2858 15.4884 20.9236 16.3829 20.199 17.1215C19.4742 17.8599 18.5763 18.2291 17.5051 18.2291ZM17.5069 16.0416C17.9529 16.0416 18.3297 15.8856 18.6371 15.5735C18.9449 15.2612 19.0987 14.882 19.0987 14.436C19.0987 13.9902 18.9455 13.6135 18.639 13.3058C18.3325 12.9983 17.9528 12.8446 17.5 12.8446C17.0589 12.8446 16.6821 12.9979 16.3698 13.3043C16.0575 13.6106 15.9013 13.9902 15.9013 14.4433C15.9013 14.8844 16.0575 15.2612 16.3698 15.5735C16.6821 15.8856 17.0612 16.0416 17.5069 16.0416Z" fill="#0095DA"/>
</svg>
