<svg width="35" height="35" viewBox="0 0 35 35" fill="none" xmlns="http://www.w3.org/2000/svg">
<path d="M29.4613 12.8614L22.318 19.9679C21.5329 20.7437 20.5841 21.1341 19.4717 21.1389C18.3592 21.1436 17.4151 20.758 16.6392 19.9821L14.9257 18.2686C14.574 17.9169 14.1472 17.7435 13.6453 17.7483C13.1431 17.7529 12.7163 17.9264 12.3649 18.2686L5.65652 24.9769C5.45478 25.1786 5.20103 25.2819 4.89527 25.2868C4.58951 25.2914 4.33102 25.1881 4.1198 24.9769C3.90859 24.7655 3.80298 24.5093 3.80298 24.2084C3.80298 23.9075 3.90859 23.6513 4.1198 23.4398L10.8281 16.7315C11.6134 15.9557 12.5599 15.5654 13.6675 15.5608C14.7754 15.5562 15.7219 15.9464 16.5072 16.7315L18.1843 18.4086C18.5509 18.7751 18.9836 18.9561 19.4826 18.9514C19.9819 18.9468 20.4147 18.7659 20.7813 18.4086L27.9019 11.3021H24.7217C24.4113 11.3021 24.1513 11.1974 23.9418 10.9879C23.7326 10.7786 23.6279 10.5188 23.6279 10.2084C23.6279 9.89799 23.7326 9.63817 23.9418 9.42889C24.1513 9.21938 24.4113 9.11462 24.7217 9.11462H30.3304C30.7062 9.11462 31.0199 9.2404 31.2714 9.49197C31.523 9.74329 31.6488 10.0568 31.6488 10.4326V16.0417C31.6488 16.3521 31.544 16.6119 31.3345 16.8212C31.1252 17.0307 30.8654 17.1355 30.555 17.1355C30.2446 17.1355 29.9847 17.0307 29.7752 16.8212C29.5659 16.6119 29.4613 16.3521 29.4613 16.0417V12.8614Z" fill="#0095DA"/>
</svg>
