<svg width="35" height="35" viewBox="0 0 35 35" fill="none" xmlns="http://www.w3.org/2000/svg">
<path d="M17.8646 12.7604V23.3333C17.8646 23.6437 17.9693 23.9035 18.1788 24.1128C18.3881 24.3223 18.6479 24.427 18.9583 24.427C19.2687 24.427 19.5285 24.3223 19.7378 24.1128C19.9473 23.9035 20.0521 23.6437 20.0521 23.3333V11.8908C20.0521 11.5151 19.9263 11.2015 19.6747 10.9502C19.4234 10.6987 19.1099 10.5729 18.7341 10.5729H16.0417C15.7313 10.5729 15.4714 10.6776 15.2622 10.8871C15.0527 11.0964 14.9479 11.3562 14.9479 11.6666C14.9479 11.977 15.0527 12.2368 15.2622 12.4461C15.4714 12.6556 15.7313 12.7604 16.0417 12.7604H17.8646ZM7.74046 29.8958C7.00376 29.8958 6.3802 29.6406 5.86978 29.1302C5.35936 28.6198 5.10416 27.9962 5.10416 27.2595V7.74043C5.10416 7.00373 5.35936 6.38017 5.86978 5.86975C6.3802 5.35933 7.00376 5.10413 7.74046 5.10413H27.2595C27.9962 5.10413 28.6198 5.35933 29.1302 5.86975C29.6406 6.38017 29.8958 7.00373 29.8958 7.74043V27.2595C29.8958 27.9962 29.6406 28.6198 29.1302 29.1302C28.6198 29.6406 27.9962 29.8958 27.2595 29.8958H7.74046ZM7.74046 27.7083H27.2595C27.3718 27.7083 27.4746 27.6615 27.568 27.5679C27.6615 27.4746 27.7083 27.3718 27.7083 27.2595V7.74043C27.7083 7.62814 27.6615 7.52532 27.568 7.43199C27.4746 7.33841 27.3718 7.29163 27.2595 7.29163H7.74046C7.62817 7.29163 7.52535 7.33841 7.43202 7.43199C7.33844 7.52532 7.29166 7.62814 7.29166 7.74043V27.2595C7.29166 27.3718 7.33844 27.4746 7.43202 27.5679C7.52535 27.6615 7.62817 27.7083 7.74046 27.7083Z" fill="#0095DA"/>
</svg>
